<?xml version="1.0" standalone="no"?>
<!DOCTYPE svg PUBLIC "-//W3C//DTD SVG 20010904//EN"
 "http://www.w3.org/TR/2001/REC-SVG-20010904/DTD/svg10.dtd">
<svg version="1.0" xmlns="http://www.w3.org/2000/svg"
 width="512.000000pt" height="512.000000pt" viewBox="0 0 512.000000 512.000000"
 preserveAspectRatio="xMidYMid meet">
<metadata>
Created by potrace 1.14, written by Peter Selinger 2001-2017
</metadata>
<g transform="translate(0.000000,512.000000) scale(0.100000,-0.100000)"
fill="#000000" stroke="none">
<path d="M2760 4721 c-71 -22 -139 -81 -166 -146 -32 -78 -18 -185 34 -253 14
-19 50 -48 79 -64 30 -17 53 -33 51 -37 -2 -4 -23 -41 -46 -84 -33 -58 -48
-77 -60 -73 -10 3 -39 7 -67 11 -27 3 -57 8 -65 10 -8 2 -40 6 -71 10 -31 3
-67 8 -80 10 -13 3 -87 14 -164 25 -77 12 -151 23 -165 25 -23 4 -161 24 -205
30 -11 2 -55 8 -98 15 -105 17 -162 9 -292 -40 -60 -22 -139 -52 -175 -65 -36
-13 -78 -29 -95 -36 -16 -7 -34 -13 -40 -15 -5 -1 -71 -26 -145 -54 -74 -29
-188 -72 -253 -97 -134 -51 -215 -106 -265 -180 -39 -59 -70 -137 -77 -196 -3
-23 -7 -51 -9 -62 -2 -12 -7 -48 -11 -80 -4 -33 -9 -67 -10 -76 -4 -19 -15
-106 -18 -134 -3 -29 -14 -33 -62 -23 -99 21 -139 -5 -150 -97 -3 -27 -7 -61
-9 -75 -2 -14 -7 -47 -11 -75 -3 -27 -8 -61 -10 -75 -2 -14 -13 -95 -25 -180
-11 -85 -23 -166 -25 -180 -2 -14 -6 -47 -10 -73 -4 -27 -8 -57 -10 -66 -2
-10 -6 -42 -10 -72 -3 -30 -8 -65 -10 -79 -15 -96 -15 -115 -5 -141 15 -36 24
-39 140 -53 19 -3 25 -9 24 -27 -1 -26 -12 -120 -18 -159 -7 -37 -14 -89 -21
-145 -4 -27 -8 -61 -11 -75 -2 -14 -6 -50 -10 -80 -3 -30 -10 -73 -14 -95 -15
-70 -6 -204 19 -267 54 -140 194 -253 337 -273 19 -3 51 -7 72 -10 106 -16
172 -25 217 -30 28 -3 61 -8 75 -10 14 -3 42 -7 63 -10 20 -3 52 -7 70 -9 131
-18 195 -27 217 -30 14 -2 46 -7 71 -10 25 -4 57 -8 70 -10 28 -5 98 -14 154
-21 22 -3 87 -12 145 -21 58 -8 123 -17 145 -20 22 -3 51 -7 65 -9 14 -2 63
-9 110 -15 89 -12 110 -15 175 -25 48 -7 93 -13 160 -20 28 -3 57 -8 65 -10 8
-2 38 -7 65 -10 28 -3 61 -7 75 -10 14 -3 48 -7 75 -10 28 -4 61 -8 75 -10 14
-2 61 -9 105 -15 44 -6 109 -16 145 -21 36 -5 83 -11 105 -14 54 -6 187 -25
211 -29 10 -2 46 -7 79 -11 32 -4 68 -9 80 -11 11 -2 38 -6 60 -9 22 -3 54 -7
70 -9 166 -23 215 -27 264 -23 65 7 123 26 183 61 31 17 66 26 122 31 43 4 87
8 97 10 10 2 49 7 86 10 37 4 75 9 83 10 8 2 49 6 90 10 194 17 305 84 368
222 38 84 37 80 57 293 3 30 7 66 10 80 2 14 6 45 9 70 3 25 21 162 41 305 19
143 37 280 40 305 8 73 15 123 20 150 3 14 7 48 10 75 2 28 6 59 9 70 2 11 7
46 11 79 3 32 8 68 10 80 3 19 7 48 21 154 2 17 6 47 8 65 3 17 10 70 16 117
6 47 13 101 16 120 2 19 7 53 10 75 2 22 7 51 9 65 2 14 6 50 10 80 3 30 8 66
10 80 3 14 7 45 10 70 3 25 10 82 16 127 26 196 -32 342 -178 447 -81 58 -150
79 -333 101 -30 3 -62 8 -70 10 -8 2 -37 7 -65 10 -27 3 -59 7 -70 9 -31 6
-101 16 -200 31 -23 3 -50 7 -60 9 -11 2 -42 7 -70 10 -27 4 -61 8 -75 11 -44
8 -87 15 -131 20 -24 3 -71 10 -104 15 -33 5 -80 12 -105 15 -25 3 -52 8 -60
10 -8 2 -40 7 -70 10 -30 3 -62 8 -71 11 -9 2 -34 6 -55 9 -58 6 -317 45 -334
50 -8 2 -40 7 -70 10 -63 6 -113 15 -118 20 -2 2 -14 45 -28 97 -13 51 -24 93
-24 93 0 0 16 1 36 3 50 3 113 33 150 71 126 126 81 345 -84 410 -53 21 -116
26 -162 12z"/>
</g>
</svg>
