<svg width="20" height="21" viewBox="0 0 20 21" fill="none" xmlns="http://www.w3.org/2000/svg">
<g clip-path="url(#clip0_302_1965)">
<path d="M18.0892 16.5019C19.1505 15.031 19.7966 13.2982 19.9589 11.4846C20.1238 9.67106 19.7966 7.84635 19.0185 6.20829C18.2377 4.56745 17.0334 3.17175 15.5321 2.17164C14.0309 1.17154 12.2877 0.603228 10.4923 0.525226C8.69683 0.450008 6.91514 0.867881 5.33692 1.73706C3.75869 2.60623 2.44167 3.89328 1.52883 5.46169C1.51509 5.47841 1.49584 5.48955 1.48484 5.50627C1.47109 5.53691 1.45735 5.56755 1.44635 5.5982C0.451022 7.25297 -0.0521398 9.16405 0.00285055 11.1002C0.0578409 13.0363 0.668234 14.914 1.75704 16.5047V16.527C1.75704 16.527 1.78179 16.5492 1.79279 16.566C3.00807 18.335 4.75402 19.661 6.77217 20.3435C8.79031 21.0288 10.9707 21.0344 12.9916 20.3658C15.0125 19.6944 16.7694 18.3823 17.9957 16.6217C18.0232 16.5938 18.0479 16.5632 18.0699 16.5325C18.0699 16.5325 18.0809 16.5158 18.0864 16.5075L18.0892 16.5019ZM17.3441 15.3346C16.137 14.6298 14.8365 14.0977 13.4837 13.7606C13.5882 12.7772 13.6405 11.7911 13.6432 10.8021C13.6432 10.0165 13.6075 9.22812 13.5442 8.45645C14.9767 8.0915 16.3487 7.51205 17.6135 6.7376C18.3036 8.06922 18.6446 9.56242 18.5978 11.0668C18.5511 12.5711 18.1222 14.0392 17.3496 15.3263L17.3441 15.3346V15.3346ZM9.92312 19.5997C9.178 19.5997 8.21841 17.7917 7.73725 14.7552C9.18349 14.51 10.66 14.51 12.1062 14.7552C11.6278 17.7917 10.6682 19.5997 9.92312 19.5997ZM9.92312 13.3149C9.13675 13.3149 8.35314 13.3818 7.57503 13.5071C7.48429 12.6073 7.4403 11.7047 7.4403 10.7993C7.4403 10.0666 7.47054 9.37298 7.52004 8.71274C8.31465 8.84368 9.11751 8.91332 9.92037 8.91332C10.726 8.91332 11.5288 8.84368 12.3207 8.71274C12.3702 9.37019 12.4004 10.0639 12.4004 10.8021C12.4004 11.7075 12.3564 12.6101 12.2657 13.5099C11.4903 13.3818 10.704 13.3177 9.91762 13.3149H9.92312ZM9.92312 2.00449C10.704 2.00449 11.757 4.05486 12.1942 7.46191C11.4436 7.59284 10.6847 7.65692 9.92312 7.6597C9.1615 7.6597 8.40263 7.59006 7.65201 7.46191C8.09194 4.05764 9.14225 2.00449 9.92312 2.00449ZM16.9619 5.67063C15.8566 6.34758 14.6633 6.86017 13.415 7.19447C13.1538 5.21097 12.6699 3.44755 11.977 2.26358C13.9869 2.76224 15.7548 3.97128 16.9619 5.67063V5.67063ZM7.86648 2.26079C7.17085 3.44198 6.68693 5.2054 6.42848 7.1889C5.18019 6.8546 3.9869 6.34201 2.8816 5.66506C4.09139 3.96292 5.85933 2.75667 7.86648 2.26079V2.26079ZM2.23271 6.74038C3.49749 7.51763 4.86675 8.09708 6.302 8.45923C6.23876 9.22812 6.20302 10.0137 6.20302 10.8049C6.20302 11.7939 6.25526 12.7828 6.35699 13.7662C5.00423 14.1005 3.7037 14.627 2.49666 15.3291C1.72405 14.042 1.29512 12.5739 1.24838 11.0695C1.20164 9.5652 1.54258 8.072 2.23271 6.74038V6.74038ZM3.20879 16.371C4.25086 15.772 5.36441 15.3179 6.52196 15.017C6.79691 16.7526 7.24508 18.2848 7.86922 19.3434C6.03804 18.8921 4.40208 17.8502 3.20604 16.3737L3.20879 16.371ZM11.977 19.349C12.5984 18.2876 13.0521 16.761 13.3243 15.0226C14.4818 15.3235 15.5981 15.7804 16.6374 16.3765C15.4441 17.853 13.8082 18.8949 11.977 19.3462V19.349Z" fill="black"/>
</g>
<defs>
<clipPath id="clip0_302_1965">
<rect width="20" height="20.3448" fill="white" transform="translate(0 0.51709)"/>
</clipPath>
</defs>
</svg>
