<svg width="26" height="29" viewBox="0 0 26 29" fill="none" xmlns="http://www.w3.org/2000/svg">
<g clip-path="url(#clip0_732_2865)">
<path fill-rule="evenodd" clip-rule="evenodd" d="M25.6359 14.0526C25.4676 6.66393 19.9063 0.738647 13.0738 0.738647C6.24139 0.738647 0.801588 6.53089 0.51184 13.7968C0.51184 14.0015 0.502493 14.1959 0.502493 14.4006C0.502493 16.9795 1.16611 19.3946 2.30641 21.4516L0.0351562 28.7788L6.99847 26.3535C8.80239 27.4382 10.868 28.0523 13.0738 28.0523C20.0185 28.0523 25.6452 21.9325 25.6452 14.3903C25.6452 14.2778 25.6452 14.155 25.6452 14.0424L25.6359 14.0526ZM13.0738 25.8827C10.9241 25.8827 8.93325 25.1868 7.26018 23.9793L3.2037 25.4017L4.52159 21.1343C3.25978 19.2411 2.51204 16.918 2.51204 14.4006C2.51204 14.0219 2.53073 13.6535 2.56812 13.2851C3.07284 7.47239 7.58732 2.91842 13.0738 2.91842C18.5604 2.91842 23.187 7.59519 23.6076 13.5102C23.6357 13.807 23.645 14.1038 23.645 14.4108C23.645 20.7454 18.8969 25.893 13.0738 25.893V25.8827Z" fill="#005CB9"/>
<path fill-rule="evenodd" clip-rule="evenodd" d="M18.8314 17.1535C18.523 16.9897 17.0088 16.171 16.7284 16.0687C16.448 15.9561 16.2424 15.905 16.0368 16.2325C15.8311 16.5702 15.2329 17.3172 15.0553 17.5424C14.8684 17.7675 14.7002 17.7982 14.3824 17.6242C14.0739 17.4605 13.0832 17.1125 11.9055 15.9664C10.9895 15.0863 10.3726 13.9913 10.195 13.6536C10.0175 13.3159 10.1764 13.1419 10.3259 12.9679C10.4661 12.8144 10.6343 12.579 10.7932 12.3846C10.8306 12.3232 10.868 12.272 10.9054 12.2209C10.9802 12.0981 11.0269 11.9855 11.1017 11.8217C11.2045 11.5966 11.1578 11.4022 11.0736 11.2384C10.9989 11.0747 10.382 9.41684 10.1203 8.75165C9.86791 8.08647 9.6062 8.19904 9.42861 8.19904C9.25103 8.19904 9.0454 8.16833 8.83977 8.16833C8.63414 8.16833 8.29766 8.2502 8.01726 8.58791C7.73686 8.92562 6.94238 9.73408 6.94238 11.3817C6.94238 11.7706 7.00781 12.1595 7.10128 12.5176C7.40972 13.6945 8.08268 14.6667 8.20419 14.8407C8.35374 15.0556 10.3352 18.5555 13.4664 19.8961C16.6069 21.2265 16.6069 20.7864 17.1677 20.725C17.7285 20.6739 18.9903 19.9166 19.2427 19.1286C19.5044 18.3508 19.5044 17.6754 19.4296 17.5321C19.3548 17.3991 19.1492 17.3172 18.8408 17.1432L18.8314 17.1535Z" fill="#005CB9"/>
</g>
<defs>
<clipPath id="clip0_732_2865">
<rect width="25.6101" height="28.0402" fill="white" transform="translate(0.0351562 0.738647)"/>
</clipPath>
</defs>
</svg>
