<svg width="20" height="21" viewBox="0 0 20 21" fill="none" xmlns="http://www.w3.org/2000/svg">
<g clip-path="url(#clip0_302_1990)">
<path d="M9.99 2.34812C12.66 2.34812 12.98 2.3583 14.03 2.40916C15 2.44985 15.53 2.62278 15.89 2.75502C16.36 2.93812 16.69 3.16192 17.04 3.51795C17.39 3.87399 17.61 4.20968 17.79 4.68778C17.93 5.04381 18.09 5.58295 18.13 6.57985C18.18 7.64795 18.19 7.97347 18.19 10.6895C18.19 13.4055 18.18 13.7311 18.13 14.7992C18.09 15.7961 17.92 16.325 17.79 16.6912C17.61 17.1693 17.39 17.505 17.04 17.8611C16.69 18.2171 16.36 18.4409 15.89 18.624C15.54 18.7664 15.01 18.9292 14.03 18.9698C12.98 19.0207 12.66 19.0309 9.99 19.0309C7.32 19.0309 7 19.0207 5.95 18.9698C4.98 18.9292 4.45 18.7562 4.09 18.624C3.62 18.4409 3.29 18.2171 2.94 17.8611C2.59 17.505 2.37 17.1693 2.19 16.6912C2.05 16.3352 1.89 15.7961 1.85 14.7992C1.8 13.7311 1.79 13.4055 1.79 10.6895C1.79 7.97347 1.8 7.64795 1.85 6.57985C1.89 5.58295 2.06 5.05399 2.19 4.68778C2.37 4.20968 2.59 3.87399 2.94 3.51795C3.29 3.16192 3.62 2.93812 4.09 2.75502C4.44 2.61261 4.97 2.44985 5.95 2.40916C7 2.3583 7.32 2.34812 9.99 2.34812V2.34812ZM9.99 0.51709C7.27 0.51709 6.93 0.527262 5.87 0.578124C4.81 0.628986 4.08 0.801917 3.44 1.04606C2.78 1.31054 2.22 1.6564 1.67 2.21588C1.11 2.78554 0.77 3.34502 0.52 4.0164C0.27 4.66743 0.1 5.39985 0.06 6.4883C0.01 7.57674 0 7.92261 0 10.6793C0 13.4361 0.01 13.7921 0.06 14.8704C0.11 15.9486 0.28 16.6912 0.52 17.3423C0.78 18.0136 1.12 18.5833 1.67 19.1428C2.22 19.7023 2.78 20.0583 3.44 20.3126C4.08 20.5669 4.8 20.7398 5.87 20.7805C6.94 20.8314 7.28 20.8416 9.99 20.8416C12.7 20.8416 13.05 20.8314 14.11 20.7805C15.17 20.7297 15.9 20.5567 16.54 20.3126C17.2 20.0481 17.76 19.7023 18.31 19.1428C18.87 18.5731 19.21 18.0136 19.46 17.3423C19.71 16.6912 19.88 15.9588 19.92 14.8704C19.97 13.7819 19.98 13.4361 19.98 10.6793C19.98 7.92261 19.97 7.56657 19.92 6.4883C19.87 5.41002 19.7 4.66743 19.46 4.0164C19.2 3.34502 18.86 2.77537 18.31 2.21588C17.75 1.64623 17.2 1.30037 16.54 1.04606C15.9 0.791745 15.18 0.618814 14.11 0.578124C13.04 0.527262 12.7 0.51709 9.99 0.51709" fill="#141613"/>
<path d="M10.0001 5.46094C7.16011 5.46094 4.86011 7.80059 4.86011 10.6896C4.86011 13.5785 7.16011 15.9182 10.0001 15.9182C12.8401 15.9182 15.1401 13.5785 15.1401 10.6896C15.1401 7.80059 12.8401 5.46094 10.0001 5.46094ZM10.0001 14.077C8.16011 14.077 6.67011 12.5613 6.67011 10.6896C6.67011 8.81783 8.16011 7.30214 10.0001 7.30214C11.8401 7.30214 13.3301 8.81783 13.3301 10.6896C13.3301 12.5613 11.8401 14.077 10.0001 14.077Z" fill="#141613"/>
<path d="M16.5399 5.25731C16.5399 5.92869 15.9999 6.478 15.3399 6.478C14.6799 6.478 14.1399 5.92869 14.1399 5.25731C14.1399 4.58593 14.6799 4.03662 15.3399 4.03662C15.9999 4.03662 16.5399 4.58593 16.5399 5.25731Z" fill="#141613"/>
</g>
<defs>
<clipPath id="clip0_302_1990">
<rect width="20" height="20.3448" fill="white" transform="translate(0 0.51709)"/>
</clipPath>
</defs>
</svg>
