<svg width="18" height="21" viewBox="0 0 18 21" fill="none" xmlns="http://www.w3.org/2000/svg">
<path d="M14.9 9.67236H2.42999C1.09 9.67236 0 10.7812 0 12.1443V18.38C0 19.7431 1.09 20.8518 2.42999 20.8518H14.9C16.24 20.8518 17.33 19.7431 17.33 18.38V12.1443C17.33 10.7812 16.24 9.67236 14.9 9.67236V9.67236ZM4.08999 19.0005H2.95999V12.6122H1.78V11.5237H5.25999V12.6122H4.08999V19.0005ZM8.12998 19.0005H7.11998V18.3901C6.92998 18.6139 6.73998 18.7868 6.53998 18.8987C5.99998 19.2141 5.24999 19.2039 5.24999 18.085V13.4768H6.25998V17.7086C6.25998 17.9324 6.30998 18.085 6.52998 18.085C6.72998 18.085 6.99998 17.8306 7.11998 17.6679V13.4768H8.12998V18.9903V19.0005ZM12.01 17.8612C12.01 18.5427 11.76 19.0717 11.09 19.0717C10.72 19.0717 10.41 18.9394 10.13 18.5834V19.0106H9.10998V11.5339H10.13V13.9448C10.36 13.66 10.67 13.426 11.03 13.426C11.77 13.426 12.01 14.0567 12.01 14.8094V17.8713V17.8612ZM15.74 16.376H13.81V17.4136C13.81 17.8306 13.84 18.1867 14.25 18.1867C14.66 18.1867 14.7 17.8917 14.7 17.4136V17.027H15.74V17.4441C15.74 18.502 15.29 19.1531 14.23 19.1531C13.27 19.1531 12.78 18.441 12.78 17.4441V14.9722C12.78 14.016 13.4 13.3446 14.31 13.3446C15.28 13.3446 15.74 13.9651 15.74 14.9722V16.376Z" fill="#141613"/>
<path d="M11.1999 8.45144C11.5199 8.45144 11.9599 8.2785 12.4199 7.72919V8.37006H13.4799V2.58195H12.4199V6.97643C12.2899 7.13919 11.9999 7.41385 11.7999 7.41385C11.5699 7.41385 11.5199 7.26126 11.5199 7.0273V2.57178H10.46V7.41385C10.46 7.9835 10.63 8.45144 11.1999 8.45144V8.45144Z" fill="#141613"/>
<path d="M6.48999 6.92573C6.48999 7.94297 7.02 8.48211 8.04002 8.48211C8.89004 8.48211 9.56006 7.90229 9.56006 6.92573V4.08763C9.56006 3.18228 8.90004 2.53125 8.04002 2.53125C7.11 2.53125 6.48999 3.16194 6.48999 4.08763V6.92573V6.92573ZM7.58001 4.17918C7.58001 3.86384 7.72002 3.62987 8.02002 3.62987C8.34003 3.62987 8.48003 3.85366 8.48003 4.17918V6.87487C8.48003 7.19022 8.32003 7.42418 8.04002 7.42418C7.76002 7.42418 7.58001 7.18004 7.58001 6.87487V4.17918V4.17918Z" fill="#141613"/>
<path d="M3.96004 8.3702H5.15004V5.18623L6.54004 0.51709H5.33004L4.57004 3.65019L3.74004 0.51709H2.54004L3.96004 5.18623V8.3702Z" fill="#141613"/>
<path d="M14.26 14.311C13.89 14.311 13.8101 14.5755 13.8101 14.9621V15.5216H14.7V14.9621C14.7 14.5857 14.62 14.311 14.26 14.311V14.311Z" fill="#141613"/>
<path d="M10.3399 14.3516C10.2699 14.3923 10.1999 14.4432 10.1299 14.5245V17.9628C10.2099 18.0544 10.2899 18.1154 10.3699 18.1561C10.5299 18.2375 10.7699 18.2476 10.8799 18.0951C10.9398 18.0137 10.9698 17.8916 10.9698 17.7187V14.8704C10.9698 14.6873 10.9298 14.5449 10.8599 14.4432C10.7399 14.2804 10.5099 14.2601 10.3299 14.3516H10.3399Z" fill="#141613"/>
</svg>
