<svg width="20" height="21" viewBox="0 0 20 21" fill="none" xmlns="http://www.w3.org/2000/svg">
<g clip-path="url(#clip0_302_1985)">
<path d="M4.5299 7.30225H0.399902V20.8722H4.5299V7.30225Z" fill="#141613"/>
<path d="M2.44 5.52192C3.79 5.52192 4.88 4.40295 4.88 3.0195C4.88 1.63606 3.79 0.51709 2.44 0.51709C1.09 0.51709 0 1.63606 0 3.0195C0 4.40295 1.09 5.52192 2.44 5.52192Z" fill="#141613"/>
<path d="M11.1299 13.7516C11.1299 11.8392 11.9899 10.7101 13.6499 10.7101C15.1699 10.7101 15.8999 11.7985 15.8999 13.7516V20.8723H20.0099V12.2766C20.0099 8.64508 17.9799 6.88525 15.1599 6.88525C12.3399 6.88525 11.1399 9.12318 11.1399 9.12318V7.29215H7.17993V20.8622H11.1399V13.7415L11.1299 13.7516Z" fill="#141613"/>
</g>
<defs>
<clipPath id="clip0_302_1985">
<rect width="20" height="20.355" fill="white" transform="translate(0 0.51709)"/>
</clipPath>
</defs>
</svg>
