<svg width="643" height="600" viewBox="0 0 643 600" fill="none" xmlns="http://www.w3.org/2000/svg">
<path d="M613.33 418.906L614.11 419.026C620.84 420.096 628.59 416.716 633.84 410.416C641.35 401.416 641.69 389.306 634.62 383.406C633.79 382.716 632.89 382.136 631.92 381.666C628.74 380.196 625.16 379.826 621.74 380.596C616.4 381.796 611.63 384.766 608.2 389.026C602.75 395.566 600.96 402.296 603.01 408.466L603.26 409.216L600.25 410.216L600 409.466C597.61 402.296 599.65 394.316 605.76 386.996C609.65 382.186 615.06 378.826 621.11 377.486C625.21 376.566 629.5 377.026 633.3 378.796C634.5 379.376 635.62 380.106 636.65 380.966C640.74 384.376 642.95 389.556 642.86 395.536C642.65 401.756 640.33 407.716 636.28 412.436C630.32 419.586 621.43 423.396 613.61 422.146L612.83 422.016L613.33 418.886V418.906Z" fill="#00A0EC"/>
<path d="M636.15 381.596C632.22 378.316 626.93 377.136 621.28 378.286C615.41 379.596 610.16 382.846 606.39 387.526C600.47 394.626 598.47 402.336 600.78 409.236L602.28 408.736C600.13 402.286 601.97 395.306 607.61 388.536C611.16 384.136 616.09 381.076 621.6 379.836C626.77 378.786 631.58 379.846 635.14 382.816C642.55 388.986 642.24 401.596 634.46 410.926C629.03 417.436 621 420.926 613.99 419.816L613.74 421.386C621.28 422.586 629.9 418.886 635.68 411.946C644.02 401.936 644.23 388.326 636.15 381.596Z" fill="white"/>
<path d="M610.7 415.436C609.97 415.086 609.29 414.636 608.67 414.126C606.97 412.696 605.78 410.766 605.25 408.606C603.85 403.306 605.77 396.676 610.24 391.306C616 384.396 624.47 381.466 630.39 384.346C631.11 384.696 631.79 385.136 632.4 385.646C635.23 388.006 636.58 391.746 636.21 396.166C635.7 400.716 633.83 405.006 630.83 408.466C626.27 413.936 620.01 416.996 614.49 416.466C613.18 416.346 611.89 415.996 610.7 415.426V415.436ZM628.98 387.176C624.45 384.966 617.44 387.606 612.68 393.326C608.91 397.856 607.2 403.526 608.32 407.786C608.68 409.306 609.52 410.666 610.7 411.676C611.13 412.026 611.59 412.336 612.09 412.576C612.94 412.976 613.85 413.226 614.79 413.306C619.22 413.726 624.56 411.026 628.4 406.426C630.98 403.456 632.6 399.786 633.05 395.886C633.34 392.526 632.39 389.756 630.37 388.076C629.94 387.726 629.48 387.416 628.98 387.176Z" fill="#00A0EC"/>
<path d="M609.18 413.516C609.75 413.996 610.38 414.396 611.05 414.726C612.15 415.256 613.34 415.576 614.56 415.686C619.83 416.186 625.83 413.226 630.22 407.966C633.11 404.626 634.92 400.496 635.41 396.106C635.77 391.956 634.52 388.456 631.89 386.266C626.55 381.796 617.11 384.306 610.85 391.816C606.53 396.996 604.68 403.346 606.02 408.406C606.51 410.396 607.61 412.186 609.18 413.516ZM612.07 392.836C617.19 386.696 624.51 384.136 629.33 386.486C629.89 386.756 630.41 387.096 630.88 387.486C633.1 389.336 634.15 392.346 633.84 395.976C633.37 400.036 631.69 403.866 629.01 406.956C625.01 411.756 619.4 414.566 614.72 414.116C613.06 413.986 611.49 413.356 610.2 412.306C608.89 411.186 607.96 409.686 607.55 408.016C606.37 403.516 608.14 397.556 612.07 392.836Z" fill="white"/>
<path d="M575.69 433.296C575.07 432.996 574.48 432.676 573.91 432.336C569.55 429.756 567.3 426.466 567.56 423.086L568.17 416.616H568.22C568.63 413.366 571.34 410.596 575.89 408.776C580.94 406.956 586.32 406.286 591.66 406.806C596.33 407.106 600.91 408.266 605.16 410.246C605.78 410.546 606.37 410.866 606.94 411.196C611.3 413.776 613.55 417.066 613.29 420.446C613.27 420.716 613.23 420.996 613.17 421.266L613.2 421.706L612.65 426.646C612.4 429.926 609.77 432.786 605.25 434.656C600.12 436.566 594.62 437.276 589.18 436.726C584.51 436.426 579.93 435.266 575.68 433.296H575.69ZM570.71 423.356C570.55 425.456 572.25 427.676 575.51 429.606C576.01 429.896 576.53 430.176 577.07 430.446C580.96 432.236 585.15 433.296 589.42 433.566C599.63 434.356 608.9 431.076 609.48 426.526C608.28 427.386 606.97 428.086 605.59 428.616C600.54 430.436 595.15 431.106 589.81 430.586C585.12 430.286 580.53 429.126 576.27 427.156C574.19 426.196 572.31 424.866 570.71 423.226V423.366V423.356ZM603.76 413.086C599.87 411.296 595.69 410.236 591.41 409.966C586.55 409.486 581.65 410.086 577.05 411.726C573.53 413.126 571.5 415.066 571.33 417.186C571.15 419.596 573.52 422.246 577.68 424.266C581.57 426.066 585.76 427.126 590.04 427.416C594.9 427.896 599.8 427.296 604.4 425.656C607.92 424.256 609.95 422.316 610.12 420.196C610.29 418.076 608.58 415.846 605.32 413.916C604.82 413.626 604.3 413.346 603.76 413.076" fill="#00A0EC"/>
<path d="M612.43 421.626L612.29 421.606C612.41 421.206 612.48 420.806 612.52 420.396C612.76 417.326 610.64 414.306 606.55 411.886C601.95 409.366 596.85 407.906 591.61 407.606C586.39 407.096 581.12 407.746 576.19 409.526C571.78 411.276 569.23 413.946 568.98 417.016C568.97 417.176 568.99 417.336 569 417.506H568.89L568.35 423.166C568.11 426.236 570.22 429.256 574.31 431.676C574.86 431.996 575.43 432.306 576.03 432.606C580.19 434.526 584.67 435.666 589.25 435.966C601.45 436.916 611.39 432.786 611.87 426.586L612.43 421.646V421.626ZM576.78 410.996C581.49 409.316 586.51 408.696 591.49 409.186C595.86 409.466 600.14 410.546 604.12 412.376C604.68 412.646 605.22 412.936 605.74 413.246C609.27 415.336 611.12 417.836 610.93 420.266C610.74 422.696 608.53 424.886 604.72 426.396C600.01 428.076 594.99 428.696 590.01 428.206C579.07 427.356 570.17 422.286 570.57 417.126C570.76 414.686 572.97 412.506 576.79 410.986L576.78 410.996ZM589.38 434.346C584.39 434.066 579.52 432.676 575.13 430.286C571.59 428.186 569.75 425.696 569.94 423.276L570.14 421.146C571.79 423.466 574.04 425.296 576.65 426.426C580.82 428.346 585.31 429.486 589.9 429.776C595.12 430.286 600.38 429.636 605.31 427.866C607.25 427.156 609.03 426.036 610.5 424.586L610.3 426.396C609.9 431.556 600.32 435.196 589.38 434.346Z" fill="white"/>
<path d="M565.15 355.496L567.41 356.116L569.08 349.956L570.51 350.346L572.57 342.786L580.76 340.146C581.49 339.906 582.28 339.966 582.96 340.296C583.23 340.426 583.48 340.596 583.7 340.806C584.49 341.546 584.81 342.656 584.53 343.696L582 353.476L583.46 353.876L581.78 360.036L584.04 360.656L573.13 400.706L554.24 395.566L565.15 355.496ZM558.14 393.326L570.91 396.806L580.15 362.876L567.37 359.396L558.14 393.326ZM570.46 356.946L578.72 359.196L579.55 356.156L571.29 353.906L570.46 356.946ZM573.58 351.186L578.94 352.646L581.36 343.276L575.18 345.276L573.57 351.186H573.58Z" fill="#00A0EC"/>
<path d="M580.81 360.586L582.49 354.426L581.04 354.036L583.77 343.496C583.97 342.736 583.74 341.916 583.16 341.386C582.59 340.846 581.77 340.656 581.01 340.896L573.23 343.406L571.08 351.326L569.64 350.936L567.96 357.096L565.7 356.476L555.21 394.996L572.57 399.726L583.06 361.206L580.8 360.596L580.81 360.586ZM574.53 344.646L581.49 342.396C581.79 342.296 582.12 342.466 582.22 342.766C582.25 342.866 582.26 342.986 582.23 343.086L579.51 353.616L572.61 351.736L574.54 344.646H574.53ZM570.73 352.936L580.52 355.606L579.28 360.176L569.49 357.506L570.73 352.936ZM557.15 393.886L566.81 358.416L581.11 362.306L571.46 397.766L557.15 393.866V393.886Z" fill="white"/>
<path d="M545.32 425.556L545.67 424.846C547.5 421.096 545.46 415.186 541.71 413.366L541 413.016L542.39 410.166L543.1 410.516C546.85 412.346 552.76 410.306 554.58 406.556L554.93 405.846L557.78 407.236L557.43 407.946C555.6 411.696 557.64 417.606 561.39 419.426L562.1 419.776L560.71 422.626L560 422.276C556.25 420.446 550.34 422.486 548.52 426.236L548.17 426.946L545.32 425.556ZM547.33 414.336C548.56 416.216 549.31 418.376 549.49 420.616C551.37 419.386 553.53 418.636 555.77 418.456C554.54 416.576 553.79 414.416 553.61 412.176C551.73 413.406 549.57 414.156 547.33 414.336Z" fill="#00A0EC"/>
<path d="M556.72 407.596L555.3 406.906C553.27 411.086 546.93 413.266 542.76 411.236L542.07 412.656C546.25 414.696 548.43 421.026 546.4 425.196L547.82 425.886C549.86 421.706 556.19 419.526 560.36 421.556L561.05 420.136C556.87 418.096 554.69 411.766 556.72 407.596ZM548.73 422.186C548.86 419.046 547.8 415.966 545.76 413.566C548.91 413.696 551.98 412.636 554.38 410.596C554.25 413.746 555.31 416.816 557.35 419.216C554.21 419.086 551.13 420.146 548.73 422.186Z" fill="white"/>
<path d="M601.08 372.196L601.43 371.486C602.66 368.956 601.24 364.826 598.71 363.596L597.99 363.246L599.38 360.396L600.09 360.746C602.62 361.976 606.75 360.556 607.98 358.026L608.33 357.306L611.18 358.696L610.83 359.406C609.6 361.936 611.02 366.066 613.55 367.296L614.26 367.646L612.87 370.496L612.16 370.156C609.63 368.926 605.5 370.346 604.27 372.876L603.92 373.586L601.07 372.206L601.08 372.196ZM603.72 364.266C604.35 365.376 604.77 366.596 604.96 367.856C606.07 367.226 607.29 366.806 608.55 366.616C607.92 365.506 607.5 364.286 607.3 363.026C606.19 363.656 604.97 364.076 603.71 364.256" fill="#00A0EC"/>
<path d="M602.14 371.836L603.56 372.526C604.98 369.606 609.59 368.006 612.52 369.436L613.21 368.016C610.28 366.586 608.69 361.986 610.12 359.056L608.7 358.366C607.27 361.296 602.67 362.876 599.74 361.456L599.05 362.876C601.98 364.306 603.57 368.906 602.14 371.836ZM607.99 361.626C608.01 363.686 608.7 365.676 609.95 367.306C607.89 367.326 605.9 368.016 604.27 369.266C604.25 367.206 603.56 365.216 602.31 363.586C604.37 363.566 606.36 362.876 607.99 361.626Z" fill="white"/>
<path d="M516.23 74.606C512.939 73.234 511.381 69.4487 512.743 66.1476L512.834 65.9215C510.613 64.3583 509.609 61.5794 510.31 58.9587L510.963 56.496C509.906 55.9671 509.066 55.0778 508.585 53.9946C508 52.5663 507.872 50.9888 508.222 49.4733L515.067 14.7501C515.758 11.2481 519.156 8.97113 522.659 9.6521L582.205 21.3688C583.892 21.6963 585.368 22.6849 586.324 24.1101C587.28 25.5354 587.64 27.2837 587.303 28.96L585.957 35.8356L585.997 35.8375C586.283 35.9207 586.559 36.0134 586.835 36.1261C589.81 37.3836 591.403 40.6398 590.569 43.755L588.455 52.3272L590.832 53.317C594.122 54.699 595.681 58.4743 594.319 61.7754L580.7 94.4465C579.328 97.7372 575.543 99.2956 572.241 97.9331L516.23 74.606ZM533.291 33.6637C532.024 33.1352 530.565 33.7391 530.026 35.0057L516.417 67.6773C515.889 68.9444 516.493 70.4036 517.76 70.9321L573.78 94.2797C575.048 94.7982 576.506 94.2044 577.035 92.9372L590.654 60.2661C591.183 58.999 590.579 57.5398 589.312 57.0113L533.291 33.6637ZM585.295 39.7995C585.187 39.7545 585.078 39.7195 584.969 39.6945L526.345 24.0258C525.02 23.6748 523.652 24.4631 523.291 25.7879L514.157 59.9858C513.987 60.6287 514.076 61.3035 514.41 61.8794C514.429 61.9203 514.457 61.9516 514.485 61.993L526.373 33.467C527.755 30.1768 531.53 28.6179 534.831 29.9803L584.762 50.7866L586.741 42.7688C587.087 41.5533 586.464 40.2735 585.305 39.79L585.295 39.7995ZM581.93 25.4105C581.773 25.3432 581.615 25.2959 581.446 25.2682L521.899 13.5514C520.55 13.2894 519.239 14.1604 518.976 15.5198L512.13 50.2429C511.992 50.8672 511.992 51.5079 512.134 52.1251L519.454 24.7613C520.383 21.3102 523.92 19.2599 527.372 20.1788L582.1 34.7981L583.404 28.1908C583.637 27.0303 583.02 25.8708 581.92 25.41" fill="#5329CA"/>
<path d="M590.325 54.5551L534.304 31.2175C531.681 30.1264 528.671 31.3699 527.581 33.9828L515.029 64.11C513.301 63.3602 512.388 61.4564 512.881 59.6371L522.005 25.4487C522.549 23.4115 524.636 22.2057 526.674 22.7395L585.299 38.3982C587.336 38.942 588.552 41.0398 588.008 43.0771L585.696 52.4511L586.983 52.7703L589.294 43.4162C590.03 40.6771 588.407 37.8599 585.668 37.1238L585.648 37.1228L584.412 36.7859L586.004 28.6903C586.552 25.9025 584.744 23.1969 581.956 22.6488L522.409 10.952C519.621 10.4039 516.915 12.222 516.367 14.9999L509.531 49.7334C509.234 50.9711 509.335 52.2671 509.801 53.4597C510.19 54.3584 510.908 55.072 511.822 55.4442C512.058 55.5351 512.315 55.617 512.563 55.6684L511.585 59.3074C510.922 61.7697 512.166 64.3393 514.502 65.3472L513.951 66.6534C512.86 69.2762 514.104 72.2863 516.727 73.3774L572.747 96.725C575.37 97.8162 578.38 96.5726 579.471 93.9597L593.09 61.2887C594.181 58.6658 592.937 55.6558 590.325 54.5651L590.325 54.5551ZM511.017 52.9148C510.66 51.9774 510.596 50.9634 510.831 49.9832L517.667 15.2596C518.072 13.1959 520.076 11.8462 522.149 12.2515L581.695 23.9682C583.759 24.3731 585.109 26.3769 584.703 28.4506L583.126 36.4567L527.023 21.4641C524.283 20.738 521.466 22.3608 520.73 25.1L512.912 54.373C512.078 54.2347 511.362 53.6814 511.017 52.9048L511.017 52.9148ZM578.254 93.4335C577.444 95.3785 575.209 96.2972 573.264 95.4874L517.243 72.1598C515.298 71.3499 514.379 69.1156 515.189 67.1706L528.809 34.4895C529.618 32.5445 531.853 31.6258 533.798 32.4356L589.818 55.7832C591.763 56.593 592.682 58.8274 591.872 60.7724L578.253 93.4435L578.254 93.4335Z" fill="white"/>
<path d="M524.482 60.4348L522.955 64.0994L547.989 74.5312L549.516 70.8667L524.482 60.4348Z" fill="#5329CA"/>
<path d="M525.202 62.1649L524.691 63.3925L547.278 72.8051L547.79 71.5774L525.202 62.1649Z" fill="white"/>
<path d="M522.474 65.2598L520.947 68.9244L536.335 75.3366L537.862 71.672L522.474 65.2598Z" fill="#5329CA"/>
<path d="M523.189 66.9768L522.677 68.2044L535.619 73.5973L536.13 72.3697L523.189 66.9768Z" fill="white"/>
<path d="M529.896 45.711L544.955 51.9866L539.928 64.0392L524.87 57.7636L529.896 45.711ZM539.761 54.1312L532.041 50.9146L530.083 55.6199L537.804 58.8366L539.761 54.1312Z" fill="#5329CA"/>
<path d="M543.231 52.6984L530.618 47.4358L526.615 57.0327L539.227 62.2953L543.231 52.6984ZM538.516 60.5709L528.349 56.3313L531.33 49.1702L541.496 53.4098L538.516 60.5709Z" fill="white"/>
<path d="M565.406 88.941C560.818 87.0291 558.647 81.7642 560.559 77.1669C562.472 72.5696 567.736 70.4082 572.333 72.3205C576.931 74.2329 579.092 79.4973 577.18 84.0946C575.268 88.6819 570.003 90.8433 565.406 88.941ZM570.804 75.9944C568.24 74.926 565.301 76.1428 564.233 78.6966C563.165 81.2504 564.382 84.1991 566.935 85.2671C569.489 86.3351 572.438 85.1187 573.506 82.5649C574.574 80.0011 573.358 77.0623 570.804 75.9944Z" fill="#5329CA"/>
<path d="M571.826 73.5586C567.917 71.928 563.417 73.7741 561.796 77.694C560.175 81.614 562.012 86.1027 565.932 87.7238C569.852 89.3448 574.341 87.5083 575.962 83.5883C577.582 79.6784 575.736 75.1892 571.826 73.5586ZM566.428 86.5052C563.197 85.1559 561.665 81.4419 563.015 78.2003C564.364 74.9687 568.078 73.437 571.319 74.7867C574.551 76.136 576.083 79.85 574.733 83.0916C573.384 86.3232 569.67 87.8549 566.428 86.5052Z" fill="white"/>
<path d="M48.28 431.89C47.21 431.89 46.15 431.66 45.18 431.21L40.28 428.96L40.33 428.85C39.85 428.72 39.38 428.55 38.92 428.34L7.74 414.01C3.26 411.94 1.3 406.64 3.35 402.16L12.91 381.36L0 353.19L6.16 350.36L16.65 373.22L28.61 347.2C30.08 344.03 33.25 342 36.74 342C38.03 342 39.29 342.28 40.46 342.82L71.64 357.15C71.8 357.22 71.96 357.3 72.12 357.39V357.37L77.9 360.02C79.83 360.91 81.29 362.58 81.92 364.61C82.59 366.69 82.45 368.95 81.52 370.93L55.8 426.86C54.91 428.84 53.3 430.41 51.3 431.27C50.34 431.68 49.31 431.89 48.27 431.89H48.28ZM46.56 428.26C47.1 428.5 47.68 428.63 48.27 428.63C48.88 428.63 49.48 428.5 50.04 428.26C51.29 427.73 52.29 426.74 52.84 425.5L78.55 369.57C79.78 367.2 78.89 364.28 76.55 363.01C77.08 365.01 76.89 367.13 76.02 369.01L74.31 372.73C74.25 373.13 74.14 373.52 73.97 373.88L55.92 413.15C55.75 413.52 55.53 413.85 55.26 414.16L50.76 423.95C49.9 425.83 48.41 427.36 46.54 428.26H46.56ZM6.32 403.51C5.02 406.36 6.26 409.72 9.11 411.04L40.29 425.38C43.14 426.69 46.51 425.44 47.81 422.6L50.99 415.69C50.65 415.62 50.31 415.51 49.99 415.36L10.67 397.27C10.26 397.08 9.87 396.83 9.54 396.52L6.33 403.51H6.32ZM11.43 392.69C11.15 393.3 11.42 394.03 12.03 394.31L51.36 412.39C51.52 412.46 51.69 412.5 51.87 412.5C52.02 412.5 52.16 412.47 52.3 412.42C52.39 412.39 52.48 412.34 52.56 412.28L71.14 371.87C71.13 371.77 71.11 371.68 71.07 371.58C70.96 371.28 70.73 371.03 70.43 370.9L31.1 352.82C30.94 352.75 30.77 352.71 30.59 352.71C30.11 352.71 29.68 352.99 29.48 353.42L18.51 377.28L22.78 386.59L22.52 394.48L16.55 389.25L14.78 385.4L11.43 392.68V392.69ZM19.49 387.56V387.25L16.72 381.19L16.58 381.49L19.29 387.38L19.5 387.56H19.49ZM14.72 377.44L14.86 377.14L4.56 354.69L4.33 354.79L14.72 377.43V377.44ZM31.16 349.48C31.61 349.53 32.05 349.66 32.47 349.85L71.8 367.93C72.12 368.08 72.42 368.26 72.7 368.48L73.09 367.64C74.4 364.79 73.15 361.42 70.3 360.11L39.1 345.78C36.25 344.47 32.89 345.72 31.58 348.56L31.16 349.48Z" fill="#FF74EC"/>
<path d="M77.5 360.89L72.6 358.64L72.54 358.77C72.14 358.48 71.7 358.23 71.25 358.02L40.07 343.68C36.06 341.85 31.33 343.6 29.48 347.6L16.66 375.5L5.7 351.63L1.26 353.66L13.96 381.34L4.22 402.54C2.39 406.55 4.14 411.28 8.15 413.13L39.33 427.46C40.08 427.81 40.89 428.03 41.71 428.13L41.55 428.48L45.58 430.33C46.43 430.72 47.35 430.92 48.29 430.92C49.2 430.92 50.11 430.73 50.95 430.38C52.73 429.62 54.16 428.22 54.96 426.45L80.67 370.52C82.45 366.98 81.04 362.68 77.51 360.88L77.5 360.89ZM34.43 344.72C36.08 344.11 37.9 344.18 39.5 344.91L70.68 359.25C74 360.78 75.46 364.71 73.93 368.04L72.94 370.2C72.58 369.59 72.04 369.1 71.39 368.8L32.07 350.72C31.3 350.37 30.43 350.31 29.62 350.55L30.71 348.17C31.44 346.57 32.78 345.33 34.43 344.72ZM52.61 413.31C52.07 413.51 51.47 413.49 50.95 413.25L11.63 395.17C10.54 394.67 10.06 393.38 10.56 392.29L14.78 383.12L17.33 388.67L21.64 392.44L21.83 386.78L17.46 377.27L28.62 353.02C29.12 351.93 30.41 351.45 31.5 351.95L70.82 370.03C71.61 370.39 72.11 371.19 72.08 372.06L53.32 412.88C53.12 413.07 52.88 413.21 52.62 413.31H52.61ZM16.72 378.91L20.46 387.06L20.38 389.57L18.51 387.97L15.54 381.49L16.73 378.9L16.72 378.91ZM3.06 354.33L5.02 353.43L15.9 377.13L14.71 379.71L3.06 354.33ZM8.71 411.9C5.39 410.37 3.93 406.44 5.45 403.11L9.34 394.66C9.68 395.43 10.3 396.05 11.06 396.4L50.39 414.48C50.85 414.69 51.35 414.81 51.86 414.81C52.06 414.81 52.26 414.79 52.46 414.76L48.68 422.99C47.15 426.32 43.22 427.77 39.89 426.25L8.71 411.91V411.9ZM79.42 369.96L53.71 425.89C53.06 427.35 51.88 428.5 50.41 429.13C49.04 429.72 47.49 429.71 46.13 429.1L43.93 428.09C44.44 428.01 44.94 427.88 45.43 427.7C47.42 426.97 49.03 425.47 49.91 423.55L54.47 413.63C54.71 413.37 54.92 413.07 55.07 412.75L73.12 373.48C73.27 373.15 73.36 372.81 73.4 372.45L75.17 368.61C76.06 366.69 76.15 364.49 75.4 362.5C75.22 362.02 75 361.55 74.73 361.11L76.93 362.12C79.77 363.6 80.89 367.1 79.42 369.96Z" fill="white"/>
<path d="M26.14 417.25C23.01 417.25 20.48 414.7 20.48 411.57C20.48 410.76 20.66 409.95 21 409.21C21.93 407.2 23.94 405.91 26.16 405.91C29.29 405.91 31.82 408.46 31.82 411.59C31.82 412.4 31.64 413.21 31.3 413.95C30.37 415.96 28.36 417.25 26.14 417.25ZM26.15 409.18C25.86 409.18 25.58 409.23 25.31 409.33C24.06 409.78 23.41 411.15 23.86 412.4C24.21 413.36 25.12 414 26.14 413.99C26.43 413.99 26.71 413.94 26.98 413.84C28.23 413.38 28.86 411.99 28.4 410.75C28.05 409.81 27.15 409.18 26.15 409.18Z" fill="#FF74EC"/>
<path d="M28.12 407.29C25.75 406.2 22.95 407.24 21.86 409.6C20.77 411.97 21.81 414.77 24.17 415.86C26.54 416.95 29.34 415.91 30.43 413.55C31.51 411.18 30.48 408.38 28.11 407.29H28.12ZM29.19 412.98C28.42 414.66 26.42 415.4 24.74 414.63C23.06 413.86 22.32 411.86 23.09 410.18C23.46 409.37 24.14 408.74 24.97 408.44C25.34 408.3 25.74 408.23 26.14 408.23C28 408.23 29.5 409.74 29.49 411.6C29.49 412.08 29.38 412.55 29.19 412.99" fill="white"/>
<path d="M40.99 400.56C40.5 400.56 40.01 400.45 39.57 400.23C38.31 399.53 37.43 398.31 37.16 396.9C37.1 396.67 37.04 396.45 36.98 396.22C36.89 395.81 36.77 395.41 36.63 395.02C36 395.25 35.38 395.51 34.78 395.8C33.36 396.59 31.78 397.06 30.16 397.15H29.87C28.27 397.06 26.77 396.37 25.66 395.22C24.39 395.76 23.02 396.03 21.64 396.01C20.48 396.01 19.33 395.85 18.21 395.57L17.28 395.34L18.08 392.17L19 392.4C19.87 392.62 20.76 392.74 21.65 392.75C22.46 392.76 23.27 392.63 24.04 392.36C23.42 389.73 24.67 387.03 27.07 385.8L28.49 385.02L29.28 386.43C30.46 388.68 30.09 391.43 28.34 393.28C28.81 393.65 29.39 393.86 29.99 393.89H30C31.16 393.81 32.28 393.47 33.29 392.9C34.21 392.44 35.16 392.06 36.14 391.77C36.43 391.69 36.73 391.64 37.03 391.64C37.32 391.64 37.61 391.69 37.88 391.79C38.41 392.01 38.86 392.38 39.15 392.87C39.63 393.66 39.96 394.53 40.14 395.43C40.19 395.64 40.24 395.84 40.29 396.03C40.38 396.46 40.58 396.87 40.86 397.2L40.88 396.74L44.14 396.87L44.1 397.82C44.06 398.77 43.53 399.63 42.7 400.09C42.18 400.4 41.58 400.57 40.97 400.56" fill="#FF74EC"/>
<path d="M41.54 398.1C41.25 398.27 40.9 398.29 40.59 398.16C39.94 397.73 39.5 397.05 39.38 396.28C39.32 396.08 39.27 395.87 39.22 395.67C39.07 394.87 38.78 394.09 38.36 393.39C38.17 393.07 37.89 392.82 37.55 392.68C37.17 392.56 36.77 392.56 36.39 392.68C35.49 392.95 34.62 393.3 33.78 393.71C32.61 394.39 31.3 394.77 29.95 394.83C28.78 394.76 27.7 394.19 26.99 393.26C28.95 391.77 29.57 389.08 28.45 386.88L28.12 386.29L27.53 386.61C25.51 387.63 24.45 389.9 24.97 392.11C25.03 392.36 25.11 392.61 25.21 392.85C22.98 394.09 20.24 393.67 18.77 393.31L18.44 394.63C20.91 395.38 23.57 395.16 25.89 394.03C26.85 395.3 28.31 396.09 29.9 396.18C31.47 396.14 33 395.71 34.36 394.93C35.13 394.55 35.93 394.23 36.75 393.97C36.98 393.91 37.05 393.91 37.07 393.92C37.07 393.92 37.12 393.95 37.23 394.11C37.56 394.69 37.79 395.31 37.91 395.97C37.96 396.19 38.02 396.41 38.08 396.62C38.29 397.77 38.99 398.77 40 399.36C40.31 399.51 40.65 399.59 41 399.59C41.44 399.59 41.87 399.47 42.25 399.25C42.8 398.95 43.15 398.39 43.18 397.76L41.82 397.71C41.8 397.87 41.7 398.01 41.55 398.08L41.54 398.1ZM26.36 391.99C26.34 391.92 26.32 391.86 26.31 391.79C26 390.45 26.49 389.06 27.58 388.22C27.9 389.6 27.43 391.05 26.37 391.99" fill="white"/>
<path d="M164.06 72.18C154.03 75.63 144.22 74.5 137.16 69.07C130.59 64.02 127.02 55.93 127.1 46.27C127.18 36.76 130.82 26.85 137.34 18.36C142.95 10.88 150.61 5.18997 159.38 1.97997C160.14 1.71997 160.9 1.47997 161.66 1.26997C170.97 -1.30003 179.71 0.0599713 186.28 5.10997C192.85 10.16 196.42 18.25 196.34 27.91C196.26 37.42 192.62 47.34 186.1 55.82C180.49 63.29 172.83 68.97 164.06 72.18ZM160.22 4.51997C151.95 7.55997 144.74 12.94 139.46 19.99C133.3 28.02 129.86 37.36 129.78 46.29C129.71 55.08 132.91 62.41 138.79 66.93C145.14 71.81 154.03 72.79 163.18 69.64C171.46 66.6 178.69 61.23 183.98 54.17C190.15 46.14 193.58 36.8 193.66 27.87C193.74 19.08 190.54 11.75 184.65 7.22997C178.76 2.70997 170.86 1.50997 162.38 3.84997C161.68 4.03997 160.95 4.26997 160.23 4.51997" fill="#00DCEB"/>
<path d="M185.88 5.62997C179.48 0.719972 170.94 -0.600028 161.84 1.90997C152.82 4.40997 144.29 10.39 137.86 18.77C131.43 27.14 127.84 36.92 127.76 46.29C127.68 55.73 131.16 63.64 137.56 68.55C144.73 74.06 154.39 74.81 163.85 71.56C172.51 68.41 180.06 62.8 185.58 55.42C192.01 47.04 195.6 37.27 195.68 27.9C195.76 18.46 192.28 10.55 185.88 5.63997V5.62997ZM184.5 54.59C171.63 71.34 150.94 77.12 138.38 67.47C132.33 62.82 129.03 55.3 129.11 46.29C129.19 37.21 132.68 27.73 138.93 19.59C144.28 12.42 151.6 6.96997 160.01 3.89997C160.74 3.64997 161.47 3.41997 162.2 3.21997C170.88 0.819972 179 2.05997 185.05 6.70997C191.11 11.36 194.4 18.88 194.32 27.89C194.24 36.97 190.75 46.45 184.5 54.59Z" fill="white"/>
<path d="M162.91 65.72C156.56 67.91 150.45 67.92 145.26 65.74C143.82 65.14 142.46 64.36 141.21 63.41C136.82 59.97 134.02 54.88 133.47 49.33C132.32 40.59 135.5 30.42 141.98 22.12C146.73 15.89 153.17 11.14 160.54 8.44997C166.89 6.25997 173 6.24997 178.19 8.42997C179.63 9.02997 180.99 9.80997 182.24 10.75C186.63 14.19 189.43 19.28 189.98 24.83C191.12 33.57 187.94 43.74 181.47 52.04C176.72 58.27 170.28 63.02 162.91 65.71V65.72ZM161.4 10.97C154.53 13.5 148.52 17.94 144.08 23.77C138.04 31.51 135.07 40.94 136.12 48.98C136.58 53.82 139 58.26 142.82 61.27C143.89 62.08 145.05 62.74 146.29 63.26C150.88 65.18 156.33 65.15 162.04 63.19C168.91 60.66 174.92 56.22 179.36 50.39C185.4 42.65 188.38 33.22 187.32 25.18C186.86 20.34 184.44 15.9 180.62 12.89C179.55 12.08 178.39 11.42 177.16 10.9C172.57 8.97997 167.12 8.99997 161.41 10.97" fill="#00DCEB"/>
<path d="M177.93 9.04997C167.05 4.49997 152.14 10.17 142.5 22.54C136.13 30.7 133 40.69 134.13 49.25C134.66 54.63 137.36 59.56 141.61 62.89C142.81 63.8 144.13 64.55 145.52 65.13C150.67 67.29 156.73 67.15 162.7 65.09C169.94 62.44 176.28 57.78 180.95 51.64C187.32 43.48 190.45 33.5 189.32 24.93C188.79 19.55 186.09 14.63 181.84 11.29C180.64 10.38 179.33 9.62997 177.93 9.04997ZM187.97 25.11C189.04 33.32 186.02 42.93 179.87 50.81C170.59 62.7 156.36 68.2 146.03 63.88C144.74 63.34 143.53 62.65 142.42 61.81C138.46 58.69 135.95 54.09 135.47 49.08C134.39 40.87 137.42 31.26 143.57 23.38C148.08 17.45 154.2 12.93 161.19 10.36C166.85 8.40997 172.56 8.27997 177.41 10.3C178.7 10.84 179.91 11.53 181.02 12.37C184.98 15.49 187.49 20.08 187.97 25.1" fill="white"/>
<path d="M161.81 59.86C157.12 61.48 152.63 61.49 148.84 59.9C147.73 59.44 146.69 58.83 145.73 58.09C137.5 51.7 137.97 37.09 146.78 25.51C150.54 20.41 155.7 16.52 161.64 14.31C166.33 12.69 170.82 12.68 174.62 14.27C175.73 14.73 176.77 15.34 177.72 16.08C185.95 22.46 185.48 37.08 176.67 48.66C172.91 53.76 167.75 57.65 161.81 59.85V59.86ZM162.51 16.83C157.07 18.87 152.35 22.45 148.92 27.13C141 37.54 140.31 50.48 147.38 55.97C148.15 56.56 148.99 57.05 149.88 57.42C153.45 58.76 157.39 58.73 160.94 57.34C166.38 55.3 171.11 51.72 174.54 47.04C182.46 36.62 183.15 23.69 176.08 18.2C175.32 17.61 174.48 17.12 173.59 16.75C170.01 15.41 166.07 15.44 162.52 16.84" fill="#00DCEB"/>
<path d="M174.35 14.89C166.14 11.46 154.76 16.1 147.3 25.92C138.71 37.21 138.19 51.41 146.13 57.58C147.03 58.28 148.03 58.86 149.08 59.3C153.11 60.82 157.56 60.8 161.58 59.24C167.39 57.08 172.45 53.26 176.13 48.27C184.72 36.98 185.25 22.78 177.3 16.61C176.4 15.91 175.4 15.33 174.35 14.89ZM175.06 47.45C167.96 56.78 157.26 61.24 149.61 58.05C148.66 57.65 147.77 57.14 146.96 56.51C139.6 50.8 140.24 37.45 148.38 26.75C155.48 17.42 166.18 12.96 173.83 16.15C174.78 16.55 175.67 17.06 176.48 17.69C183.84 23.4 183.2 36.75 175.06 47.45Z" fill="white"/>
<path d="M162.79 49.46C159.2 50.7 155.67 50.28 153.11 48.31C148.3 44.61 148.25 36.58 153 30.39C154.95 27.8 157.61 25.83 160.66 24.72C164.25 23.48 167.78 23.9 170.34 25.87C172.77 27.84 174.12 30.85 173.99 33.98C173.91 37.55 172.67 40.99 170.45 43.79C168.5 46.38 165.84 48.35 162.79 49.46ZM161.54 27.24C158.98 28.18 156.76 29.84 155.13 32.02C151.28 37.03 151.11 43.38 154.74 46.18C156.85 47.63 159.54 47.91 161.9 46.94C164.46 46 166.68 44.34 168.32 42.16C172.17 37.15 172.34 30.79 168.71 28C166.6 26.55 163.91 26.27 161.54 27.24Z" fill="#00DCEB"/>
<path d="M153.52 30.79C148.99 36.69 148.98 44.3 153.5 47.78C156.15 49.65 159.56 50.04 162.57 48.83C165.5 47.77 168.05 45.87 169.92 43.38C174.45 37.48 174.46 29.86 169.94 26.39C165.42 22.92 158.06 24.89 153.53 30.79H153.52ZM168.85 42.56C164.77 47.86 158.27 49.72 154.34 46.71C150.41 43.7 150.53 36.92 154.6 31.62C158.67 26.32 165.18 24.46 169.11 27.47C173.04 30.48 172.92 37.25 168.85 42.56Z" fill="white"/>
<path d="M162.84 40.36C161.05 40.97 159.11 40 158.5 38.21C157.89 36.42 158.86 34.48 160.65 33.87C162.44 33.26 164.38 34.23 164.99 36.02C165.57 37.74 164.71 39.61 163.04 40.29C162.97 40.31 162.91 40.34 162.85 40.36H162.84ZM161.48 36.37C161.27 36.44 161.1 36.6 161.02 36.8C160.94 36.99 160.94 37.2 161.02 37.39C161.1 37.58 161.25 37.73 161.43 37.81C161.62 37.88 161.83 37.88 162.03 37.81C162.22 37.73 162.36 37.59 162.44 37.4C162.61 37.01 162.43 36.56 162.04 36.39C161.86 36.31 161.67 36.31 161.49 36.37" fill="#00DCEB"/>
<path d="M159.15 36.02C158.56 37.44 159.23 39.07 160.65 39.67C161.28 39.93 161.99 39.96 162.63 39.73L162.79 39.68C164.22 39.1 164.9 37.47 164.31 36.04C164.03 35.35 163.49 34.81 162.8 34.52C161.38 33.93 159.75 34.6 159.15 36.02ZM163.04 37.65C162.89 38 162.62 38.28 162.26 38.42C161.91 38.56 161.52 38.55 161.16 38.42C160.43 38.12 160.09 37.28 160.39 36.55C160.67 35.81 161.49 35.44 162.23 35.71C162.97 35.99 163.34 36.81 163.07 37.55C163.06 37.58 163.05 37.61 163.03 37.64" fill="white"/>
<path d="M205.22 67.45C202.99 68.22 200.56 67.03 199.8 64.8C199.12 62.83 199.97 60.65 201.8 59.66C202.28 59.4 202.8 59.24 203.34 59.17L197.24 47.9L210 34.39L219.27 51.49L219.22 51.52C219.92 53.5 219.08 55.69 217.23 56.69C217.02 56.8 216.8 56.9 216.58 56.98C214.35 57.74 211.92 56.55 211.16 54.31C210.49 52.34 211.34 50.18 213.16 49.19C213.36 49.08 213.57 48.99 213.78 48.92C214.08 48.82 214.39 48.75 214.7 48.72L211.91 43.58L203.03 52.99L207.57 61.37L207.6 61.42V61.45C208.71 63.53 207.91 66.11 205.82 67.21C205.63 67.31 205.43 67.4 205.22 67.47V67.45ZM203.32 61.94C203.24 61.97 203.16 62 203.08 62.05C202.31 62.47 202.02 63.43 202.44 64.2C202.81 64.88 203.61 65.2 204.34 64.95C204.43 64.92 204.51 64.88 204.59 64.84C205.36 64.42 205.65 63.46 205.23 62.69C204.86 62.01 204.06 61.69 203.32 61.94ZM214.68 51.47C214.6 51.5 214.52 51.53 214.44 51.58C213.67 52 213.39 52.96 213.81 53.73C214.18 54.41 214.98 54.72 215.71 54.48C215.79 54.45 215.88 54.41 215.95 54.37C216.72 53.95 217 52.99 216.58 52.22C216.21 51.54 215.41 51.23 214.68 51.48V51.47ZM201.68 50.53L210.56 41.13L209.4 38.98L200.52 48.38L201.68 50.53Z" fill="#00DCEB"/>
<path d="M218.37 51.25L209.84 35.52L198.04 48.02L204.46 59.87C202.5 59.52 200.63 60.82 200.28 62.77C200.13 63.58 200.27 64.41 200.66 65.13C201.6 66.88 203.79 67.54 205.54 66.6C207.29 65.66 207.95 63.47 207.01 61.72V61.68L202.23 52.86L212.07 42.43L215.84 49.4C213.89 49.04 212.01 50.33 211.64 52.28C211.28 54.23 212.57 56.11 214.52 56.48C215.13 56.59 215.77 56.55 216.36 56.34C216.55 56.27 216.73 56.19 216.91 56.1C218.65 55.16 219.3 52.99 218.37 51.24V51.25ZM204.9 65.38C203.81 65.97 202.45 65.57 201.85 64.48C201.26 63.39 201.66 62.03 202.75 61.43C203.84 60.84 205.2 61.24 205.79 62.33C206.38 63.43 205.97 64.79 204.88 65.38H204.9ZM201.52 51.6L199.69 48.22L209.54 37.8L211.37 41.18L201.52 51.6ZM217.32 53.57C216.97 54.76 215.72 55.44 214.53 55.09C213.96 54.92 213.48 54.53 213.19 54C212.6 52.91 213 51.55 214.09 50.95C214.2 50.89 214.31 50.84 214.43 50.8C215.6 50.4 216.88 51.03 217.28 52.2C217.43 52.64 217.44 53.12 217.31 53.56" fill="white"/>
<path d="M121.68 24.29C121.33 24.41 120.96 24.48 120.59 24.48C118.65 24.52 117.04 22.97 117 21.02C116.96 19.07 118.52 17.46 120.47 17.42C120.76 17.42 121.04 17.44 121.32 17.51L121.14 7.82997L132.04 7.15997L131.12 13.97L123.94 14.31L124.08 21.62H124C123.87 22.29 123.55 22.91 123.07 23.4C122.68 23.8 122.21 24.1 121.68 24.29ZM120.25 20.15C119.81 20.3 119.57 20.79 119.72 21.23C119.87 21.67 120.36 21.91 120.8 21.76C121.24 21.61 121.48 21.12 121.32 20.68C121.2 20.33 120.87 20.1 120.5 20.11C120.41 20.11 120.32 20.13 120.24 20.16L120.25 20.15ZM128.76 11.39L128.94 10.03L123.87 10.34L123.89 11.62L128.76 11.39Z" fill="#00DCEB"/>
<path d="M120.58 23.82C120.88 23.82 121.18 23.76 121.47 23.66C122.64 23.25 123.41 22.15 123.4 20.91L123.26 13.67L130.53 13.32L131.27 7.85997L121.81 8.43997L122 18.49C121.54 18.21 121.02 18.07 120.48 18.08C118.9 18.11 117.64 19.42 117.66 21C117.69 22.58 119 23.84 120.58 23.82ZM129.71 9.31997L129.34 12.02L123.24 12.31L123.19 9.70997L129.7 9.30997L129.71 9.31997ZM119.02 20.98C119.01 20.32 119.42 19.74 120.04 19.52C120.19 19.47 120.35 19.44 120.5 19.44C121.33 19.43 122.02 20.09 122.04 20.92C122.05 21.75 121.39 22.44 120.56 22.46C119.73 22.47 119.04 21.81 119.02 20.98Z" fill="white"/>
<path d="M128.351 243.703C129.768 241.972 128.932 238.944 126.484 236.94C124.035 234.936 120.902 234.714 119.485 236.444C118.067 238.175 118.903 241.202 121.352 243.207C123.8 245.211 126.934 245.433 128.351 243.703Z" fill="#AADBEC"/>
<path d="M115.041 260.889C116.458 259.158 115.622 256.131 113.173 254.126C110.725 252.122 107.591 251.9 106.174 253.63C104.757 255.361 105.593 258.389 108.041 260.393C110.49 262.397 113.623 262.619 115.041 260.889Z" fill="#AADBEC"/>
<path d="M110.915 284.208C114.162 284.177 116.778 282.385 116.758 280.204C116.737 278.023 114.088 276.279 110.84 276.31C107.593 276.34 104.977 278.133 104.997 280.314C105.018 282.495 107.667 284.239 110.915 284.208Z" fill="#AADBEC"/>
<path d="M164.932 287.954C164.932 287.954 179.231 330.242 223.954 342.369C223.954 342.369 221.717 347.071 222.615 356.063C222.615 356.063 178.986 350.267 149.338 295.512L164.932 287.954Z" fill="#253273"/>
<path d="M146.372 236.271C148.682 236.239 150.522 233.731 150.48 230.669C150.438 227.608 148.531 225.151 146.221 225.182C143.91 225.214 142.07 227.721 142.112 230.783C142.154 233.845 144.061 236.302 146.372 236.271Z" fill="#AADBEC"/>
<path d="M164.932 287.954L164.714 269.569L152.451 255.462L124.349 276.413L134.536 291.798L149.338 295.513L164.932 287.954Z" fill="#D3002A"/>
<path d="M228.195 359.182H228.29C231.632 359.148 234.332 356.537 234.299 353.391L234.215 346.335C234.176 343.183 231.414 340.634 228.072 340.673H227.977C224.635 340.707 221.935 343.317 221.969 346.463L222.052 353.52C222.091 356.671 224.853 359.221 228.195 359.182Z" fill="#AADBEC"/>
<path d="M215.402 135.689L252.024 118.848C262.546 113.633 267.099 111.491 274.887 112.16L472.152 122.329C487.723 123.668 499.3 136.771 497.883 151.452L492.27 286.85C492.27 286.85 496.951 313.173 470.629 317.446L431.541 325.066" fill="#AADBEC"/>
<path d="M214.732 321.395L420.232 330.086C435.602 330.739 448.747 319.41 449.433 304.912L455.771 171.712C456.463 157.22 444.445 144.826 429.075 144.178L223.575 135.488C208.205 134.835 195.06 146.164 194.374 160.662L188.036 293.862C187.344 308.354 199.362 320.748 214.732 321.395V321.395Z" fill="#B7EEFF"/>
<path d="M392.296 342.994H319.789C316.652 342.994 314.109 345.536 314.109 348.672V355.16C314.109 358.296 316.652 360.838 319.789 360.838H392.296C395.433 360.838 397.976 358.296 397.976 355.16V348.672C397.976 345.536 395.433 342.994 392.296 342.994Z" fill="#AADBEC"/>
<path d="M399.053 535.578H309.043C290.392 535.578 275.133 521.192 275.133 503.604L294.264 382.464C294.264 370.572 310.963 360.838 323.577 360.838H390.009C402.623 360.838 419.322 370.572 419.322 382.464L432.076 504.435C432.076 521.566 417.213 535.578 399.047 535.578H399.053Z" fill="#AADBEC"/>
<path d="M182.122 255.177L190.05 255.512L193.431 184.413L185.503 184.079C182.998 183.973 180.855 185.819 180.738 188.184L177.764 250.687C177.653 253.052 179.611 255.071 182.116 255.177H182.122Z" fill="#D3002A"/>
<path d="M473.106 267.577L465.177 267.243L468.559 196.144L476.487 196.479C478.992 196.585 480.95 198.604 480.838 200.969L477.865 263.472C477.753 265.837 475.611 267.683 473.1 267.577H473.106Z" fill="#D3002A"/>
<path d="M292.216 382.766H291.714C288.017 382.766 285.019 385.763 285.019 389.459V397.073C285.019 400.77 288.017 403.767 291.714 403.767H292.216C295.914 403.767 298.911 400.77 298.911 397.073V389.459C298.911 385.763 295.914 382.766 292.216 382.766Z" fill="#AADBEC"/>
<path d="M343.78 100.239L354.369 129.29L330.473 128.28L343.78 100.239Z" fill="#253273"/>
<path d="M328.241 535.578V573.481C328.241 576.036 323.326 578.128 321.172 578.128C319.309 578.128 314.104 576.036 314.104 573.481V535.578H328.241V535.578Z" fill="#253273"/>
<path d="M242.466 300.243L391.359 306.541C403.075 307.037 412.995 298.486 413.519 287.436L418.184 189.422C418.708 178.378 409.636 169.023 397.926 168.527L249.033 162.229C237.317 161.733 227.397 170.284 226.872 181.334L222.208 279.347C221.684 290.392 230.756 299.746 242.466 300.243Z" fill="#253273"/>
<path d="M297.55 255.373C297.277 261.073 303.905 265.982 312.352 266.339C320.799 266.696 327.868 262.368 328.135 256.667C328.409 250.966 321.591 250.04 313.144 249.683C304.697 249.326 297.818 249.672 297.55 255.373V255.373Z" fill="#B7EEFF"/>
<path d="M344.298 104.657C353.274 104.657 360.55 97.7945 360.55 89.3287C360.55 80.8629 353.274 74 344.298 74C335.322 74 328.046 80.8629 328.046 89.3287C328.046 97.7945 335.322 104.657 344.298 104.657Z" fill="#D3002A"/>
<path d="M338.384 326.622C336.348 329.523 335.868 330.638 335.868 334.459C335.868 337.533 336.716 340.4 338.089 342.972H373.997C375.369 340.4 376.217 337.538 376.217 334.459C376.217 331.999 375.977 330.047 375.263 328.184L338.379 326.622H338.384Z" fill="#AADBEC"/>
<path d="M424.226 429.337C413.743 422.515 410.138 415.883 390.505 417.082C361.304 418.873 349.119 440.393 325.111 438.748C314.539 438.023 307.129 435.691 289.577 412.14L284.109 446.535L275.127 503.605C275.127 521.192 290.386 535.578 309.037 535.578H399.047C417.213 535.578 432.076 521.566 432.076 504.436L424.22 429.337H424.226Z" fill="#B7EEFF"/>
<g opacity="0.4">
<path opacity="0.4" d="M425.202 439.194C417.018 443.735 409.954 445.603 405.022 446.446C369.393 452.526 347.763 423.492 305.919 426.191C298.23 426.688 291.736 428.138 286.793 429.577L275.088 503.688C275.088 521.276 290.347 535.662 308.998 535.662H399.008C417.174 535.662 432.037 521.65 432.037 504.519L425.202 439.188V439.194Z" fill="white"/>
</g>
<path d="M328.822 590.06C322.221 596.285 298.398 599.972 291.792 593.747C290.967 592.972 290.448 592.073 290.191 591.086C288.372 584.192 299.14 572.963 304.915 567.519C311.515 561.293 322.216 561.293 328.816 567.519C332.119 570.631 333.765 574.709 333.765 578.786C333.765 582.864 332.113 586.942 328.816 590.054L328.822 590.06Z" fill="#AADBEC"/>
<path d="M320.787 578.396C315.693 578.396 311.554 575.205 311.554 571.278C311.554 567.351 315.699 564.161 320.787 564.161C325.876 564.161 330.021 567.351 330.021 571.278C330.021 575.205 325.876 578.396 320.787 578.396ZM320.787 564.707C316.011 564.707 312.128 567.658 312.128 571.278C312.128 574.899 316.011 577.849 320.787 577.849C325.563 577.849 329.446 574.899 329.446 571.278C329.446 567.658 325.563 564.707 320.787 564.707Z" fill="white"/>
<path d="M320.788 575.813C317.557 575.813 314.924 573.777 314.924 571.278C314.924 568.779 317.552 566.743 320.788 566.743C324.024 566.743 326.651 568.779 326.651 571.278C326.651 573.777 324.024 575.813 320.788 575.813ZM320.788 567.284C317.875 567.284 315.504 569.075 315.504 571.278C315.504 573.481 317.875 575.266 320.788 575.266C323.7 575.266 326.071 573.476 326.071 571.278C326.071 569.08 323.7 567.284 320.788 567.284Z" fill="#D00029"/>
<path d="M329 589.273C322.355 595.527 298.37 599.23 291.725 592.977C290.894 592.196 290.375 591.298 290.113 590.305C290.068 590.138 290.024 589.921 289.99 589.742L290.085 594.126C290.347 595.114 290.866 596.006 291.692 596.787C298.309 603.012 322.188 599.32 328.805 593.1C332.113 589.987 333.765 585.91 333.765 581.832L333.715 579.997C332.867 583.394 331.745 586.685 328.995 589.273H329Z" fill="#253273"/>
<path d="M381.612 535.578V573.481C381.612 576.036 386.528 578.128 388.681 578.128C390.545 578.128 395.75 576.036 395.75 573.481V535.578H381.612Z" fill="#253273"/>
<path d="M381.037 590.06C387.638 596.285 411.461 599.972 418.067 593.747C418.892 592.972 419.411 592.073 419.668 591.086C421.487 584.192 410.719 572.963 404.944 567.519C398.344 561.293 387.643 561.293 381.043 567.519C377.74 570.631 376.094 574.709 376.094 578.786C376.094 582.864 377.746 586.942 381.043 590.054L381.037 590.06Z" fill="#AADBEC"/>
<path d="M389.066 578.396C383.972 578.396 379.833 575.205 379.833 571.278C379.833 567.351 383.978 564.161 389.066 564.161C394.154 564.161 398.3 567.351 398.3 571.278C398.3 575.205 394.154 578.396 389.066 578.396V578.396ZM389.066 564.707C384.29 564.707 380.407 567.658 380.407 571.278C380.407 574.899 384.29 577.849 389.066 577.849C393.842 577.849 397.725 574.899 397.725 571.278C397.725 567.658 393.842 564.707 389.066 564.707Z" fill="white"/>
<path d="M389.066 575.813C385.836 575.813 383.202 573.777 383.202 571.278C383.202 568.779 385.83 566.743 389.066 566.743C392.302 566.743 394.93 568.779 394.93 571.278C394.93 573.777 392.302 575.813 389.066 575.813ZM389.066 567.284C386.154 567.284 383.782 569.075 383.782 571.278C383.782 573.481 386.154 575.266 389.066 575.266C391.978 575.266 394.349 573.476 394.349 571.278C394.349 569.08 391.978 567.284 389.066 567.284Z" fill="#D00029"/>
<path d="M380.853 589.273C387.498 595.527 411.483 599.23 418.128 592.977C418.959 592.196 419.478 591.298 419.74 590.305C419.785 590.138 419.83 589.943 419.858 589.77L419.763 594.126C419.5 595.114 418.982 596.006 418.156 596.787C411.539 603.012 387.66 599.32 381.043 593.1C377.734 589.987 376.083 585.91 376.083 581.832L376.139 580.064C377.11 585.67 378.103 586.691 380.853 589.273V589.273Z" fill="#253273"/>
<path d="M310.812 486.875V490.139H309.869V486.875L307.007 483.06H308.061L309.629 485.135C309.858 485.453 310.142 485.844 310.371 486.178H310.393C310.611 485.844 310.907 485.436 311.135 485.135L312.692 483.06H313.696L310.812 486.875Z" fill="#253273"/>
<path d="M316.078 490.261C314.488 490.261 313.255 489.174 313.255 487.634C313.255 486.095 314.488 484.996 316.078 484.996C317.669 484.996 318.879 486.078 318.879 487.634C318.879 489.19 317.657 490.261 316.078 490.261ZM316.078 485.771C315.024 485.771 314.165 486.535 314.165 487.651C314.165 488.766 315.024 489.514 316.078 489.514C317.133 489.514 317.97 488.761 317.97 487.651C317.97 486.541 317.105 485.771 316.078 485.771Z" fill="#253273"/>
<path d="M323.716 490.133V489.436H323.705C323.499 489.888 322.986 490.256 322.02 490.256C320.849 490.256 319.984 489.564 319.984 488.46V485.113H320.893V488.382C320.893 488.995 321.323 489.514 322.243 489.514C323.164 489.514 323.644 488.99 323.644 488.382V485.113H324.553V490.133H323.716V490.133Z" fill="#253273"/>
<path d="M328.682 485.966C328.587 485.944 328.431 485.911 328.286 485.911C327.51 485.911 326.763 486.34 326.763 487.579V490.128H325.898V485.107H326.763V486.206H326.785C326.952 485.498 327.566 485.041 328.375 485.041C328.531 485.041 328.771 485.063 328.9 485.107L328.693 485.961L328.682 485.966Z" fill="#253273"/>
<path d="M335.556 490.262C333.82 490.262 332.56 489.297 332.56 487.668V483.066H333.53V487.579C333.53 488.722 334.228 489.453 335.556 489.453C336.883 489.453 337.603 488.722 337.603 487.579V483.066H338.546V487.668C338.546 489.297 337.302 490.262 335.556 490.262Z" fill="#253273"/>
<path d="M343.768 490.262C341.743 490.262 339.818 488.845 339.818 486.591C339.818 484.338 341.743 482.938 343.768 482.938C345.794 482.938 347.719 484.365 347.719 486.591C347.719 488.817 345.805 490.262 343.768 490.262ZM343.768 483.746C342.251 483.746 340.8 484.828 340.8 486.613C340.8 488.398 342.251 489.503 343.768 489.503C345.286 489.503 346.748 488.404 346.748 486.613C346.748 484.823 345.264 483.746 343.768 483.746Z" fill="#253273"/>
<path d="M351.345 490.133H348.996V483.06H350.96C351.987 483.06 353.03 483.707 353.03 484.867C353.03 485.414 352.74 485.955 352.266 486.145C353.041 486.323 353.761 487.087 353.761 488.008C353.761 489.408 352.539 490.139 351.345 490.139V490.133ZM350.82 483.819H349.911V485.899H350.832C351.49 485.899 352.065 485.57 352.065 484.867C352.065 484.165 351.501 483.819 350.82 483.819V483.819ZM351.122 486.63H349.911V489.38H351.155C352.02 489.38 352.796 488.912 352.796 488.008C352.796 487.104 352.003 486.636 351.122 486.636V486.63Z" fill="#253273"/>
<path d="M360.071 490.133L359.234 488.226H356.193L355.367 490.133H354.419L357.554 482.96H357.912L361.047 490.133H360.076H360.071ZM358.084 485.543C357.967 485.269 357.833 484.901 357.727 484.566H357.705C357.61 484.901 357.454 485.264 357.337 485.543L356.511 487.495H358.905L358.079 485.543H358.084Z" fill="#253273"/>
<path d="M369.399 490.133L369.098 486.708C369.048 486.178 369.003 485.531 368.975 484.979H368.953C368.702 485.52 368.328 486.229 368.066 486.742L366.247 490.178H365.879L364.049 486.742C363.775 486.24 363.452 485.565 363.184 484.996H363.162C363.128 485.57 363.089 486.229 363.039 486.703L362.738 490.128H361.878L362.492 483.055H363.106L365.12 486.859C365.432 487.434 365.817 488.159 366.091 488.756H366.113C366.375 488.159 366.727 487.467 367.056 486.848L369.064 483.055H369.678L370.314 490.128H369.394L369.399 490.133Z" fill="#253273"/>
<path d="M374.56 490.133V483.06H375.52V490.133H374.56Z" fill="#253273"/>
<path d="M380.759 490.133V486.865C380.759 486.251 380.318 485.738 379.408 485.738C378.499 485.738 378.008 486.256 378.008 486.865V490.133H377.099V485.113H377.936V485.81H377.947C378.148 485.358 378.666 484.99 379.632 484.99C380.792 484.99 381.668 485.682 381.668 486.781V490.133H380.759V490.133Z" fill="#253273"/>
<path d="M385.211 490.234H384.843L382.605 485.113H383.526L384.592 487.55C384.748 487.907 384.904 488.359 385.049 488.766H385.071C385.217 488.359 385.395 487.913 385.54 487.55L386.595 485.113H387.443L385.205 490.234H385.211Z" fill="#253273"/>
<path d="M392.793 487.288L392.302 487.762H388.832C388.832 488.582 389.563 489.536 390.879 489.536C391.538 489.536 392.04 489.358 392.425 489.107L392.319 489.915C391.945 490.116 391.459 490.261 390.773 490.261C389.239 490.261 387.939 489.185 387.939 487.634C387.939 485.977 389.278 484.996 390.528 484.996C392.001 484.996 392.826 485.972 392.826 486.926C392.826 487.071 392.804 487.193 392.787 487.288H392.793ZM390.589 485.704C389.786 485.704 389.033 486.334 388.899 487.104H391.939C391.95 487.054 391.95 486.998 391.95 486.948C391.95 486.362 391.459 485.704 390.595 485.704H390.589Z" fill="#253273"/>
<path d="M395.326 490.206C394.69 490.206 394.21 490.049 393.853 489.815L393.736 488.928C394.121 489.246 394.707 489.503 395.337 489.503C395.889 489.503 396.297 489.229 396.297 488.806C396.297 488.382 395.973 488.153 395.421 487.963C394.416 487.634 393.853 487.199 393.853 486.413C393.853 485.626 394.562 485.046 395.538 485.046C396.113 485.046 396.654 485.247 396.866 485.364L396.676 486.061C396.447 485.894 396.062 485.732 395.527 485.732C395.036 485.732 394.701 486 394.701 486.373C394.701 486.775 394.991 486.948 395.549 487.138C396.576 487.484 397.167 487.935 397.167 488.766C397.167 489.598 396.498 490.2 395.326 490.2V490.206Z" fill="#253273"/>
<path d="M401.446 485.782H399.678V488.716C399.678 489.302 400.012 489.514 400.537 489.514C400.738 489.514 400.922 489.48 401.061 489.425L400.978 490.088C400.833 490.15 400.609 490.189 400.392 490.189C399.516 490.189 398.824 489.703 398.824 488.794V485.782H397.77V485.118H398.824V484.053L399.683 483.629V485.118H401.614L401.446 485.782V485.782Z" fill="#253273"/>
<path d="M315.995 516.367H308.407V497.017H315.125C318.31 497.017 321.145 498.986 321.145 502.143C321.145 503.298 320.536 504.748 319.443 505.328C321.239 505.875 323.019 507.877 323.019 510.332C323.019 514.091 319.861 516.367 315.995 516.367V516.367ZM314.366 500.503H312.882V504.48H314.366C315.549 504.48 316.642 503.906 316.642 502.511C316.642 501.117 315.543 500.509 314.366 500.509V500.503ZM315.158 507.872H312.882V512.937H315.158C316.676 512.937 318.221 512.178 318.221 510.421C318.221 508.664 316.704 507.872 315.158 507.872Z" fill="#253273"/>
<path d="M334.563 516.791C329.675 516.791 325.681 514.091 325.681 509.422V497.017H330.663V509.093C330.663 511.391 332.242 512.73 334.624 512.73C337.006 512.73 338.574 511.397 338.574 509.093V497.017H343.462V509.422C343.462 514.063 339.478 516.791 334.557 516.791H334.563Z" fill="#253273"/>
<path d="M353.655 516.367H346.736V497.017H353.655C359.535 497.017 364.657 500.659 364.657 506.695C364.657 512.73 359.569 516.373 353.655 516.373V516.367ZM353.175 500.871H351.568V512.546H353.175C356.706 512.546 359.63 510.605 359.63 506.723C359.63 502.84 356.734 500.871 353.175 500.871V500.871Z" fill="#253273"/>
<path d="M374.225 516.367H367.307V497.017H374.225C380.106 497.017 385.228 500.659 385.228 506.695C385.228 512.73 380.139 516.373 374.225 516.373V516.367ZM373.746 500.871H372.139V512.546H373.746C377.277 512.546 380.201 510.605 380.201 506.723C380.201 502.84 377.305 500.871 373.746 500.871V500.871Z" fill="#253273"/>
<path d="M396.86 507.721V516.367H392.034V507.816L384.352 497.017H389.691L393.066 501.658C393.546 502.294 394.093 503.203 394.55 503.995H394.612C395.03 503.236 395.666 502.266 396.118 501.658L399.505 497.017H404.487L396.86 507.721V507.721Z" fill="#253273"/>
<path d="M420.31 382.766H419.807C416.11 382.766 413.112 385.763 413.112 389.459V397.073C413.112 400.77 416.11 403.767 419.807 403.767H420.31C424.007 403.767 427.005 400.77 427.005 397.073V389.459C427.005 385.763 424.007 382.766 420.31 382.766Z" fill="#AADBEC"/>
<path d="M360.255 522.107L216.758 534.809L161.802 346.296L305.3 333.595L360.255 522.107Z" fill="#1B2568"/>
<path d="M333.235 451.321L323.75 461.055L307.274 460.686L304.329 438.558L314.55 435.139L328.743 440.215L333.235 451.321Z" fill="#D3002A"/>
<path d="M297.023 438.759C299.435 438.672 301.342 437.289 301.283 435.669C301.225 434.05 299.223 432.808 296.811 432.895C294.4 432.982 292.493 434.366 292.552 435.985C292.61 437.604 294.612 438.846 297.023 438.759Z" fill="#AADBEC"/>
<path d="M294.164 451.282C296.575 451.195 298.482 449.812 298.423 448.192C298.365 446.573 296.363 445.331 293.952 445.418C291.541 445.505 289.633 446.888 289.692 448.508C289.75 450.127 291.753 451.369 294.164 451.282Z" fill="#AADBEC"/>
<path d="M295.725 463.403C298.104 463.019 299.822 461.408 299.563 459.805C299.304 458.202 297.166 457.215 294.787 457.599C292.408 457.983 290.69 459.594 290.949 461.197C291.208 462.8 293.346 463.787 295.725 463.403Z" fill="#AADBEC"/>
<path d="M413.112 389.32C413.112 389.32 350.463 440.215 328.743 440.215L333.234 451.321C333.234 451.321 360.165 449.067 415.902 402.345C415.902 402.345 413.268 401.564 413.112 397.219C412.961 392.879 413.112 389.314 413.112 389.314V389.32Z" fill="#253273"/>
<path d="M284.628 224.916C282.045 217.676 275.272 212.839 267.746 212.839C267.707 212.839 267.662 212.839 267.623 212.839C260.621 212.89 254.233 217.146 251.354 223.689L247.27 221.893C250.857 213.743 258.83 208.438 267.59 208.377C267.64 208.377 267.69 208.377 267.74 208.377C277.147 208.377 285.605 214.407 288.824 223.416L284.617 224.916H284.628Z" fill="#C1EDFD"/>
<path d="M387.158 231.654C384.575 224.42 377.801 219.578 370.275 219.578C370.236 219.578 370.191 219.578 370.152 219.578C363.15 219.628 356.762 223.884 353.883 230.427L349.799 228.631C353.387 220.481 361.359 215.177 370.119 215.115C370.169 215.115 370.219 215.115 370.269 215.115C379.676 215.115 388.14 221.145 391.353 230.154L387.147 231.654H387.158Z" fill="#C1EDFD"/>
</svg>
