<svg width="390" height="321" viewBox="0 0 390 321" fill="none" xmlns="http://www.w3.org/2000/svg">
<g clip-path="url(#clip0_306_4254)">
<path d="M92.9328 154.367C93.5963 153.557 93.2049 152.141 92.0586 151.204C90.9122 150.267 89.445 150.163 88.7815 150.972C88.118 151.781 88.5094 153.197 89.6557 154.135C90.8021 155.072 92.2693 155.176 92.9328 154.367Z" fill="#AADBEC"/>
<path d="M86.7009 162.404C87.3644 161.595 86.973 160.179 85.8266 159.242C84.6803 158.304 83.2131 158.2 82.5496 159.01C81.886 159.819 82.2775 161.235 83.4238 162.172C84.5702 163.11 86.0374 163.214 86.7009 162.404Z" fill="#AADBEC"/>
<path d="M84.7691 173.311C86.2896 173.296 87.5144 172.458 87.5048 171.438C87.4952 170.418 86.2548 169.602 84.7343 169.617C83.2138 169.631 81.989 170.469 81.9986 171.49C82.0083 172.51 83.2487 173.325 84.7691 173.311Z" fill="#AADBEC"/>
<path d="M110.06 175.062C110.06 175.062 116.755 194.84 137.694 200.511C137.694 200.511 136.646 202.71 137.067 206.916C137.067 206.916 116.64 204.205 102.759 178.597L110.06 175.062Z" fill="#253273"/>
<path d="M101.37 150.891C102.452 150.876 103.313 149.704 103.294 148.272C103.274 146.84 102.381 145.691 101.299 145.705C100.217 145.72 99.3562 146.893 99.3757 148.325C99.3952 149.757 100.288 150.906 101.37 150.891Z" fill="#AADBEC"/>
<path d="M110.06 175.062L109.958 166.464L104.216 159.866L91.0588 169.665L95.8286 176.86L102.759 178.597L110.06 175.062Z" fill="#D3002A"/>
<path d="M139.679 208.374H139.723C141.288 208.358 142.552 207.137 142.537 205.666L142.497 202.366C142.479 200.892 141.186 199.7 139.622 199.718H139.577C138.012 199.734 136.748 200.955 136.764 202.426L136.803 205.726C136.821 207.2 138.114 208.392 139.679 208.374Z" fill="#AADBEC"/>
<path d="M133.689 103.851L150.835 95.9746C155.762 93.5354 157.893 92.5337 161.54 92.8467L253.898 97.6025C261.188 98.2286 266.609 104.357 265.945 111.223L263.317 174.546C263.317 174.546 265.509 186.857 253.185 188.855L234.884 192.419" fill="#AADBEC"/>
<path d="M133.376 190.702L229.589 194.767C236.786 195.072 242.94 189.773 243.261 182.993L246.229 120.698C246.552 113.92 240.926 108.124 233.729 107.821L137.516 103.757C130.32 103.451 124.165 108.75 123.844 115.53L120.877 177.825C120.553 184.603 126.179 190.399 133.376 190.702Z" fill="#B7EEFF"/>
<path d="M216.51 200.803H182.562C181.094 200.803 179.903 201.992 179.903 203.459V206.493C179.903 207.96 181.094 209.149 182.562 209.149H216.51C217.979 209.149 219.169 207.96 219.169 206.493V203.459C219.169 201.992 217.979 200.803 216.51 200.803Z" fill="#AADBEC"/>
<path d="M219.674 290.871H177.532C168.799 290.871 161.655 284.143 161.655 275.918L170.612 219.263C170.612 213.701 178.43 209.148 184.336 209.148H215.439C221.345 209.148 229.163 213.701 229.163 219.263L235.135 276.306C235.135 284.318 228.176 290.871 219.671 290.871H219.674Z" fill="#AADBEC"/>
<path d="M118.108 159.733L121.82 159.89L123.402 126.638L119.691 126.482C118.518 126.432 117.515 127.295 117.46 128.402L116.068 157.633C116.015 158.739 116.932 159.683 118.105 159.733H118.108Z" fill="#D3002A"/>
<path d="M254.344 165.533L250.633 165.376L252.216 132.125L255.927 132.281C257.1 132.331 258.017 133.275 257.965 134.381L256.573 163.612C256.52 164.719 255.517 165.582 254.342 165.533H254.344Z" fill="#D3002A"/>
<path d="M169.653 219.404H169.418C167.687 219.404 166.284 220.805 166.284 222.534V226.095C166.284 227.824 167.687 229.226 169.418 229.226H169.653C171.385 229.226 172.788 227.824 172.788 226.095V222.534C172.788 220.805 171.385 219.404 169.653 219.404Z" fill="#AADBEC"/>
<path d="M193.795 87.2715L198.753 100.858L187.565 100.386L193.795 87.2715Z" fill="#253273"/>
<path d="M186.52 290.871V308.598C186.52 309.793 184.219 310.771 183.21 310.771C182.338 310.771 179.901 309.793 179.901 308.598V290.871H186.52Z" fill="#253273"/>
<path d="M146.361 180.809L216.071 183.755C221.557 183.987 226.201 179.988 226.447 174.82L228.631 128.981C228.876 123.815 224.629 119.441 219.146 119.208L149.435 116.263C143.95 116.031 139.305 120.03 139.06 125.198L136.876 171.037C136.631 176.202 140.878 180.577 146.361 180.809Z" fill="#253273"/>
<path d="M172.151 159.825C172.023 162.491 175.126 164.787 179.081 164.954C183.035 165.12 186.345 163.096 186.47 160.43C186.598 157.764 183.406 157.331 179.452 157.164C175.497 156.997 172.276 157.158 172.151 159.825Z" fill="#B7EEFF"/>
<path d="M194.038 89.3378C198.24 89.3378 201.647 86.1282 201.647 82.1689C201.647 78.2096 198.24 75 194.038 75C189.835 75 186.428 78.2096 186.428 82.1689C186.428 86.1282 189.835 89.3378 194.038 89.3378Z" fill="#D3002A"/>
<path d="M191.269 193.146C190.315 194.503 190.091 195.025 190.091 196.812C190.091 198.249 190.488 199.59 191.13 200.793H207.942C208.585 199.59 208.982 198.252 208.982 196.812C208.982 195.661 208.87 194.748 208.535 193.877L191.266 193.146H191.269Z" fill="#AADBEC"/>
<path d="M231.46 241.184C226.551 237.994 224.864 234.892 215.672 235.453C202 236.29 196.295 246.355 185.055 245.585C180.105 245.246 176.636 244.156 168.418 233.142L165.858 249.227L161.652 275.918C161.652 284.143 168.797 290.871 177.529 290.871H219.671C228.176 290.871 235.135 284.318 235.135 276.306L231.457 241.184H231.46Z" fill="#B7EEFF"/>
<g opacity="0.4">
<path opacity="0.4" d="M231.917 245.794C228.085 247.918 224.778 248.792 222.468 249.186C205.787 252.029 195.66 238.45 176.069 239.713C172.469 239.945 169.429 240.623 167.114 241.297L161.634 275.957C161.634 284.182 168.778 290.91 177.511 290.91H219.653C228.158 290.91 235.116 284.357 235.116 276.345L231.917 245.791V245.794Z" fill="white"/>
</g>
<path d="M186.792 316.351C183.701 319.263 172.548 320.987 169.455 318.076C169.068 317.713 168.825 317.293 168.705 316.831C167.853 313.607 172.895 308.355 175.599 305.809C178.689 302.898 183.699 302.898 186.789 305.809C188.335 307.265 189.106 309.172 189.106 311.079C189.106 312.986 188.333 314.893 186.789 316.349L186.792 316.351Z" fill="#AADBEC"/>
<path d="M183.03 310.896C180.645 310.896 178.707 309.404 178.707 307.568C178.707 305.731 180.648 304.239 183.03 304.239C185.412 304.239 187.353 305.731 187.353 307.568C187.353 309.404 185.412 310.896 183.03 310.896ZM183.03 304.494C180.794 304.494 178.976 305.874 178.976 307.568C178.976 309.261 180.794 310.641 183.03 310.641C185.266 310.641 187.084 309.261 187.084 307.568C187.084 305.874 185.266 304.494 183.03 304.494Z" fill="white"/>
<path d="M183.03 309.688C181.518 309.688 180.285 308.736 180.285 307.567C180.285 306.398 181.515 305.446 183.03 305.446C184.545 305.446 185.775 306.398 185.775 307.567C185.775 308.736 184.545 309.688 183.03 309.688ZM183.03 305.699C181.666 305.699 180.556 306.537 180.556 307.567C180.556 308.598 181.666 309.432 183.03 309.432C184.394 309.432 185.504 308.595 185.504 307.567C185.504 306.539 184.394 305.699 183.03 305.699Z" fill="#D00029"/>
<path d="M186.875 315.983C183.764 318.908 172.535 320.64 169.423 317.716C169.034 317.35 168.791 316.93 168.669 316.466C168.648 316.388 168.627 316.286 168.611 316.203L168.655 318.253C168.778 318.715 169.021 319.132 169.408 319.497C172.506 322.409 183.686 320.682 186.784 317.773C188.333 316.317 189.106 314.41 189.106 312.503L189.083 311.645C188.685 313.234 188.16 314.773 186.873 315.983H186.875Z" fill="#253273"/>
<path d="M211.508 290.871V308.598C211.508 309.793 213.809 310.771 214.817 310.771C215.69 310.771 218.127 309.793 218.127 308.598V290.871H211.508Z" fill="#253273"/>
<path d="M211.239 316.351C214.329 319.263 225.483 320.987 228.576 318.076C228.962 317.713 229.205 317.293 229.325 316.831C230.177 313.607 225.135 308.355 222.432 305.809C219.342 302.898 214.331 302.898 211.241 305.809C209.695 307.265 208.924 309.172 208.924 311.079C208.924 312.986 209.698 314.893 211.241 316.349L211.239 316.351Z" fill="#AADBEC"/>
<path d="M214.998 310.896C212.613 310.896 210.675 309.404 210.675 307.568C210.675 305.731 212.615 304.239 214.998 304.239C217.38 304.239 219.321 305.731 219.321 307.568C219.321 309.404 217.38 310.896 214.998 310.896ZM214.998 304.494C212.762 304.494 210.944 305.874 210.944 307.568C210.944 309.261 212.762 310.641 214.998 310.641C217.234 310.641 219.052 309.261 219.052 307.568C219.052 305.874 217.234 304.494 214.998 304.494Z" fill="white"/>
<path d="M214.998 309.688C213.485 309.688 212.252 308.736 212.252 307.567C212.252 306.398 213.483 305.446 214.998 305.446C216.513 305.446 217.743 306.398 217.743 307.567C217.743 308.736 216.513 309.688 214.998 309.688ZM214.998 305.699C213.634 305.699 212.524 306.537 212.524 307.567C212.524 308.598 213.634 309.432 214.998 309.432C216.361 309.432 217.471 308.595 217.471 307.567C217.471 306.539 216.361 305.699 214.998 305.699Z" fill="#D00029"/>
<path d="M211.153 315.983C214.264 318.908 225.493 320.64 228.604 317.716C228.994 317.35 229.236 316.93 229.359 316.466C229.38 316.388 229.401 316.296 229.414 316.216L229.37 318.253C229.247 318.715 229.004 319.132 228.617 319.497C225.519 322.409 214.339 320.682 211.241 317.773C209.692 316.317 208.919 314.41 208.919 312.503L208.945 311.676C209.4 314.298 209.865 314.776 211.153 315.983Z" fill="#253273"/>
<path d="M178.36 268.094V269.62H177.918V268.094L176.578 266.31H177.072L177.806 267.28C177.913 267.429 178.046 267.611 178.153 267.768H178.164C178.266 267.611 178.404 267.421 178.511 267.28L179.24 266.31H179.71L178.36 268.094Z" fill="#253273"/>
<path d="M180.825 269.677C180.081 269.677 179.504 269.168 179.504 268.448C179.504 267.728 180.081 267.214 180.825 267.214C181.57 267.214 182.137 267.72 182.137 268.448C182.137 269.176 181.565 269.677 180.825 269.677ZM180.825 267.577C180.332 267.577 179.929 267.934 179.929 268.456C179.929 268.978 180.332 269.327 180.825 269.327C181.319 269.327 181.711 268.975 181.711 268.456C181.711 267.937 181.306 267.577 180.825 267.577Z" fill="#253273"/>
<path d="M184.402 269.617V269.291H184.396C184.3 269.503 184.059 269.675 183.608 269.675C183.059 269.675 182.654 269.351 182.654 268.835V267.27H183.08V268.798C183.08 269.085 183.281 269.328 183.712 269.328C184.143 269.328 184.368 269.083 184.368 268.798V267.27H184.793V269.617H184.402Z" fill="#253273"/>
<path d="M186.726 267.668C186.682 267.658 186.609 267.642 186.541 267.642C186.178 267.642 185.828 267.843 185.828 268.422V269.615H185.423V267.267H185.828V267.781H185.838C185.917 267.449 186.204 267.235 186.583 267.235C186.656 267.235 186.768 267.246 186.828 267.267L186.732 267.666L186.726 267.668Z" fill="#253273"/>
<path d="M189.944 269.677C189.132 269.677 188.542 269.226 188.542 268.464V266.312H188.996V268.422C188.996 268.957 189.323 269.299 189.944 269.299C190.566 269.299 190.903 268.957 190.903 268.422V266.312H191.345V268.464C191.345 269.226 190.762 269.677 189.944 269.677Z" fill="#253273"/>
<path d="M193.79 269.677C192.841 269.677 191.94 269.015 191.94 267.961C191.94 266.907 192.841 266.252 193.79 266.252C194.738 266.252 195.639 266.92 195.639 267.961C195.639 269.002 194.743 269.677 193.79 269.677ZM193.79 266.63C193.079 266.63 192.4 267.136 192.4 267.971C192.4 268.806 193.079 269.322 193.79 269.322C194.5 269.322 195.184 268.809 195.184 267.971C195.184 267.134 194.49 266.63 193.79 266.63Z" fill="#253273"/>
<path d="M197.337 269.618H196.237V266.31H197.157C197.637 266.31 198.126 266.612 198.126 267.155C198.126 267.41 197.99 267.664 197.768 267.752C198.131 267.836 198.468 268.193 198.468 268.624C198.468 269.278 197.896 269.62 197.337 269.62V269.618ZM197.091 266.664H196.666V267.637H197.097C197.405 267.637 197.674 267.484 197.674 267.155C197.674 266.826 197.41 266.664 197.091 266.664ZM197.233 267.979H196.666V269.265H197.248C197.653 269.265 198.016 269.046 198.016 268.624C198.016 268.201 197.645 267.982 197.233 267.982V267.979Z" fill="#253273"/>
<path d="M201.422 269.617L201.03 268.725H199.607L199.22 269.617H198.776L200.244 266.262H200.411L201.879 269.617H201.425H201.422ZM200.492 267.47C200.437 267.342 200.375 267.17 200.325 267.014H200.315C200.27 267.17 200.197 267.34 200.142 267.47L199.756 268.383H200.876L200.49 267.47H200.492Z" fill="#253273"/>
<path d="M205.79 269.617L205.649 268.015C205.625 267.768 205.604 267.465 205.591 267.207H205.581C205.463 267.46 205.288 267.791 205.165 268.031L204.314 269.638H204.141L203.285 268.031C203.157 267.796 203.005 267.481 202.88 267.214H202.869C202.854 267.483 202.835 267.791 202.812 268.013L202.671 269.615H202.269L202.556 266.307H202.843L203.786 268.086C203.932 268.355 204.113 268.694 204.241 268.973H204.251C204.374 268.694 204.539 268.37 204.693 268.081L205.633 266.307H205.92L206.218 269.615H205.787L205.79 269.617Z" fill="#253273"/>
<path d="M208.206 269.617V266.31H208.655V269.617H208.206Z" fill="#253273"/>
<path d="M211.108 269.617V268.088C211.108 267.802 210.902 267.561 210.476 267.561C210.05 267.561 209.82 267.804 209.82 268.088V269.617H209.395V267.269H209.786V267.595H209.792C209.886 267.384 210.129 267.212 210.58 267.212C211.124 267.212 211.534 267.535 211.534 268.049V269.617H211.108Z" fill="#253273"/>
<path d="M213.193 269.664H213.02L211.973 267.27H212.404L212.903 268.41C212.976 268.577 213.049 268.788 213.117 268.978H213.127C213.195 268.788 213.279 268.579 213.347 268.41L213.841 267.27H214.238L213.19 269.664H213.193Z" fill="#253273"/>
<path d="M216.743 268.287L216.513 268.508H214.888C214.888 268.892 215.23 269.338 215.847 269.338C216.155 269.338 216.39 269.254 216.57 269.137L216.521 269.515C216.346 269.609 216.118 269.677 215.797 269.677C215.079 269.677 214.47 269.174 214.47 268.448C214.47 267.674 215.097 267.214 215.682 267.214C216.372 267.214 216.758 267.671 216.758 268.117C216.758 268.185 216.748 268.242 216.74 268.287H216.743ZM215.711 267.546C215.335 267.546 214.982 267.84 214.919 268.2H216.343C216.348 268.177 216.348 268.151 216.348 268.127C216.348 267.854 216.118 267.546 215.713 267.546H215.711Z" fill="#253273"/>
<path d="M217.929 269.651C217.631 269.651 217.406 269.578 217.239 269.469L217.184 269.054C217.364 269.203 217.639 269.323 217.934 269.323C218.192 269.323 218.383 269.195 218.383 268.997C218.383 268.798 218.232 268.691 217.973 268.603C217.503 268.449 217.239 268.245 217.239 267.877C217.239 267.51 217.571 267.238 218.028 267.238C218.297 267.238 218.55 267.332 218.649 267.387L218.561 267.713C218.454 267.635 218.273 267.559 218.023 267.559C217.793 267.559 217.636 267.684 217.636 267.859C217.636 268.047 217.772 268.128 218.033 268.217C218.514 268.378 218.791 268.59 218.791 268.978C218.791 269.367 218.477 269.649 217.929 269.649V269.651Z" fill="#253273"/>
<path d="M220.794 267.582H219.966V268.954C219.966 269.228 220.123 269.327 220.368 269.327C220.462 269.327 220.548 269.312 220.614 269.286L220.575 269.596C220.507 269.625 220.402 269.643 220.3 269.643C219.89 269.643 219.566 269.416 219.566 268.991V267.582H219.073V267.272H219.566V266.773L219.968 266.575V267.272H220.872L220.794 267.582Z" fill="#253273"/>
<path d="M180.786 281.886H177.234V272.836H180.379C181.87 272.836 183.197 273.757 183.197 275.234C183.197 275.774 182.913 276.452 182.401 276.724C183.242 276.979 184.075 277.916 184.075 279.064C184.075 280.822 182.597 281.886 180.786 281.886ZM180.024 274.467H179.329V276.327H180.024C180.577 276.327 181.089 276.058 181.089 275.406C181.089 274.754 180.575 274.47 180.024 274.47V274.467ZM180.395 277.913H179.329V280.282H180.395C181.105 280.282 181.829 279.927 181.829 279.105C181.829 278.284 181.118 277.913 180.395 277.913Z" fill="#253273"/>
<path d="M189.48 282.085C187.191 282.085 185.321 280.822 185.321 278.638V272.836H187.654V278.484C187.654 279.559 188.393 280.185 189.508 280.185C190.624 280.185 191.358 279.562 191.358 278.484V272.836H193.646V278.638C193.646 280.809 191.781 282.085 189.477 282.085H189.48Z" fill="#253273"/>
<path d="M198.418 281.886H195.179V272.836H198.418C201.171 272.836 203.569 274.54 203.569 277.363C203.569 280.185 201.187 281.889 198.418 281.889V281.886ZM198.194 274.639H197.441V280.099H198.194C199.847 280.099 201.216 279.191 201.216 277.376C201.216 275.56 199.86 274.639 198.194 274.639Z" fill="#253273"/>
<path d="M208.049 281.886H204.81V272.836H208.049C210.803 272.836 213.201 274.54 213.201 277.363C213.201 280.185 210.818 281.889 208.049 281.889V281.886ZM207.825 274.639H207.072V280.099H207.825C209.478 280.099 210.847 279.191 210.847 277.376C210.847 275.56 209.491 274.639 207.825 274.639Z" fill="#253273"/>
<path d="M218.647 277.843V281.886H216.387V277.887L212.79 272.836H215.29L216.87 275.007C217.095 275.304 217.351 275.73 217.565 276.1H217.594C217.79 275.745 218.088 275.291 218.299 275.007L219.885 272.836H222.218L218.647 277.843Z" fill="#253273"/>
<path d="M229.626 219.404H229.391C227.66 219.404 226.256 220.805 226.256 222.534V226.095C226.256 227.824 227.66 229.226 229.391 229.226H229.626C231.357 229.226 232.76 227.824 232.76 226.095V222.534C232.76 220.805 231.357 219.404 229.626 219.404Z" fill="#AADBEC"/>
<path d="M201.508 284.571L134.324 290.511L108.594 202.347L175.779 196.407L201.508 284.571Z" fill="#1B2568"/>
<path d="M188.858 251.466L184.417 256.018L176.703 255.846L175.324 245.497L180.11 243.897L186.755 246.271L188.858 251.466Z" fill="#D3002A"/>
<path d="M171.904 245.591C173.033 245.55 173.926 244.903 173.898 244.146C173.871 243.388 172.934 242.807 171.805 242.848C170.676 242.889 169.783 243.536 169.81 244.293C169.838 245.051 170.775 245.632 171.904 245.591Z" fill="#AADBEC"/>
<path d="M170.565 251.448C171.694 251.407 172.587 250.76 172.559 250.003C172.532 249.245 171.595 248.664 170.466 248.705C169.337 248.746 168.444 249.393 168.472 250.15C168.499 250.907 169.436 251.488 170.565 251.448Z" fill="#AADBEC"/>
<path d="M171.296 257.116C172.41 256.937 173.215 256.183 173.093 255.434C172.972 254.684 171.971 254.222 170.857 254.402C169.743 254.582 168.939 255.335 169.06 256.085C169.181 256.834 170.183 257.296 171.296 257.116Z" fill="#AADBEC"/>
<path d="M226.256 222.469C226.256 222.469 196.924 246.271 186.755 246.271L188.858 251.465C188.858 251.465 201.467 250.412 227.562 228.56C227.562 228.56 226.329 228.195 226.256 226.163C226.186 224.133 226.256 222.466 226.256 222.466V222.469Z" fill="#253273"/>
<path d="M166.101 145.581C164.891 142.195 161.72 139.933 158.196 139.933C158.178 139.933 158.157 139.933 158.139 139.933C154.861 139.956 151.87 141.947 150.522 145.007L148.61 144.167C150.289 140.355 154.022 137.874 158.123 137.846C158.147 137.846 158.17 137.846 158.194 137.846C162.598 137.846 166.558 140.666 168.065 144.879L166.096 145.581H166.101Z" fill="#C1EDFD"/>
<path d="M214.104 148.732C212.895 145.349 209.724 143.084 206.2 143.084C206.182 143.084 206.161 143.084 206.142 143.084C202.864 143.108 199.873 145.098 198.525 148.158L196.613 147.318C198.293 143.507 202.026 141.026 206.127 140.997C206.15 140.997 206.174 140.997 206.197 140.997C210.601 140.997 214.564 143.817 216.069 148.03L214.099 148.732H214.104Z" fill="#C1EDFD"/>
</g>
<path d="M370.865 273.298L371.37 273.376C375.731 274.071 380.752 271.874 384.154 267.778C389.02 261.927 389.24 254.054 384.659 250.219C384.122 249.77 383.538 249.393 382.91 249.088C380.849 248.132 378.53 247.891 376.314 248.392C372.854 249.172 369.763 251.103 367.541 253.872C364.01 258.124 362.85 262.499 364.178 266.511L364.34 266.998L362.39 267.648L362.228 267.161C360.679 262.499 362.001 257.311 365.96 252.553C368.48 249.426 371.986 247.241 375.906 246.37C378.562 245.772 381.342 246.071 383.804 247.222C384.582 247.599 385.307 248.073 385.975 248.632C388.625 250.849 390.057 254.217 389.998 258.105C389.862 262.148 388.359 266.023 385.735 269.091C381.873 273.74 376.113 276.217 371.046 275.404L370.541 275.319L370.865 273.285V273.298Z" fill="#00A0EC"/>
<path d="M385.651 249.042C383.104 246.909 379.677 246.142 376.016 246.89C372.213 247.742 368.811 249.854 366.368 252.897C362.532 257.513 361.237 262.525 362.733 267.011L363.705 266.686C362.312 262.493 363.504 257.955 367.159 253.554C369.459 250.693 372.653 248.704 376.223 247.898C379.573 247.215 382.69 247.904 384.996 249.835C389.797 253.846 389.597 262.044 384.556 268.109C381.037 272.342 375.834 274.611 371.292 273.889L371.13 274.91C376.016 275.69 381.601 273.284 385.346 268.773C390.75 262.265 390.886 253.417 385.651 249.042" fill="white"/>
<path d="M369.161 271.042C368.688 270.814 368.247 270.521 367.846 270.19C366.744 269.26 365.973 268.006 365.63 266.601C364.723 263.156 365.967 258.845 368.863 255.354C372.595 250.862 378.083 248.957 381.919 250.83C382.385 251.057 382.826 251.343 383.221 251.675C385.055 253.209 385.929 255.64 385.69 258.514C385.359 261.472 384.148 264.261 382.204 266.51C379.249 270.066 375.193 272.056 371.617 271.711C370.768 271.633 369.932 271.406 369.161 271.035V271.042ZM381.005 252.669C378.07 251.233 373.528 252.949 370.444 256.668C368.001 259.613 366.893 263.299 367.619 266.068C367.852 267.056 368.396 267.94 369.161 268.597C369.439 268.825 369.738 269.026 370.061 269.182C370.612 269.442 371.202 269.605 371.811 269.657C374.681 269.93 378.141 268.175 380.629 265.184C382.301 263.253 383.351 260.867 383.642 258.332C383.83 256.147 383.214 254.347 381.906 253.255C381.627 253.027 381.329 252.825 381.005 252.669" fill="#00A0EC"/>
<path d="M368.176 269.793C368.545 270.105 368.954 270.365 369.388 270.58C370.1 270.925 370.871 271.133 371.662 271.204C375.077 271.529 378.964 269.605 381.809 266.185C383.681 264.014 384.854 261.329 385.171 258.475C385.405 255.777 384.595 253.502 382.891 252.078C379.431 249.172 373.314 250.804 369.258 255.686C366.459 259.054 365.26 263.182 366.129 266.471C366.446 267.765 367.159 268.929 368.176 269.793V269.793ZM370.049 256.349C373.366 252.357 378.109 250.693 381.232 252.221C381.595 252.396 381.932 252.617 382.236 252.871C383.675 254.074 384.355 256.031 384.154 258.39C383.85 261.03 382.761 263.52 381.025 265.529C378.433 268.649 374.798 270.476 371.766 270.183C370.69 270.099 369.673 269.689 368.837 269.007C367.988 268.279 367.386 267.303 367.12 266.218C366.355 263.292 367.502 259.418 370.049 256.349" fill="white"/>
<path d="M346.477 282.653C346.075 282.458 345.693 282.25 345.324 282.029C342.499 280.351 341.041 278.213 341.209 276.015L341.604 271.809H341.637C341.902 269.696 343.658 267.895 346.606 266.712C349.878 265.529 353.364 265.093 356.824 265.431C359.85 265.626 362.818 266.381 365.571 267.668C365.973 267.863 366.355 268.071 366.725 268.285C369.55 269.963 371.008 272.102 370.839 274.299C370.826 274.474 370.8 274.656 370.761 274.832L370.781 275.118L370.424 278.33C370.262 280.462 368.558 282.321 365.63 283.537C362.306 284.779 358.742 285.24 355.217 284.883C352.192 284.688 349.224 283.934 346.47 282.653H346.477ZM343.25 276.191C343.146 277.556 344.248 278.999 346.36 280.254C346.684 280.442 347.021 280.624 347.371 280.8C349.891 281.964 352.606 282.653 355.373 282.828C361.988 283.342 367.995 281.21 368.37 278.252C367.593 278.811 366.744 279.266 365.85 279.61C362.578 280.793 359.086 281.229 355.626 280.891C352.587 280.696 349.613 279.942 346.853 278.661C345.505 278.037 344.287 277.172 343.25 276.106V276.197V276.191ZM364.664 269.514C362.144 268.35 359.435 267.661 356.662 267.486C353.513 267.174 350.339 267.564 347.358 268.63C345.077 269.54 343.762 270.801 343.652 272.18C343.535 273.746 345.071 275.469 347.766 276.782C350.287 277.952 353.002 278.642 355.775 278.83C358.924 279.142 362.098 278.752 365.079 277.686C367.36 276.776 368.675 275.515 368.785 274.136C368.895 272.758 367.787 271.308 365.675 270.054C365.351 269.865 365.014 269.683 364.664 269.508" fill="#00A0EC"/>
<path d="M370.282 275.066L370.191 275.053C370.269 274.793 370.314 274.533 370.34 274.266C370.496 272.27 369.122 270.307 366.472 268.734C363.491 267.096 360.187 266.146 356.792 265.951C353.41 265.62 349.995 266.042 346.801 267.2C343.943 268.337 342.291 270.073 342.129 272.069C342.123 272.173 342.136 272.277 342.142 272.387H342.071L341.721 276.067C341.565 278.063 342.933 280.026 345.583 281.599C345.939 281.808 346.308 282.009 346.697 282.204C349.392 283.452 352.295 284.193 355.263 284.388C363.167 285.006 369.608 282.321 369.919 278.29L370.282 275.079V275.066ZM347.183 268.155C350.235 267.063 353.487 266.66 356.714 266.979C359.546 267.161 362.319 267.863 364.897 269.052C365.26 269.228 365.61 269.416 365.947 269.618C368.234 270.977 369.433 272.602 369.31 274.182C369.187 275.761 367.755 277.185 365.286 278.167C362.234 279.259 358.982 279.662 355.755 279.344C348.667 278.791 342.9 275.495 343.159 272.14C343.282 270.554 344.714 269.137 347.189 268.149L347.183 268.155ZM355.347 283.335C352.114 283.153 348.958 282.25 346.114 280.696C343.82 279.331 342.628 277.712 342.751 276.139L342.881 274.754C343.95 276.262 345.408 277.452 347.099 278.186C349.801 279.435 352.71 280.176 355.684 280.364C359.066 280.696 362.474 280.273 365.668 279.123C366.925 278.661 368.079 277.933 369.031 276.99L368.902 278.167C368.642 281.521 362.435 283.888 355.347 283.335" fill="white"/>
<path d="M339.648 232.074L341.112 232.477L342.194 228.472L343.12 228.726L344.455 223.811L349.762 222.095C350.235 221.939 350.747 221.978 351.187 222.192C351.362 222.277 351.524 222.387 351.667 222.524C352.179 223.005 352.386 223.727 352.204 224.403L350.565 230.761L351.511 231.021L350.423 235.026L351.887 235.429L344.818 261.466L332.579 258.124L339.648 232.074ZM335.106 256.668L343.38 258.93L349.367 236.872L341.086 234.61L335.106 256.668V256.668ZM343.088 233.017L348.44 234.479L348.978 232.503L343.626 231.04L343.088 233.017ZM345.11 229.272L348.583 230.221L350.151 224.13L346.146 225.43L345.103 229.272H345.11Z" fill="#00A0EC"/>
<path d="M349.794 235.383L350.883 231.379L349.943 231.125L351.712 224.273C351.842 223.779 351.693 223.246 351.317 222.901C350.947 222.55 350.416 222.427 349.924 222.583L344.883 224.214L343.49 229.363L342.557 229.11L341.468 233.114L340.004 232.711L333.207 257.754L344.455 260.829L351.252 235.786L349.788 235.39L349.794 235.383ZM345.725 225.021L350.235 223.558C350.429 223.493 350.643 223.603 350.708 223.798C350.727 223.863 350.734 223.941 350.714 224.006L348.952 230.852L344.481 229.63L345.732 225.021H345.725ZM343.263 230.41L349.606 232.146L348.803 235.117L342.459 233.381L343.263 230.41V230.41ZM334.464 257.032L340.723 233.973L349.988 236.501L343.736 259.554L334.464 257.019V257.032Z" fill="white"/>
<path d="M326.799 277.621L327.026 277.159C328.212 274.721 326.89 270.879 324.46 269.696L324 269.468L324.901 267.616L325.361 267.843C327.79 269.033 331.62 267.707 332.799 265.269L333.026 264.807L334.872 265.711L334.646 266.172C333.46 268.61 334.782 272.452 337.211 273.636L337.671 273.863L336.771 275.716L336.311 275.488C333.881 274.299 330.052 275.625 328.872 278.063L328.646 278.524L326.799 277.621ZM328.101 270.327C328.898 271.549 329.384 272.953 329.501 274.409C330.719 273.61 332.119 273.122 333.57 273.005C332.773 271.783 332.287 270.379 332.17 268.922C330.952 269.722 329.553 270.21 328.101 270.327" fill="#00A0EC"/>
<path d="M334.186 265.945L333.265 265.496C331.95 268.214 327.842 269.631 325.14 268.311L324.693 269.234C327.402 270.56 328.814 274.676 327.499 277.387L328.419 277.835C329.741 275.118 333.842 273.7 336.544 275.02L336.991 274.097C334.283 272.771 332.87 268.656 334.186 265.945ZM329.009 275.43C329.093 273.388 328.406 271.386 327.084 269.826C329.125 269.91 331.114 269.221 332.669 267.895C332.585 269.943 333.272 271.939 334.594 273.499C332.559 273.414 330.564 274.104 329.009 275.43" fill="white"/>
<path d="M362.928 242.931L363.154 242.47C363.951 240.825 363.031 238.14 361.392 237.34L360.926 237.113L361.826 235.26L362.286 235.487C363.925 236.287 366.601 235.364 367.398 233.719L367.625 233.251L369.472 234.155L369.245 234.616C368.448 236.261 369.368 238.946 371.007 239.746L371.467 239.973L370.567 241.826L370.107 241.605C368.467 240.805 365.792 241.728 364.995 243.373L364.768 243.835L362.921 242.938L362.928 242.931ZM364.638 237.776C365.046 238.497 365.319 239.29 365.442 240.11C366.161 239.7 366.951 239.427 367.768 239.304C367.359 238.582 367.087 237.789 366.958 236.97C366.239 237.379 365.448 237.652 364.632 237.769" fill="#00A0EC"/>
<path d="M363.614 242.697L364.534 243.145C365.455 241.247 368.442 240.207 370.34 241.137L370.787 240.214C368.889 239.284 367.858 236.293 368.785 234.389L367.865 233.94C366.938 235.845 363.958 236.872 362.059 235.949L361.612 236.872C363.511 237.802 364.541 240.792 363.614 242.697V242.697ZM367.405 236.059C367.418 237.399 367.865 238.692 368.675 239.752C367.34 239.765 366.051 240.214 364.995 241.026C364.982 239.687 364.534 238.393 363.725 237.334C365.059 237.321 366.349 236.872 367.405 236.059" fill="white"/>
<g clip-path="url(#clip1_306_4254)">
<path d="M325.256 124.846C312.901 120.856 306.139 107.657 310.162 95.3787C312.537 88.124 318.329 82.4805 325.672 80.2489L327.943 73.313L353.181 81.481L351.005 88.124C359.059 98.2564 357.325 112.964 347.129 120.968C340.948 125.819 332.746 127.275 325.256 124.854V124.846ZM327.709 82.3685L327.033 82.5494C315.884 85.565 309.303 96.9985 312.347 108.079C315.39 119.159 326.894 125.699 338.044 122.674C349.193 119.65 355.773 108.217 352.73 97.1364C351.932 94.2241 350.502 91.5187 348.551 89.2096L348.083 88.6582L349.895 83.1267L329.599 76.5612L327.701 82.3512L327.709 82.3685Z" fill="#00DCEB"/>
<path d="M325.524 124.027C313.621 120.175 307.11 107.467 310.985 95.6368C313.326 88.5027 319.083 82.9885 326.348 80.9378L328.489 74.3896L352.08 82.0235L350.025 88.2873C357.984 97.8856 356.605 112.085 346.939 119.994C340.956 124.888 332.876 126.413 325.507 124.027H325.524ZM329.053 75.4839L327.033 81.653L326.807 81.7133C315.19 84.8581 308.341 96.7655 311.514 108.311C314.679 119.857 326.669 126.655 338.277 123.51C349.895 120.365 356.735 108.449 353.571 96.912C352.739 93.8791 351.256 91.0617 349.219 88.6664L349.063 88.4855L350.996 82.5835L329.053 75.4839Z" fill="white"/>
<path d="M326.217 79.6056L325.412 82.0635L350.259 90.1012L351.064 87.6433L326.217 79.6056Z" fill="#00DCEB"/>
<path d="M326.773 80.6914L326.505 81.5107L349.703 89.0151L349.972 88.1958L326.773 80.6914Z" fill="white"/>
<path d="M327.674 75.9408L324.441 62L354.481 77.5175L352.374 83.9365L327.674 75.9408V75.9408ZM350.71 80.671L351.325 78.7927L328.238 66.8767L329.877 73.9332L350.71 80.671Z" fill="#00DCEB"/>
<path d="M351.82 82.8508L328.403 75.2773L325.707 63.6284L353.424 77.9483L351.82 82.8508V82.8508ZM329.14 74.6053L351.256 81.7652L352.366 78.3705L326.972 65.2569L329.14 74.6053V74.6053Z" fill="white"/>
<path d="M363.134 113.688C360.047 112.68 358.357 109.38 359.354 106.312L362.423 96.9382L359.18 90.6141L348.56 87.1762L350.866 80.7314L363.862 84.9361L370 96.921L364.373 114.093L363.134 113.696V113.688ZM361.018 88.4773L365.24 96.7142L361.833 107.105C361.426 108.346 361.798 109.707 362.787 110.569L367.191 97.1192L362.033 87.047L352.47 83.9538L351.906 85.522L361.01 88.4687L361.018 88.4773Z" fill="#00DCEB"/>
<path d="M363.819 113.007L363.402 112.878C360.767 112.025 359.328 109.207 360.177 106.588L363.359 96.8691L359.796 89.9074L349.678 86.6333L351.403 81.8169L363.255 85.651L369.064 96.9984L363.819 113.016V113.007ZM350.797 86.0818L360.411 89.1922L364.304 96.8002L361.01 106.855C360.359 108.863 361.33 111.043 363.272 111.904L368.127 97.0673L362.639 86.3489L351.932 82.8853L350.788 86.0818H350.797Z" fill="white"/>
<path d="M326.183 120.563C315.884 117.229 310.257 106.226 313.612 95.9991C313.63 95.9388 313.647 95.8871 313.673 95.8268L313.924 95.0772L315.364 94.8618L315.832 95.3271C317.115 96.6453 318.701 97.6276 320.453 98.1876C320.947 98.3427 321.424 98.5064 321.9 98.6615C322.351 98.8166 322.785 98.9544 323.218 99.0923C326.131 100.031 328.134 100.462 329.729 99.885C331.697 99.144 333.925 99.8677 335.078 101.617C336.023 103.03 337.896 103.848 340.809 104.788C341.234 104.925 341.667 105.063 342.118 105.201C342.604 105.356 343.089 105.511 343.583 105.666C345.508 106.287 347.563 106.39 349.539 105.951L351.69 105.477C351.69 105.477 350.961 107.941 350.918 108.062C347.554 118.289 336.492 123.881 326.192 120.563H326.183ZM315.598 98.5581C313.673 107.7 319.56 116.66 328.758 118.573C336.648 120.219 344.624 116.126 347.84 108.777C346.115 108.872 344.39 108.647 342.751 108.113C342.266 107.958 341.789 107.803 341.321 107.657C340.835 107.51 340.358 107.355 339.899 107.209C337.176 106.33 334.394 105.279 332.885 103.038C332.391 102.28 331.437 101.979 330.596 102.297C328.047 103.228 325.247 102.47 322.377 101.539C321.952 101.401 321.519 101.264 321.077 101.108C320.583 100.945 320.106 100.79 319.62 100.626C318.173 100.152 316.811 99.4542 315.589 98.5495" fill="#00DCEB"/>
<path d="M326.452 119.745C316.612 116.557 311.228 106.045 314.436 96.2662C314.453 96.2145 314.471 96.1542 314.488 96.1025L314.566 95.8526L315.043 95.7837L315.199 95.9388C316.577 97.3518 318.277 98.403 320.167 99.0061C320.652 99.1612 321.138 99.3163 321.606 99.48C324.892 100.574 327.735 101.522 330.007 100.695C331.602 100.092 333.405 100.678 334.333 102.099C335.677 104.098 338.538 104.994 341.841 106.028C342.318 106.175 342.795 106.33 343.289 106.485C345.361 107.157 347.572 107.26 349.696 106.795L350.415 106.64L350.164 107.476C350.129 107.588 350.103 107.691 350.068 107.794C346.852 117.565 336.284 122.916 326.443 119.745H326.452ZM315.095 97.0244C312.312 106.442 317.739 116.316 327.215 119.073C336.396 121.752 346.072 116.764 349.167 107.769C347.112 108.105 345.005 107.941 343.029 107.303C342.543 107.148 342.066 106.993 341.589 106.847C338.13 105.761 335.131 104.822 333.622 102.573C332.911 101.488 331.533 101.039 330.31 101.505C327.753 102.435 324.788 101.444 321.337 100.299C320.869 100.143 320.392 99.9797 319.907 99.8246C318.121 99.2473 316.482 98.291 315.104 97.033" fill="white"/>
<path d="M344.034 99.7381C341.754 98.9971 340.506 96.5588 341.251 94.2928C341.997 92.0267 344.45 90.786 346.73 91.527C349.011 92.268 350.259 94.6977 349.513 96.9724C348.768 99.2384 346.314 100.479 344.034 99.7467V99.7381ZM345.916 93.9912C344.997 93.6983 344.017 94.1894 343.713 95.1027C343.41 96.016 343.913 96.9896 344.832 97.2911C345.751 97.5927 346.73 97.093 347.034 96.1797C347.329 95.2664 346.835 94.2928 345.916 93.9912Z" fill="#00DCEB"/>
<path d="M344.294 98.92C342.465 98.3254 341.468 96.3782 342.066 94.5602C342.664 92.7423 344.624 91.7514 346.453 92.3459C348.282 92.9404 349.279 94.8876 348.681 96.7056C348.083 98.5236 346.124 99.5145 344.294 98.92ZM346.176 93.1644C344.806 92.725 343.332 93.466 342.881 94.8273C342.43 96.1887 343.185 97.6534 344.554 98.1014C345.924 98.5495 347.398 97.7999 347.849 96.4385C348.291 95.0772 347.545 93.6125 346.176 93.1644Z" fill="white"/>
<path d="M346.548 105.296C344.979 104.787 344.121 103.116 344.632 101.556C345.144 99.997 346.826 99.144 348.395 99.6523C349.964 100.161 350.814 101.832 350.311 103.392C349.8 104.951 348.118 105.804 346.548 105.296V105.296ZM347.589 102.108C347.389 102.039 347.173 102.151 347.103 102.349C347.034 102.547 347.147 102.763 347.346 102.832C347.546 102.901 347.762 102.789 347.832 102.59C347.901 102.384 347.788 102.177 347.589 102.108Z" fill="#00DCEB"/>
<path d="M346.817 104.477C345.707 104.115 345.1 102.926 345.465 101.823C345.829 100.72 347.025 100.117 348.135 100.479C349.245 100.841 349.851 102.03 349.487 103.133C349.123 104.236 347.927 104.839 346.817 104.486V104.477ZM347.857 101.298C347.199 101.082 346.496 101.444 346.28 102.09C346.063 102.745 346.427 103.443 347.077 103.658C347.736 103.874 348.438 103.512 348.655 102.866C348.872 102.211 348.508 101.513 347.857 101.298Z" fill="white"/>
<path d="M327.153 76.7443L326.348 79.2021L350.601 87.0479L351.406 84.59L327.153 76.7443Z" fill="#00DCEB"/>
<path d="M327.709 77.8301L327.44 78.6494L350.045 85.9618L350.314 85.1425L327.709 77.8301Z" fill="white"/>
</g>
<path d="M198.979 52C197.143 52 195.307 51.8032 193.513 51.4157C179.486 48.3449 170.586 34.4997 173.614 20.4577C176.285 8.56232 186.812 0.0834767 199.003 0C213.37 0.0119252 225.012 11.6748 224.994 26.0507C224.994 27.8872 224.797 29.7237 224.41 31.5184C221.757 43.4496 211.2 51.9523 198.985 52H198.979ZM198.89 3.71471C188.41 3.6849 179.355 11.0428 177.244 21.3104C174.592 33.2416 182.115 45.0595 194.043 47.7129C194.127 47.7308 194.216 47.7487 194.3 47.7665C195.879 48.1064 197.483 48.2793 199.098 48.2793C209.495 48.2793 218.425 41.0526 220.809 30.7075C223.42 18.7107 215.814 6.86297 203.82 4.25135L203.748 4.23346C202.157 3.88763 200.529 3.70875 198.896 3.70875" fill="#3A8DFB"/>
<path d="M223.188 31.2503C220.291 44.6065 207.116 53.0913 193.763 50.1935C180.41 47.2957 171.927 34.1183 174.824 20.762C177.721 7.39979 190.896 -1.07906 204.249 1.81878H204.267C217.59 4.75835 226.049 17.9059 223.188 31.2503ZM222.019 30.9939C224.642 18.1862 216.803 5.81373 204.005 3.02322C191.402 0.202906 178.902 8.13915 176.088 20.7441C176.064 20.8455 176.04 20.9469 176.022 21.0482C173.221 33.6532 181.167 46.133 193.769 48.9354C193.859 48.9533 193.948 48.9712 194.031 48.995C206.872 51.7557 219.087 43.7181 222.019 30.9998" fill="white"/>
<path d="M200.237 46.7646C199.683 46.7646 199.122 46.7467 198.562 46.705C195.098 46.5142 191.712 45.6138 188.613 44.0576C182.514 40.9153 179.158 35.8053 178.633 28.8648C178.604 28.3163 178.598 27.7618 178.628 27.2132C178.639 26.8733 178.651 26.5335 178.645 26.1996C178.55 24.9832 179.462 23.9218 180.678 23.8324C180.726 23.8324 180.768 23.8324 180.815 23.8264C181.256 23.7847 181.692 23.743 182.133 23.7012C183.271 23.5879 184.458 23.4687 185.644 23.4448H186.401C190.866 23.4985 195.307 24.0292 199.659 25.0309C205.632 26.3904 210.329 28.0778 214.461 30.3376C214.979 30.6238 215.474 30.9339 215.975 31.2499C216.225 31.4109 216.481 31.5659 216.732 31.7209C217.644 32.2397 218.013 33.3607 217.59 34.3206C215.79 39.1086 212.791 42.6325 208.666 44.785C206.055 46.1207 203.164 46.7944 200.237 46.7587V46.7646ZM189.06 40.0388C192.392 41.9886 196.189 43.0141 200.046 42.9963C200.762 42.9963 201.501 42.9605 202.246 42.8949C200.94 40.8795 198.943 39.6393 196.07 39.0371C195.236 38.8582 194.377 38.7628 193.525 38.7568C191.939 38.733 190.389 39.1742 189.06 40.0388V40.0388ZM193.465 35.0302C194.633 35.0362 195.802 35.1673 196.946 35.4237C201.268 36.3539 204.303 38.5362 205.984 41.9111C208.279 40.9332 210.264 39.3591 211.748 37.3497C202.55 33.4501 192.708 31.3155 182.723 31.0472C183.242 33.4918 184.404 35.7457 186.091 37.5882C188.177 35.8948 190.788 34.9885 193.477 35.0302H193.465ZM183.313 27.3503C193.662 27.6962 203.856 29.95 213.382 33.9987C210.192 32.186 206.794 30.7729 203.259 29.795C198.264 28.2686 193.084 27.398 187.861 27.2013C187.623 27.1953 187.391 27.1953 187.152 27.1953C185.888 27.1953 184.577 27.2788 183.313 27.3563V27.3503Z" fill="#3A8DFB"/>
<path d="M199.39 26.2532C204.428 27.3026 209.298 29.0496 213.858 31.4347C214.621 31.8521 215.343 32.341 216.082 32.7882C216.475 32.985 216.63 33.4679 216.434 33.8615L216.422 33.8794C214.818 38.1486 212.165 41.5473 208.088 43.6759C205.173 45.1428 201.9 45.7629 198.651 45.4528C195.355 45.2739 192.136 44.4153 189.179 42.9425C183.408 39.9672 180.362 35.2031 179.879 28.7694C179.814 27.9108 179.909 27.0343 179.891 26.1697C179.82 25.6331 180.195 25.1441 180.732 25.0726C180.797 25.0666 180.857 25.0607 180.923 25.0666C182.502 24.9295 184.082 24.7148 185.662 24.691C190.288 24.685 194.896 25.2097 199.396 26.2532H199.39ZM213.602 36.8249C204.249 32.4304 191.784 29.7294 181.238 29.795C181.656 33.4322 183.349 36.807 186.013 39.3173C189.083 36.3062 192.779 35.8053 196.684 36.646C200.618 37.4927 203.79 39.4902 205.322 43.509C208.785 42.3344 211.724 39.9672 213.608 36.8249H213.602ZM215.188 33.6826C214.878 33.4799 214.621 33.295 214.353 33.134C210.979 31.1664 207.367 29.6459 203.599 28.6024C198.496 27.0462 193.215 26.1578 187.885 25.961C185.817 25.9073 183.748 26.0981 181.674 26.1995C181.483 26.2114 181.149 26.4082 181.137 26.5453C181.072 27.1893 181.095 27.8452 181.083 28.5607C192.523 28.6323 203.826 31.0829 214.27 35.7576C214.592 35.0302 214.878 34.3743 215.182 33.6826H215.188ZM204.183 43.9264C202.651 40.2653 199.82 38.5541 196.326 37.8266C192.899 37.1111 189.686 37.5344 186.896 40.1759C191.945 43.6402 198.151 44.9877 204.183 43.9323" fill="white"/>
<path d="M189.513 22.777C189.203 22.777 188.887 22.7353 188.589 22.6518C186.592 22.1211 186.049 20.225 185.87 19.6049C185.453 17.989 185.441 16.2956 185.841 14.6738C186.204 12.8671 187.092 11.2036 188.398 9.90372C189.119 9.19416 190.079 8.78274 191.087 8.75293C192.529 8.75293 193.751 9.6831 194.371 11.2393C195.247 13.4574 195.164 15.8306 194.115 18.4839C193.698 19.4618 193.143 20.38 192.47 21.2088C191.784 22.1688 190.693 22.7472 189.513 22.771V22.777ZM190.926 12.5988C190.86 12.6465 190.8 12.7061 190.747 12.7717C189.382 14.483 188.923 16.7428 189.519 18.8476C189.531 18.8834 189.537 18.9192 189.549 18.949C189.596 18.9073 189.644 18.8655 189.686 18.8238C190.401 18.0069 190.872 16.9992 191.027 15.926L191.087 15.6696C191.116 15.5682 191.134 15.4668 191.152 15.3655C191.343 14.4413 191.259 13.4813 190.92 12.6048" fill="#3A8DFB"/>
<path d="M187.063 14.9186C187.373 13.3683 188.13 11.9492 189.244 10.8283C190.735 9.46281 192.475 9.82653 193.215 11.7048C194.061 13.8394 193.775 15.974 192.958 18.0311C192.583 18.9016 192.088 19.7126 191.486 20.4519C190.925 21.2986 189.888 21.6981 188.905 21.4477C187.82 21.1615 187.349 20.2492 187.069 19.2654C186.711 17.8403 186.711 16.3496 187.063 14.9246V14.9186ZM192.255 16.1827C192.314 15.9561 192.362 15.7295 192.398 15.497C192.529 14.2687 192.601 13.0404 191.969 11.9075C191.534 11.1323 190.955 11.0191 190.24 11.5557C190.049 11.6928 189.882 11.8538 189.739 12.0387C188.154 14.054 187.623 16.7134 188.314 19.1819C188.666 20.4758 189.656 20.6666 190.592 19.6887C191.468 18.6989 192.046 17.4825 192.255 16.1827" fill="white"/>
<path d="M210.341 27.4518C209.233 27.4339 208.201 26.8675 207.599 25.9313C206.467 24.2797 206.431 22.4671 206.544 20.9227C206.568 20.565 206.633 20.2013 206.681 19.9091L206.729 19.6587C207.146 17.9534 207.748 16.1407 209.203 14.7216C209.942 13.9286 210.967 13.4635 212.052 13.4277C213.537 13.4277 214.782 14.4295 215.385 16.099C216.291 18.6212 216.046 21.2507 214.639 24.1426C214.109 25.3291 213.215 26.3249 212.088 26.9748C211.557 27.2789 210.961 27.4459 210.347 27.4518H210.341ZM211.796 17.3511C210.347 19.0386 209.841 21.3342 210.449 23.4747C210.455 23.5046 210.467 23.5403 210.472 23.5642C210.574 23.4986 210.669 23.4211 210.753 23.3376C211.402 22.6936 211.718 21.7635 212.076 20.2728C212.273 19.3427 212.243 18.3827 211.975 17.4704C211.945 17.3929 211.915 17.3213 211.879 17.2498C211.85 17.2796 211.82 17.3094 211.796 17.3452" fill="#3A8DFB"/>
<path d="M207.957 19.8437C208.368 18.1801 208.911 16.7431 210.067 15.6162C211.641 14.0838 213.453 14.4475 214.198 16.5225C215.074 18.9672 214.61 21.3284 213.507 23.5942C213.083 24.5542 212.368 25.3532 211.468 25.8898C210.52 26.492 209.256 26.2177 208.654 25.2637C208.648 25.2518 208.636 25.2399 208.63 25.228C207.748 23.946 207.683 22.4971 207.79 21.0183C207.82 20.5771 207.915 20.1359 207.957 19.8437V19.8437ZM213.28 20.5711C213.531 19.4084 213.483 18.1921 213.137 17.0532C212.654 15.7295 211.706 15.485 210.818 16.5702C209.125 18.5617 208.523 21.2628 209.221 23.785C209.358 24.3455 209.644 24.9596 210.228 24.9537C210.759 24.8821 211.247 24.6317 211.617 24.2382C212.511 23.3438 212.893 22.1572 213.274 20.5771" fill="white"/>
<path d="M57.803 91.7497C40.6807 95.5332 25.0454 90.8952 22.951 81.4167C20.8567 71.9382 33.0922 61.1527 50.2136 57.3765C67.3358 53.5929 82.9712 58.231 85.0655 67.7095C87.1598 77.188 74.9252 87.9661 57.803 91.7497V91.7497ZM50.79 59.9803C35.0992 63.446 23.7768 72.8079 25.5467 80.8468C27.3232 88.8938 41.5349 92.6188 57.2257 89.1531C72.9165 85.6874 84.2463 76.3264 82.469 68.2867C80.6917 60.247 66.4808 56.5147 50.79 59.9803" fill="#FF74EC"/>
<path d="M57.6136 90.8818C40.9639 94.5564 25.8052 90.2255 23.819 81.2268C21.8328 72.2282 33.7612 61.9194 50.4109 58.2448C67.0606 54.5702 82.2192 58.9012 84.2054 67.8998C86.1917 76.8985 74.2632 87.2072 57.6136 90.8818ZM50.6006 59.1125C34.4308 62.679 22.8012 72.5176 24.6867 81.0371C26.5647 89.5559 41.2532 93.588 57.4238 90.0142C73.5936 86.4477 85.2232 76.6091 83.3378 68.0895C81.4524 59.57 66.7712 55.5387 50.6014 59.1052" fill="white"/>
<path d="M57.803 91.7497C40.6807 95.5332 25.0454 90.8952 22.951 81.4167C20.8567 71.9382 33.0922 61.1527 50.2136 57.3765C67.3358 53.5929 82.9712 58.231 85.0655 67.7095C87.1598 77.188 74.9252 87.9661 57.803 91.7497V91.7497ZM50.79 59.9803C35.0992 63.446 23.7768 72.8079 25.5467 80.8468C27.3232 88.8938 41.5349 92.6188 57.2257 89.1531C72.9165 85.6874 84.2463 76.3264 82.469 68.2867C80.6917 60.247 66.4808 56.5147 50.79 59.9803" fill="#FF74EC"/>
<path d="M57.6136 90.8818C40.9639 94.5564 25.8052 90.2255 23.819 81.2268C21.8328 72.2282 33.7612 61.9194 50.4109 58.2448C67.0606 54.5702 82.2192 58.9012 84.2054 67.8998C86.1917 76.8985 74.2632 87.2072 57.6136 90.8818ZM50.6006 59.1125C34.4308 62.679 22.8012 72.5176 24.6867 81.0371C26.5647 89.5559 41.2532 93.588 57.4238 90.0142C73.5936 86.4477 85.2232 76.6091 83.3378 68.0895C81.4524 59.57 66.7712 55.5387 50.6014 59.1052" fill="white"/>
<path d="M56.8769 87.5399C49.5908 89.1515 42.1475 89.031 36.4632 87.2279C31.7529 85.7296 28.5706 83.138 27.9471 80.2987C27.289 77.3071 29.324 73.4153 33.4025 69.8845C37.8265 66.0594 44.1252 63.0952 51.1441 61.5494C58.4302 59.9378 65.8734 60.0583 71.5578 61.8614C76.268 63.3597 79.4503 65.9512 80.0739 68.7905C80.7319 71.7822 78.6969 75.674 74.6184 79.2048C70.1936 83.0372 63.8957 85.994 56.8769 87.5399V87.5399ZM51.714 64.1451C37.6071 67.2585 29.6309 75.5875 30.5436 79.7215C30.9583 81.6018 33.5375 83.5008 37.2745 84.687C42.5287 86.3591 49.4632 86.4508 56.3077 84.9369C70.4147 81.8235 78.3908 73.4944 77.4782 69.3605C77.0635 67.4801 74.4843 65.5811 70.7546 64.3958C65.5004 62.7237 58.5585 62.6312 51.7214 64.1459" fill="#FF74EC"/>
<path d="M56.6864 86.6797C49.5453 88.256 42.2713 88.1475 36.7309 86.3832C32.328 84.987 29.3704 82.6364 28.8075 80.1083C28.2166 77.436 30.1478 73.8663 33.978 70.5592C38.295 66.8257 44.4519 63.9343 51.3265 62.4164C58.4676 60.8401 65.7416 60.9485 71.282 62.7128C75.6849 64.109 78.6426 66.4596 79.2054 68.9877C79.7963 71.66 77.8651 75.2298 74.0349 78.5369C69.7179 82.2704 63.5537 85.1609 56.6864 86.6797V86.6797ZM51.5236 63.2849C36.6703 66.5648 28.6592 75.3276 29.6752 79.9186C30.1627 82.1339 32.9039 84.237 36.9987 85.5384C42.4033 87.2574 49.508 87.3539 56.4967 85.812C71.3499 82.5321 79.3537 73.7684 78.3378 69.1774C77.8502 66.9622 75.109 64.8591 71.0143 63.5576C65.617 61.8394 58.5131 61.7357 51.5236 63.2849" fill="white"/>
<path d="M82.1392 57.8533C81.736 57.9405 81.3168 57.9072 80.9332 57.7593C77.0957 56.2203 73.2965 54.4779 69.6176 52.7865C67.8346 51.9658 66.0727 51.1549 64.3084 50.3661C63.8705 50.108 63.3672 49.9686 62.8568 49.9545C62.7501 49.9793 62.6473 50.0343 62.5648 50.1064C61.763 50.7563 60.8284 51.2055 59.8295 51.4394C58.0823 51.7284 56.2881 51.5223 54.6519 50.8446C51.942 49.9546 49.4925 48.4118 47.5171 46.3595C46.3998 45.1701 45.0131 43.2894 45.843 40.7803C46.7198 38.1208 49.2936 37.5483 50.1384 37.3634C50.2607 37.3329 50.3894 37.3106 50.5034 37.2866C56.0624 36.2409 60.1312 37.9623 62.5902 42.3925C63.6599 44.5782 65.5922 45.5199 67.514 46.2304C70.6609 47.3858 73.8262 48.6399 76.8841 49.8593C78.722 50.5898 80.5103 51.2998 82.3002 51.9952C83.3344 52.3588 84.0848 53.2538 84.2575 54.3347C84.4217 55.4888 83.9778 56.6399 83.0828 57.3904C82.8052 57.6108 82.4823 57.774 82.1319 57.8525L82.1392 57.8533ZM70.6979 50.3581C74.2289 51.9806 77.8794 53.6614 81.5453 55.1436C81.6117 55.0176 81.6423 54.8802 81.6282 54.745C81.6203 54.6847 81.6011 54.5935 81.3385 54.4891C79.5623 53.8028 77.7887 53.0944 76.0216 52.3943C73.9423 51.5693 71.8427 50.727 69.7389 49.9214C70.0632 50.07 70.3801 50.2177 70.7044 50.3663L70.6979 50.3581ZM50.7011 39.9583C48.9958 40.3337 48.5627 41.0037 48.3602 41.6037C48.1001 42.3826 48.1867 43.1791 49.4492 44.5261C51.1408 46.2713 53.2248 47.5717 55.5347 48.3268C56.701 48.8318 57.9792 49.0083 59.2384 48.8339C59.8478 48.6961 60.4147 48.4125 60.8981 48.0154C61.2998 47.6832 61.7712 47.4554 62.282 47.336C62.7228 47.2456 63.1762 47.2383 63.6123 47.3181C62.1486 46.4302 60.9755 45.1454 60.2241 43.6121C58.3545 40.2513 55.4129 39.0526 50.9838 39.8869C50.8852 39.9052 50.7867 39.9236 50.6954 39.9428" fill="#FF74EC"/>
<path d="M81.9494 56.9857C81.7204 57.041 81.4852 57.0214 81.2658 56.9294C77.4422 55.3995 73.6438 53.6498 69.9648 51.9583C68.203 51.1475 66.4338 50.3358 64.6694 49.5469C63.5755 49.0577 62.7983 48.7829 62.0145 49.4052C59.6459 51.2923 57.1162 50.7717 54.9487 50.0033C52.3746 49.1585 50.0421 47.6959 48.1664 45.7442C47.1221 44.6299 46.0076 43.0921 46.6868 41.0554C47.3603 39.0032 49.2967 38.4243 50.6775 38.16C55.8878 37.1781 59.534 38.7025 61.8135 42.8228C63.01 45.2605 65.2097 46.3294 67.2104 47.0637C70.3646 48.22 73.5437 49.4831 76.6089 50.7033C78.3972 51.4133 80.1855 52.1233 81.9828 52.8195C82.7194 53.06 83.2616 53.701 83.3817 54.4642C83.4934 55.3007 83.1744 56.1396 82.5325 56.6891C82.3611 56.8252 82.1564 56.9279 81.9429 56.9775L81.9494 56.9857ZM62.4789 48.2045C63.3658 48.1061 64.2573 48.2901 65.0298 48.735C66.8015 49.5247 68.5707 50.3364 70.3326 51.1473C73.9977 52.8297 77.7896 54.5712 81.5912 56.0987C81.7287 56.1293 81.8811 56.0949 81.9824 55.9878C82.372 55.6319 82.5653 55.1124 82.507 54.5863C82.433 54.1326 82.1038 53.7683 81.6663 53.6365C79.8691 52.9403 78.0734 52.2294 76.2852 51.5194C73.2199 50.2992 70.0555 49.0378 66.9077 47.8897C64.7428 47.0993 62.3547 45.9272 61.0256 43.222C58.9604 39.4974 55.6238 38.1198 50.8306 39.0235C48.9578 39.3722 47.9261 40.0848 47.5161 41.3288C47.1044 42.5874 47.4852 43.7293 48.8004 45.1344C50.5844 46.9791 52.7927 48.3606 55.2384 49.161C57.27 49.8841 59.4232 50.3244 61.4562 48.7103C61.7518 48.4623 62.1049 48.2951 62.4789 48.2045" fill="white"/>
<path d="M18.2255 80.8297C16.9598 80.9959 15.6949 80.5093 14.8723 79.5318C14.3366 78.8989 14.1925 78.0216 14.4892 77.2469C16.3363 72.6658 18.1082 68.8032 19.9867 64.7228L20.0869 64.4969C20.869 62.7911 21.67 61.0504 22.5073 59.1877L30.9421 40.4713L32.2542 41.3863C33.6259 42.4937 34.5023 44.1006 34.6871 45.8507C35.2693 49.7611 33.3311 54.5544 28.939 60.1046C28.5939 60.525 28.1952 60.8947 27.7439 61.2064C27.6386 61.2834 27.5519 61.3921 27.5075 61.5206C26.3404 64.5104 25.1733 67.5001 23.9916 70.4882C22.9134 73.221 21.8417 75.962 20.7708 78.6957C20.4055 79.7445 19.5274 80.5414 18.4381 80.7873C18.3696 80.8017 18.2931 80.8226 18.2181 80.8288L18.2255 80.8297ZM17.0476 77.9712C17.2651 78.1446 17.5457 78.2213 17.816 78.193L17.8453 78.1964C17.9757 78.1594 18.1461 78.0974 18.2932 77.721C19.3131 75.1076 20.3404 72.4951 21.3677 69.8825L21.7039 69.0233C22.815 66.1978 23.9261 63.3723 25.0307 60.5386C25.2633 59.9346 25.6641 59.4167 26.1825 59.0385C26.4322 58.8669 26.6552 58.6699 26.8522 58.4402C31.713 52.2984 32.3648 48.4332 32.057 46.2683C32.0064 45.8692 31.9028 45.4789 31.7601 45.1064L24.9218 60.259C24.0632 62.1786 23.2335 63.9754 22.4308 65.7307L22.3906 65.8226C20.5613 69.7973 18.8305 73.5608 17.0484 77.9639" fill="#FF74EC"/>
<path d="M18.2547 79.9275C18.2017 79.9362 18.148 79.9523 18.0877 79.9602C17.1389 80.0812 16.1935 79.7204 15.5653 78.9878C15.224 78.5999 15.13 78.0622 15.3043 77.5777C17.1415 73.0177 18.9126 69.1624 20.7911 65.082C21.611 63.3064 22.4432 61.4876 23.3125 59.5396L31.3147 41.8123L31.7548 42.1152C32.9202 43.0801 33.6655 44.4716 33.8187 45.9807C34.3635 49.6345 32.4889 54.1977 28.253 59.5506C27.9594 59.9101 27.6196 60.2198 27.2409 60.4806C26.9977 60.6604 26.8063 60.9055 26.6994 61.19C25.5323 64.1798 24.3652 67.1695 23.1835 70.1576C22.1053 72.8904 21.0336 75.6315 19.9627 78.3651C19.7026 79.144 19.0565 79.7302 18.2637 79.9137L18.2547 79.9275ZM31.6497 43.2235L24.1236 59.9073C23.2469 61.8545 22.4147 63.6732 21.5949 65.4489C19.7245 69.5228 17.9543 73.3708 16.1269 77.9097C16.0758 78.0967 16.1271 78.2955 16.2593 78.4368C16.6865 78.9163 17.3189 79.1596 17.9518 79.0765C18.504 78.9841 18.9573 78.591 19.1156 78.0526C20.1873 75.3116 21.2582 72.578 22.3373 69.8378C23.5117 66.8489 24.6852 63.8673 25.8523 60.8775C26.0216 60.437 26.3186 60.0481 26.6989 59.7728C27.0132 59.5566 27.295 59.2996 27.5435 59.0091C32.5957 52.6221 33.2623 48.4989 32.9299 46.1605C32.802 45.0773 32.3557 44.054 31.6415 43.23" fill="white"/>
<path d="M7.99383 281.264C5.42251 280.192 4.20475 277.234 5.26938 274.655L5.34004 274.478C3.60472 273.257 2.82027 271.085 3.36775 269.038L3.87828 267.113C3.05242 266.7 2.3959 266.005 2.02009 265.159C1.56277 264.043 1.46278 262.81 1.73605 261.626L7.08538 234.493C7.62529 231.757 10.2803 229.977 13.0171 230.51L59.5462 239.665C60.8643 239.921 62.0179 240.693 62.7647 241.807C63.5116 242.921 63.7932 244.287 63.5298 245.597L62.4781 250.969L62.5093 250.971C62.7331 251.036 62.9488 251.108 63.1638 251.196C65.4889 252.179 66.7334 254.723 66.0822 257.157L64.43 263.856L66.2876 264.629C68.8585 265.709 70.0766 268.659 69.012 271.238L58.3701 296.767C57.2981 299.339 54.3403 300.557 51.7608 299.492L7.99383 281.264ZM21.3253 249.272C20.3352 248.859 19.195 249.331 18.7742 250.321L8.14011 275.85C7.72712 276.84 8.19898 277.98 9.18912 278.393L52.9632 296.637C53.9537 297.042 55.0935 296.578 55.5065 295.588L66.1484 270.059C66.5614 269.069 66.0895 267.929 65.0994 267.516L21.3253 249.272ZM61.9607 254.067C61.8763 254.031 61.7915 254.004 61.7064 253.985L15.8975 241.741C14.8619 241.467 13.7933 242.083 13.5112 243.118L6.3738 269.84C6.24128 270.342 6.311 270.87 6.57198 271.32C6.58617 271.352 6.60851 271.376 6.6305 271.408L15.9194 249.118C16.9993 246.547 19.9493 245.329 22.5288 246.394L61.544 262.652L63.0904 256.387C63.3607 255.437 62.8746 254.437 61.9689 254.059L61.9607 254.067ZM59.3312 242.823C59.2084 242.771 59.085 242.734 58.953 242.712L12.4239 233.556C11.3694 233.352 10.3448 234.032 10.1398 235.095L4.79042 262.227C4.68204 262.715 4.68257 263.215 4.79346 263.698L10.513 242.316C11.2388 239.619 14.003 238.017 16.7001 238.735L59.4645 250.159L60.4832 244.996C60.6656 244.089 60.183 243.183 59.3234 242.823" fill="#5329CA"/>
<path d="M65.8913 265.597L22.1169 247.361C20.0674 246.508 17.7154 247.48 16.8631 249.522L7.05538 273.063C5.70552 272.477 4.99144 270.989 5.37726 269.568L12.5065 242.853C12.9314 241.261 14.5625 240.319 16.1548 240.736L61.964 252.972C63.5559 253.397 64.5055 255.036 64.0806 256.628L62.2745 263.953L63.28 264.202L65.0853 256.893C65.6605 254.753 64.3925 252.551 62.2521 251.976L62.2365 251.975L61.2708 251.712L62.5148 245.386C62.9431 243.208 61.5303 241.094 59.3518 240.665L12.822 231.526C10.6436 231.097 8.52912 232.518 8.10117 234.689L2.75929 261.829C2.52726 262.796 2.60603 263.809 2.9701 264.741C3.27429 265.443 3.83541 266.001 4.54955 266.292C4.73403 266.363 4.93447 266.427 5.12819 266.467L4.36436 269.31C3.84602 271.234 4.81786 273.242 6.64346 274.03L6.21343 275.05C5.36081 277.1 6.33254 279.452 8.382 280.304L52.1561 298.548C54.2055 299.401 56.5576 298.429 57.4098 296.387L68.0517 270.858C68.9043 268.809 67.9326 266.457 65.8909 265.605L65.8913 265.597ZM3.92044 264.315C3.6411 263.583 3.59135 262.79 3.77505 262.024L9.11657 234.891C9.43292 233.279 10.9987 232.224 12.619 232.541L59.1482 241.696C60.7607 242.013 61.8154 243.579 61.4987 245.199L60.2657 251.455L16.4272 239.74C14.2865 239.172 12.0851 240.44 11.51 242.581L5.40139 265.454C4.74928 265.346 4.19024 264.914 3.9208 264.307L3.92044 264.315ZM56.4587 295.976C55.8259 297.496 54.08 298.214 52.5602 297.581L8.7854 279.353C7.2656 278.72 6.54771 276.974 7.18051 275.454L17.8227 249.918C18.4555 248.398 20.2015 247.68 21.7213 248.313L65.4953 266.556C67.0151 267.189 67.733 268.935 67.1002 270.455L56.4584 295.984L56.4587 295.976Z" fill="white"/>
<path d="M14.4423 270.191L13.249 273.054L32.81 281.206L34.0032 278.342L14.4423 270.191Z" fill="#5329CA"/>
<path d="M15.0047 271.543L14.605 272.502L32.2546 279.857L32.6543 278.898L15.0047 271.543Z" fill="white"/>
<path d="M12.8732 273.961L11.6799 276.825L23.7036 281.835L24.8968 278.972L12.8732 273.961Z" fill="#5329CA"/>
<path d="M13.4315 275.303L13.0317 276.262L23.144 280.476L23.5438 279.517L13.4315 275.303Z" fill="white"/>
<path d="M18.6725 258.686L30.4393 263.589L26.5114 273.007L14.7447 268.104L18.6725 258.686V258.686ZM26.381 265.265L20.348 262.752L18.8185 266.428L24.8516 268.942L26.381 265.265Z" fill="#5329CA"/>
<path d="M29.0919 264.146L19.2366 260.034L16.1085 267.532L25.9638 271.645L29.0919 264.146V264.146ZM25.4075 270.297L17.4633 266.984L19.7925 261.389L27.7367 264.702L25.4075 270.297Z" fill="white"/>
<path d="M46.4194 292.466C42.8349 290.972 41.1382 286.858 42.6325 283.265C44.1268 279.673 48.2404 277.984 51.8327 279.478C55.425 280.973 57.1139 285.086 55.6196 288.679C54.1257 292.263 50.0121 293.952 46.4194 292.466V292.466ZM50.6374 282.349C48.6341 281.514 46.3377 282.465 45.5032 284.461C44.6687 286.456 45.6192 288.76 47.6147 289.595C49.6102 290.429 51.9144 289.479 52.7489 287.483C53.5837 285.48 52.6329 283.184 50.6374 282.349" fill="#5329CA"/>
<path d="M51.4363 280.446C48.3815 279.171 44.8658 280.614 43.5991 283.677C42.3325 286.74 43.7675 290.248 46.8306 291.514C49.8936 292.781 53.401 291.346 54.6677 288.283C55.934 285.228 54.4912 281.72 51.4363 280.446ZM47.2183 290.562C44.6931 289.508 43.4963 286.606 44.551 284.073C45.6053 281.547 48.5074 280.351 51.0404 281.405C53.5656 282.46 54.7624 285.362 53.7077 287.895C52.6534 290.42 49.7513 291.617 47.2183 290.562" fill="white"/>
<defs>
<clipPath id="clip0_306_4254">
<rect width="184" height="246" fill="white" transform="translate(82 75)"/>
</clipPath>
<clipPath id="clip1_306_4254">
<rect width="61" height="64" fill="white" transform="translate(309 62)"/>
</clipPath>
</defs>
</svg>
