<svg width="83" height="90" viewBox="0 0 83 90" fill="none" xmlns="http://www.w3.org/2000/svg">
<g clip-path="url(#clip0_12_1497)">
<path d="M48.28 89.89C47.21 89.89 46.15 89.66 45.18 89.21L40.28 86.96L40.33 86.85C39.85 86.72 39.38 86.55 38.92 86.34L7.74 72.01C3.26 69.94 1.3 64.64 3.35 60.16L12.91 39.36L0 11.19L6.16 8.36L16.65 31.22L28.61 5.2C30.08 2.03 33.25 0 36.74 0C38.03 0 39.29 0.28 40.46 0.82L71.64 15.15C71.8 15.22 71.96 15.3 72.12 15.39V15.37L77.9 18.02C79.83 18.91 81.29 20.58 81.92 22.61C82.59 24.69 82.45 26.95 81.52 28.93L55.8 84.86C54.91 86.84 53.3 88.41 51.3 89.27C50.34 89.68 49.31 89.89 48.27 89.89H48.28ZM46.56 86.26C47.1 86.5 47.68 86.63 48.27 86.63C48.88 86.63 49.48 86.5 50.04 86.26C51.29 85.73 52.29 84.74 52.84 83.5L78.55 27.57C79.78 25.2 78.89 22.28 76.55 21.01C77.08 23.01 76.89 25.13 76.02 27.01L74.31 30.73C74.25 31.13 74.14 31.52 73.97 31.88L55.92 71.15C55.75 71.52 55.53 71.85 55.26 72.16L50.76 81.95C49.9 83.83 48.41 85.36 46.54 86.26H46.56ZM6.32 61.51C5.02 64.36 6.26 67.72 9.11 69.04L40.29 83.38C43.14 84.69 46.51 83.44 47.81 80.6L50.99 73.69C50.65 73.62 50.31 73.51 49.99 73.36L10.67 55.27C10.26 55.08 9.87 54.83 9.54 54.52L6.33 61.51H6.32ZM11.43 50.69C11.15 51.3 11.42 52.03 12.03 52.31L51.36 70.39C51.52 70.46 51.69 70.5 51.87 70.5C52.02 70.5 52.16 70.47 52.3 70.42C52.39 70.39 52.48 70.34 52.56 70.28L71.14 29.87C71.13 29.77 71.11 29.68 71.07 29.58C70.96 29.28 70.73 29.03 70.43 28.9L31.1 10.82C30.94 10.75 30.77 10.71 30.59 10.71C30.11 10.71 29.68 10.99 29.48 11.42L18.51 35.28L22.78 44.59L22.52 52.48L16.55 47.25L14.78 43.4L11.43 50.68V50.69ZM19.49 45.56V45.25L16.72 39.19L16.58 39.49L19.29 45.38L19.5 45.56H19.49ZM14.72 35.44L14.86 35.14L4.56 12.69L4.33 12.79L14.72 35.43V35.44ZM31.16 7.48C31.61 7.53 32.05 7.66 32.47 7.85L71.8 25.93C72.12 26.08 72.42 26.26 72.7 26.48L73.09 25.64C74.4 22.79 73.15 19.42 70.3 18.11L39.1 3.78C36.25 2.47 32.89 3.72 31.58 6.56L31.16 7.48Z" fill="#FF74EC"/>
<path d="M77.5 18.8901L72.6 16.6401L72.54 16.7701C72.14 16.4801 71.7 16.2301 71.25 16.0201L40.07 1.68013C36.06 -0.149869 31.33 1.60013 29.48 5.60013L16.66 33.5001L5.70001 9.63013L1.26001 11.6601L13.96 39.3401L4.22001 60.5401C2.39001 64.5501 4.14001 69.2801 8.15001 71.1301L39.33 85.4601C40.08 85.8101 40.89 86.0301 41.71 86.1301L41.55 86.4801L45.58 88.3301C46.43 88.7201 47.35 88.9201 48.29 88.9201C49.2 88.9201 50.11 88.7301 50.95 88.3801C52.73 87.6201 54.16 86.2201 54.96 84.4501L80.67 28.5201C82.45 24.9801 81.04 20.6801 77.51 18.8801L77.5 18.8901ZM34.43 2.72013C36.08 2.11013 37.9 2.18013 39.5 2.91013L70.68 17.2501C74 18.7801 75.46 22.7101 73.93 26.0401L72.94 28.2001C72.58 27.5901 72.04 27.1001 71.39 26.8001L32.07 8.72013C31.3 8.37013 30.43 8.31013 29.62 8.55013L30.71 6.17013C31.44 4.57013 32.78 3.33013 34.43 2.72013ZM52.61 71.3101C52.07 71.5101 51.47 71.4901 50.95 71.2501L11.63 53.1701C10.54 52.6701 10.06 51.3801 10.56 50.2901L14.78 41.1201L17.33 46.6701L21.64 50.4401L21.83 44.7801L17.46 35.2701L28.62 11.0201C29.12 9.93013 30.41 9.45013 31.5 9.95013L70.82 28.0301C71.61 28.3901 72.11 29.1901 72.08 30.0601L53.32 70.8801C53.12 71.0701 52.88 71.2101 52.62 71.3101H52.61ZM16.72 36.9101L20.46 45.0601L20.38 47.5701L18.51 45.9701L15.54 39.4901L16.73 36.9001L16.72 36.9101ZM3.06001 12.3301L5.02001 11.4301L15.9 35.1301L14.71 37.7101L3.06001 12.3301ZM8.71001 69.9001C5.39001 68.3701 3.93001 64.4401 5.45001 61.1101L9.34001 52.6601C9.68001 53.4301 10.3 54.0501 11.06 54.4001L50.39 72.4801C50.85 72.6901 51.35 72.8101 51.86 72.8101C52.06 72.8101 52.26 72.7901 52.46 72.7601L48.68 80.9901C47.15 84.3201 43.22 85.7701 39.89 84.2501L8.71001 69.9101V69.9001ZM79.42 27.9601L53.71 83.8901C53.06 85.3501 51.88 86.5001 50.41 87.1301C49.04 87.7201 47.49 87.7101 46.13 87.1001L43.93 86.0901C44.44 86.0101 44.94 85.8801 45.43 85.7001C47.42 84.9701 49.03 83.4701 49.91 81.5501L54.47 71.6301C54.71 71.3701 54.92 71.0701 55.07 70.7501L73.12 31.4801C73.27 31.1501 73.36 30.8101 73.4 30.4501L75.17 26.6101C76.06 24.6901 76.15 22.4901 75.4 20.5001C75.22 20.0201 75 19.5501 74.73 19.1101L76.93 20.1201C79.77 21.6001 80.89 25.1001 79.42 27.9601Z" fill="white"/>
<path d="M26.14 75.2502C23.01 75.2502 20.48 72.7002 20.48 69.5702C20.48 68.7602 20.66 67.9502 21 67.2102C21.93 65.2002 23.94 63.9102 26.16 63.9102C29.29 63.9102 31.82 66.4602 31.82 69.5902C31.82 70.4002 31.64 71.2102 31.3 71.9502C30.37 73.9602 28.36 75.2502 26.14 75.2502ZM26.15 67.1802C25.86 67.1802 25.58 67.2302 25.31 67.3302C24.06 67.7802 23.41 69.1502 23.86 70.4002C24.21 71.3602 25.12 72.0002 26.14 71.9902C26.43 71.9902 26.71 71.9402 26.98 71.8402C28.23 71.3802 28.86 69.9902 28.4 68.7502C28.05 67.8102 27.15 67.1802 26.15 67.1802Z" fill="#FF74EC"/>
<path d="M28.12 65.2899C25.75 64.1999 22.95 65.2399 21.86 67.5999C20.77 69.9699 21.81 72.7699 24.17 73.8599C26.54 74.9499 29.34 73.9099 30.43 71.5499C31.51 69.1799 30.48 66.3799 28.11 65.2899H28.12ZM29.19 70.9799C28.42 72.6599 26.42 73.3999 24.74 72.6299C23.06 71.8599 22.32 69.8599 23.09 68.1799C23.46 67.3699 24.14 66.7399 24.97 66.4399C25.34 66.2999 25.74 66.2299 26.14 66.2299C28 66.2299 29.5 67.7399 29.49 69.5999C29.49 70.0799 29.38 70.5499 29.19 70.9899" fill="white"/>
<path d="M40.99 58.56C40.5 58.56 40.01 58.45 39.57 58.23C38.31 57.53 37.43 56.31 37.16 54.9C37.1 54.67 37.04 54.45 36.98 54.22C36.89 53.81 36.77 53.41 36.63 53.02C36 53.25 35.38 53.51 34.78 53.8C33.36 54.59 31.78 55.06 30.16 55.15H29.87C28.27 55.06 26.77 54.37 25.66 53.22C24.39 53.76 23.02 54.03 21.64 54.01C20.48 54.01 19.33 53.85 18.21 53.57L17.28 53.34L18.08 50.17L19 50.4C19.87 50.62 20.76 50.74 21.65 50.75C22.46 50.76 23.27 50.63 24.04 50.36C23.42 47.73 24.67 45.03 27.07 43.8L28.49 43.02L29.28 44.43C30.46 46.68 30.09 49.43 28.34 51.28C28.81 51.65 29.39 51.86 29.99 51.89H30C31.16 51.81 32.28 51.47 33.29 50.9C34.21 50.44 35.16 50.06 36.14 49.77C36.43 49.69 36.73 49.64 37.03 49.64C37.32 49.64 37.61 49.69 37.88 49.79C38.41 50.01 38.86 50.38 39.15 50.87C39.63 51.66 39.96 52.53 40.14 53.43C40.19 53.64 40.24 53.84 40.29 54.03C40.38 54.46 40.58 54.87 40.86 55.2L40.88 54.74L44.14 54.87L44.1 55.82C44.06 56.77 43.53 57.63 42.7 58.09C42.18 58.4 41.58 58.57 40.97 58.56" fill="#FF74EC"/>
<path d="M41.5399 56.1C41.2499 56.27 40.8999 56.29 40.5899 56.16C39.9399 55.73 39.4999 55.05 39.3799 54.28C39.3199 54.08 39.2699 53.87 39.2199 53.67C39.0699 52.87 38.7799 52.09 38.3599 51.39C38.1699 51.07 37.8899 50.82 37.5499 50.68C37.1699 50.56 36.7699 50.56 36.3899 50.68C35.4899 50.95 34.6199 51.3 33.7799 51.71C32.6099 52.39 31.2999 52.77 29.9499 52.83C28.7799 52.76 27.6999 52.19 26.9899 51.26C28.9499 49.77 29.5699 47.08 28.4499 44.88L28.1199 44.29L27.5299 44.61C25.5099 45.63 24.4499 47.9 24.9699 50.11C25.0299 50.36 25.1099 50.61 25.2099 50.85C22.9799 52.09 20.2399 51.67 18.7699 51.31L18.4399 52.63C20.9099 53.38 23.5699 53.16 25.8899 52.03C26.8499 53.3 28.3099 54.09 29.8999 54.18C31.4699 54.14 32.9999 53.71 34.3599 52.93C35.1299 52.55 35.9299 52.23 36.7499 51.97C36.9799 51.91 37.0499 51.91 37.0699 51.92C37.0699 51.92 37.1199 51.95 37.2299 52.11C37.5599 52.69 37.7899 53.31 37.9099 53.97C37.9599 54.19 38.0199 54.41 38.0799 54.62C38.2899 55.77 38.9899 56.77 39.9999 57.36C40.3099 57.51 40.6499 57.59 40.9999 57.59C41.4399 57.59 41.8699 57.47 42.2499 57.25C42.7999 56.95 43.1499 56.39 43.1799 55.76L41.8199 55.71C41.7999 55.87 41.6999 56.01 41.5499 56.08L41.5399 56.1ZM26.3599 49.99C26.3399 49.92 26.3199 49.86 26.3099 49.79C25.9999 48.45 26.4899 47.06 27.5799 46.22C27.8999 47.6 27.4299 49.05 26.3699 49.99" fill="white"/>
</g>
<defs>
<clipPath id="clip0_12_1497">
<rect width="82.34" height="89.89" fill="white"/>
</clipPath>
</defs>
</svg>
