<svg width="475" height="464" viewBox="0 0 475 464" fill="none" xmlns="http://www.w3.org/2000/svg">
<path d="M237.5 464C368.668 464 475 360.13 475 232C475 103.87 368.668 0 237.5 0C106.332 0 0 103.87 0 232C0 360.13 106.332 464 237.5 464Z" fill="url(#paint0_radial_363_2891)"/>
<path d="M131.17 210.704C131.863 209.858 131.455 208.378 130.258 207.398C129.062 206.419 127.53 206.31 126.838 207.156C126.145 208.003 126.553 209.483 127.75 210.462C128.946 211.442 130.478 211.55 131.17 210.704Z" fill="#AADBEC"/>
<path d="M124.674 219.099C125.367 218.253 124.959 216.773 123.762 215.793C122.566 214.813 121.034 214.705 120.341 215.551C119.649 216.397 120.057 217.877 121.253 218.857C122.45 219.837 123.981 219.945 124.674 219.099Z" fill="#AADBEC"/>
<path d="M122.666 230.465C124.251 230.45 125.528 229.574 125.518 228.508C125.508 227.442 124.215 226.59 122.63 226.605C121.045 226.62 119.768 227.496 119.778 228.562C119.788 229.628 121.081 230.48 122.666 230.465Z" fill="#AADBEC"/>
<path d="M149.03 232.29C149.03 232.29 156.03 252.94 177.84 258.86C177.84 258.86 176.75 261.16 177.19 265.55C177.19 265.55 155.89 262.72 141.42 235.98L149.03 232.29Z" fill="#253273"/>
<path d="M139.978 207.051C141.105 207.036 142.001 205.81 141.981 204.313C141.961 202.817 141.031 201.616 139.904 201.631C138.778 201.647 137.881 202.872 137.901 204.369C137.922 205.865 138.852 207.066 139.978 207.051Z" fill="#AADBEC"/>
<path d="M149.03 232.3L148.92 223.32L142.94 216.43L129.22 226.66L134.19 234.17L141.42 235.99L149.03 232.3Z" fill="#D3002A"/>
<path d="M179.91 267.07H179.96C180.723 267.081 181.459 266.789 182.008 266.259C182.557 265.729 182.874 265.003 182.89 264.24V260.79C182.854 260.028 182.518 259.311 181.957 258.794C181.395 258.277 180.653 258.003 179.89 258.03V258.03C179.127 258.019 178.391 258.311 177.842 258.841C177.293 259.371 176.976 260.097 176.96 260.86V264.3C176.996 265.054 177.324 265.765 177.875 266.282C178.425 266.799 179.155 267.081 179.91 267.07V267.07Z" fill="#AADBEC"/>
<path d="M173.66 157.95L191.54 149.73C196.68 147.19 198.9 146.14 202.7 146.47L298.99 151.47C306.59 152.13 312.24 158.52 311.55 165.69L308.81 231.8C308.81 231.8 311.09 244.65 298.24 246.73L279.16 250.45" fill="#AADBEC"/>
<path d="M173.34 248.62L273.65 252.86C281.15 253.18 287.57 247.65 287.9 240.57L291 175.57C291.33 168.5 285.47 162.45 278 162.13L177.69 157.89C170.18 157.57 163.77 163.1 163.43 170.18L160.34 235.18C159.97 242.25 165.84 248.3 173.34 248.62Z" fill="#B7EEFF"/>
<path d="M259.18 259.17H225.44C223.452 259.17 221.84 260.782 221.84 262.77V264.28C221.84 266.268 223.452 267.88 225.44 267.88H259.18C261.168 267.88 262.78 266.268 262.78 264.28V262.77C262.78 260.782 261.168 259.17 259.18 259.17Z" fill="#AADBEC"/>
<path d="M263.31 353.18H219.37C210.27 353.18 202.82 346.18 202.82 337.57L212.16 278.42C212.16 272.62 220.31 267.87 226.47 267.87H258.9C265.05 267.87 273.2 272.62 273.2 278.42L279.43 337.97C279.43 346.35 272.18 353.18 263.31 353.18Z" fill="#AADBEC"/>
<path d="M157.42 216.29L161.29 216.46L162.94 181.74L159.07 181.58C158.498 181.541 157.934 181.73 157.499 182.104C157.065 182.478 156.796 183.009 156.75 183.58L155.3 214.09C155.293 214.374 155.343 214.657 155.446 214.921C155.549 215.186 155.704 215.428 155.901 215.632C156.098 215.837 156.334 216 156.595 216.113C156.855 216.226 157.136 216.286 157.42 216.29V216.29Z" fill="#D3002A"/>
<path d="M299.46 222.34L295.59 222.18L297.24 187.47L301.11 187.63C301.394 187.635 301.673 187.696 301.933 187.81C302.194 187.923 302.429 188.087 302.626 188.291C302.822 188.495 302.977 188.736 303.081 189.001C303.185 189.265 303.235 189.547 303.23 189.83L301.75 220.34C301.704 220.906 301.439 221.432 301.011 221.805C300.583 222.179 300.027 222.371 299.46 222.34Z" fill="#D3002A"/>
<path d="M211.62 278.59H210.44C208.894 278.59 207.64 279.843 207.64 281.39V286.04C207.64 287.586 208.894 288.84 210.44 288.84H211.62C213.167 288.84 214.42 287.586 214.42 286.04V281.39C214.42 279.843 213.167 278.59 211.62 278.59Z" fill="#AADBEC"/>
<path d="M236.33 140.65L241.5 154.83L229.83 154.34L236.33 140.65Z" fill="#253273"/>
<path d="M228.75 353.18V371.68C228.75 372.93 226.35 373.95 225.3 373.95C224.39 373.95 221.85 372.95 221.85 371.68V353.18H228.75Z" fill="#253273"/>
<path d="M186.88 238.29L259.55 241.37C265.27 241.61 270.11 237.43 270.37 232.04L272.65 184.18C272.677 182.859 272.441 181.546 271.957 180.317C271.474 179.088 270.751 177.967 269.831 177.018C268.912 176.07 267.813 175.313 266.6 174.792C265.386 174.27 264.081 173.994 262.76 173.98L190.08 170.9C184.36 170.66 179.52 174.84 179.26 180.23L176.99 228.08C176.75 233.48 181.16 238.05 186.88 238.29Z" fill="#253273"/>
<path d="M213.75 216.39C213.62 219.17 216.86 221.57 220.98 221.74C225.1 221.91 228.55 219.8 228.68 217.02C228.81 214.24 225.49 213.78 221.37 213.61C217.25 213.44 213.9 213.6 213.75 216.39Z" fill="#B7EEFF"/>
<path d="M236.58 142.8C240.96 142.8 244.51 139.451 244.51 135.32C244.51 131.189 240.96 127.84 236.58 127.84C232.2 127.84 228.65 131.189 228.65 135.32C228.65 139.451 232.2 142.8 236.58 142.8Z" fill="#D3002A"/>
<path d="M233.69 251.18C233.242 251.705 232.904 252.315 232.694 252.972C232.485 253.63 232.408 254.323 232.47 255.01C232.477 256.468 232.848 257.902 233.55 259.18H251.08C251.779 257.908 252.15 256.482 252.16 255.03C252.201 253.987 252.045 252.945 251.7 251.96L233.69 251.18Z" fill="#AADBEC"/>
<path d="M275.6 301.32C270.48 297.99 268.72 294.75 259.14 295.32C244.88 296.19 238.94 306.7 227.22 305.89C222.06 305.54 218.44 304.4 209.87 292.89L207.2 309.68L202.82 337.55C202.82 346.13 210.27 353.16 219.37 353.16H263.31C272.18 353.16 279.43 346.32 279.43 337.95L275.6 301.32Z" fill="#B7EEFF"/>
<g opacity="0.4">
<path d="M276.07 306.18C273.013 307.914 269.682 309.111 266.22 309.72C248.83 312.72 238.22 298.52 217.85 299.83C214.686 300.046 211.555 300.602 208.51 301.49L202.8 337.67C202.8 346.26 210.25 353.28 219.35 353.28H263.29C272.15 353.28 279.41 346.44 279.41 338.08L276.07 306.18Z" fill="white"/>
</g>
<path d="M229.03 379.79C225.8 382.79 214.17 384.63 210.95 381.59C210.574 381.238 210.304 380.788 210.17 380.29C209.28 376.92 214.54 371.44 217.36 368.78C218.95 367.315 221.033 366.501 223.195 366.501C225.357 366.501 227.44 367.315 229.03 368.78C229.789 369.481 230.394 370.332 230.808 371.279C231.222 372.225 231.436 373.247 231.436 374.28C231.436 375.313 231.222 376.335 230.808 377.282C230.394 378.228 229.789 379.079 229.03 379.78V379.79Z" fill="#AADBEC"/>
<path d="M225.11 374.09C222.62 374.09 220.6 372.53 220.6 370.62C220.6 368.71 222.6 367.14 225.11 367.14C227.62 367.14 229.61 368.7 229.61 370.62C229.61 372.54 227.59 374.09 225.11 374.09ZM225.11 367.41C222.78 367.41 220.88 368.85 220.88 370.62C220.88 372.39 222.78 373.83 225.11 373.83C227.44 373.83 229.33 372.39 229.33 370.62C229.33 368.85 227.44 367.41 225.11 367.41Z" fill="white"/>
<path d="M225.11 372.83C223.53 372.83 222.24 371.83 222.24 370.62C222.24 369.41 223.53 368.4 225.11 368.4C226.69 368.4 227.97 369.4 227.97 370.62C227.97 371.84 226.68 372.83 225.11 372.83ZM225.11 368.67C223.68 368.67 222.53 369.54 222.53 370.62C222.53 371.7 223.68 372.57 225.11 372.57C226.54 372.57 227.69 371.69 227.69 370.62C227.69 369.55 226.53 368.67 225.11 368.67V368.67Z" fill="#D00029"/>
<path d="M229.12 379.4C225.87 382.4 214.12 384.26 210.92 381.21C210.541 380.859 210.267 380.408 210.13 379.91C210.13 379.83 210.13 379.72 210.07 379.63L210.12 381.77C210.253 382.27 210.528 382.721 210.91 383.07C214.13 386.07 225.79 384.31 229.02 381.27C229.78 380.569 230.388 379.719 230.804 378.773C231.221 377.826 231.437 376.804 231.44 375.77V374.87C231.131 376.576 230.324 378.152 229.12 379.4V379.4Z" fill="#253273"/>
<path d="M254.8 353.18V371.68C254.8 372.93 257.19 373.95 258.25 373.95C259.16 373.95 261.7 372.95 261.7 371.68V353.18H254.8Z" fill="#253273"/>
<path d="M254.51 379.79C257.74 382.79 269.37 384.63 272.59 381.59C272.966 381.238 273.236 380.788 273.37 380.29C274.26 376.92 269 371.44 266.18 368.78C264.59 367.315 262.507 366.501 260.345 366.501C258.183 366.501 256.1 367.315 254.51 368.78C253.751 369.481 253.146 370.332 252.732 371.279C252.318 372.225 252.104 373.247 252.104 374.28C252.104 375.313 252.318 376.335 252.732 377.282C253.146 378.228 253.751 379.079 254.51 379.78V379.79Z" fill="#AADBEC"/>
<path d="M258.44 374.09C255.95 374.09 253.93 372.53 253.93 370.62C253.93 368.71 255.93 367.14 258.44 367.14C260.95 367.14 262.94 368.7 262.94 370.62C262.94 372.54 260.92 374.09 258.44 374.09ZM258.44 367.41C256.11 367.41 254.21 368.85 254.21 370.62C254.21 372.39 256.11 373.83 258.44 373.83C260.77 373.83 262.66 372.39 262.66 370.62C262.66 368.85 260.75 367.41 258.44 367.41Z" fill="white"/>
<path d="M258.44 372.83C256.86 372.83 255.57 371.83 255.57 370.62C255.57 369.41 256.86 368.4 258.44 368.4C260.02 368.4 261.3 369.4 261.3 370.62C261.3 371.84 260.01 372.83 258.44 372.83ZM258.44 368.67C257.01 368.67 255.86 369.54 255.86 370.62C255.86 371.7 257.01 372.57 258.44 372.57C259.87 372.57 261.01 371.69 261.01 370.62C261.01 369.55 259.86 368.67 258.44 368.67V368.67Z" fill="#D00029"/>
<path d="M254.43 379.4C257.67 382.4 269.38 384.26 272.62 381.21C273.003 380.861 273.277 380.41 273.41 379.91L273.47 379.65L273.42 381.77C273.287 382.268 273.016 382.718 272.64 383.07C269.41 386.07 257.75 384.31 254.52 381.27C253.761 380.568 253.155 379.718 252.739 378.772C252.322 377.825 252.105 376.804 252.1 375.77V374.91C252.6 377.64 253.08 378.18 254.43 379.4Z" fill="#253273"/>
<path d="M220.24 329.41V331H219.75V329.41L218.35 327.55H218.87L219.63 328.55L219.99 329.06C220.1 328.9 220.24 328.7 220.36 328.55L221.12 327.55H221.61L220.24 329.41Z" fill="#253273"/>
<path d="M222.81 331.06C222.559 331.044 222.317 330.955 222.115 330.804C221.914 330.653 221.761 330.446 221.676 330.208C221.591 329.971 221.577 329.714 221.636 329.469C221.696 329.224 221.825 329.002 222.009 328.83C222.194 328.658 222.424 328.543 222.673 328.501C222.921 328.458 223.176 328.49 223.407 328.591C223.638 328.692 223.834 328.858 223.972 329.07C224.109 329.281 224.182 329.528 224.18 329.78C224.178 329.955 224.14 330.128 224.069 330.288C223.998 330.448 223.896 330.592 223.768 330.712C223.64 330.831 223.489 330.924 223.324 330.984C223.16 331.043 222.985 331.069 222.81 331.06V331.06ZM222.81 328.87C222.628 328.87 222.45 328.924 222.299 329.025C222.148 329.126 222.03 329.27 221.96 329.438C221.89 329.606 221.872 329.791 221.908 329.969C221.943 330.148 222.031 330.312 222.16 330.44C222.288 330.569 222.452 330.657 222.631 330.692C222.809 330.728 222.994 330.71 223.162 330.64C223.33 330.57 223.474 330.452 223.575 330.301C223.676 330.15 223.73 329.972 223.73 329.79C223.733 329.668 223.711 329.548 223.666 329.435C223.62 329.322 223.553 329.219 223.467 329.133C223.381 329.047 223.278 328.98 223.165 328.934C223.053 328.889 222.932 328.867 222.81 328.87V328.87Z" fill="#253273"/>
<path d="M226.54 331V330.66C226.459 330.801 226.338 330.915 226.192 330.986C226.045 331.058 225.881 331.083 225.72 331.06C225.595 331.075 225.468 331.064 225.348 331.027C225.228 330.99 225.117 330.928 225.022 330.845C224.927 330.762 224.852 330.659 224.8 330.545C224.748 330.43 224.72 330.306 224.72 330.18V328.55H225.16V330.18C225.16 330.47 225.37 330.73 225.82 330.73C226.27 330.73 226.5 330.47 226.5 330.18V328.58H226.94V331.03L226.54 331Z" fill="#253273"/>
<path d="M228.96 328.97C228.897 328.964 228.833 328.964 228.77 328.97C228.664 328.964 228.558 328.982 228.46 329.023C228.362 329.063 228.273 329.125 228.202 329.203C228.13 329.281 228.077 329.375 228.045 329.476C228.014 329.578 228.005 329.685 228.02 329.79V331.03H227.6V328.58H228.02V329.12C228.062 328.948 228.163 328.797 228.306 328.693C228.449 328.588 228.624 328.538 228.8 328.55C228.883 328.539 228.967 328.539 229.05 328.55L228.96 328.97Z" fill="#253273"/>
<path d="M232.32 331.06C232.138 331.084 231.953 331.069 231.777 331.016C231.602 330.964 231.439 330.875 231.3 330.755C231.161 330.635 231.049 330.487 230.972 330.32C230.894 330.154 230.853 329.973 230.85 329.79V327.55H231.33V329.75C231.33 330.015 231.435 330.269 231.623 330.457C231.811 330.644 232.065 330.75 232.33 330.75C232.595 330.75 232.85 330.644 233.037 330.457C233.225 330.269 233.33 330.015 233.33 329.75V327.55H233.75V329.79C233.75 329.97 233.712 330.149 233.637 330.314C233.563 330.479 233.455 330.626 233.32 330.746C233.185 330.866 233.026 330.956 232.854 331.01C232.681 331.064 232.5 331.081 232.32 331.06Z" fill="#253273"/>
<path d="M236.32 331.06C235.973 331.033 235.642 330.905 235.366 330.693C235.091 330.48 234.884 330.192 234.769 329.863C234.655 329.535 234.639 329.18 234.723 328.843C234.807 328.505 234.988 328.199 235.243 327.963C235.498 327.726 235.816 327.569 236.159 327.511C236.502 327.452 236.854 327.495 237.173 327.634C237.492 327.772 237.764 328.001 237.955 328.291C238.146 328.582 238.249 328.922 238.25 329.27C238.245 329.515 238.191 329.758 238.09 329.982C237.989 330.206 237.845 330.407 237.665 330.574C237.485 330.741 237.273 330.87 237.042 330.954C236.811 331.037 236.565 331.073 236.32 331.06V331.06ZM236.32 327.88C236.125 327.863 235.93 327.888 235.745 327.951C235.56 328.014 235.391 328.115 235.247 328.247C235.103 328.379 234.989 328.539 234.91 328.718C234.832 328.897 234.791 329.09 234.791 329.285C234.791 329.48 234.832 329.673 234.91 329.852C234.989 330.03 235.103 330.191 235.247 330.323C235.391 330.455 235.56 330.556 235.745 330.619C235.93 330.682 236.125 330.706 236.32 330.69C236.514 330.706 236.71 330.682 236.895 330.619C237.079 330.556 237.249 330.455 237.393 330.323C237.536 330.191 237.651 330.03 237.73 329.852C237.808 329.673 237.849 329.48 237.849 329.285C237.849 329.09 237.808 328.897 237.73 328.718C237.651 328.539 237.536 328.379 237.393 328.247C237.249 328.115 237.079 328.014 236.895 327.951C236.71 327.888 236.514 327.863 236.32 327.88V327.88Z" fill="#253273"/>
<path d="M240.02 331H238.87V327.55H239.87C239.994 327.541 240.118 327.556 240.236 327.595C240.354 327.635 240.463 327.697 240.556 327.779C240.649 327.861 240.725 327.961 240.779 328.073C240.833 328.185 240.864 328.306 240.87 328.43C240.877 328.558 240.845 328.686 240.779 328.796C240.713 328.907 240.616 328.995 240.5 329.05C240.702 329.106 240.881 329.224 241.012 329.388C241.143 329.551 241.219 329.751 241.23 329.96C241.226 330.11 241.19 330.258 241.125 330.393C241.061 330.529 240.968 330.649 240.855 330.747C240.741 330.845 240.608 330.918 240.464 330.962C240.32 331.005 240.169 331.018 240.02 331ZM239.77 327.92H239.32V328.92H239.75C240.07 328.92 240.35 328.76 240.35 328.42C240.35 328.08 240.1 327.92 239.75 327.92H239.77ZM239.91 329.29H239.32V330.63H239.93C240.35 330.63 240.73 330.41 240.73 329.96C240.723 329.861 240.695 329.765 240.65 329.677C240.604 329.589 240.541 329.512 240.464 329.449C240.387 329.386 240.299 329.34 240.203 329.313C240.108 329.285 240.008 329.278 239.91 329.29V329.29Z" fill="#253273"/>
<path d="M244.28 331L243.87 330.07H242.39L241.99 331H241.52L243.05 327.5H243.22L244.75 331H244.28ZM243.28 328.76C243.23 328.63 243.16 328.45 243.11 328.28C243.061 328.444 243.001 328.604 242.93 328.76L242.53 329.71H243.75L243.28 328.76Z" fill="#253273"/>
<path d="M248.84 331L248.69 329.33C248.69 329.07 248.64 328.76 248.63 328.49L248.19 329.35L247.3 331.02H247.13L246.23 329.35C246.1 329.1 245.94 328.77 245.81 328.5C245.81 328.78 245.81 329.1 245.75 329.33L245.6 331H245.18L245.48 327.55H245.78L246.78 329.4C246.93 329.69 247.12 330.04 247.25 330.33C247.38 330.04 247.55 329.7 247.71 329.4L248.71 327.55H249.01L249.32 331H248.84Z" fill="#253273"/>
<path d="M251.35 331V327.55H251.82V331H251.35Z" fill="#253273"/>
<path d="M254.38 331V329.4C254.38 329.11 254.16 328.85 253.72 328.85C253.28 328.85 253.04 329.11 253.04 329.4V331H252.59V328.55H253V328.89C253.09 328.67 253.35 328.49 253.82 328.49C253.944 328.476 254.071 328.488 254.19 328.526C254.31 328.564 254.42 328.626 254.515 328.709C254.609 328.792 254.684 328.893 254.737 329.007C254.79 329.121 254.818 329.245 254.82 329.37V331H254.38Z" fill="#253273"/>
<path d="M256.55 331.05H256.37L255.28 328.55H255.75L256.27 329.74C256.35 329.91 256.42 330.14 256.5 330.34C256.57 330.14 256.65 329.92 256.73 329.74L257.24 328.55H257.65L256.55 331.05Z" fill="#253273"/>
<path d="M260.25 329.61L260.01 329.84H258.32C258.338 330.088 258.453 330.318 258.641 330.481C258.828 330.644 259.072 330.727 259.32 330.71C259.588 330.714 259.852 330.641 260.08 330.5L260.03 330.89C259.795 331.011 259.534 331.069 259.27 331.06C259.095 331.07 258.919 331.044 258.754 330.984C258.589 330.924 258.438 330.832 258.309 330.712C258.18 330.593 258.077 330.449 258.005 330.289C257.933 330.129 257.894 329.956 257.89 329.78C257.887 329.612 257.918 329.446 257.98 329.29C258.042 329.135 258.134 328.993 258.251 328.873C258.368 328.753 258.508 328.657 258.662 328.592C258.817 328.526 258.982 328.491 259.15 328.49C259.287 328.472 259.426 328.482 259.559 328.521C259.691 328.559 259.815 328.624 259.921 328.713C260.027 328.801 260.114 328.91 260.176 329.034C260.237 329.157 260.273 329.292 260.28 329.43C260.277 329.491 260.267 329.551 260.25 329.61V329.61ZM259.18 328.84C258.986 328.846 258.8 328.916 258.649 329.039C258.499 329.162 258.394 329.331 258.35 329.52H259.84V329.44C259.836 329.357 259.816 329.276 259.781 329.201C259.746 329.126 259.696 329.059 259.634 329.003C259.573 328.947 259.501 328.904 259.423 328.876C259.346 328.848 259.263 328.836 259.18 328.84V328.84Z" fill="#253273"/>
<path d="M261.49 331.04C261.237 331.048 260.987 330.982 260.77 330.85L260.71 330.41C260.931 330.589 261.206 330.688 261.49 330.69C261.76 330.69 261.96 330.56 261.96 330.35C261.96 330.14 261.81 330.03 261.53 329.94C261.05 329.78 260.77 329.57 260.77 329.18C260.77 328.79 261.12 328.52 261.59 328.52C261.815 328.524 262.036 328.575 262.24 328.67L262.15 329.02C261.987 328.903 261.79 328.843 261.59 328.85C261.35 328.85 261.18 328.98 261.18 329.17C261.18 329.36 261.33 329.45 261.6 329.54C262.1 329.71 262.39 329.93 262.39 330.34C262.39 330.75 262.06 331.04 261.49 331.04Z" fill="#253273"/>
<path d="M264.48 328.88H263.62V330.31C263.62 330.6 263.78 330.7 264.03 330.7C264.116 330.711 264.204 330.711 264.29 330.7V331.02C264.197 331.054 264.099 331.071 264 331.07C263.904 331.081 263.807 331.072 263.715 331.043C263.623 331.014 263.538 330.966 263.467 330.901C263.395 330.837 263.337 330.758 263.298 330.67C263.259 330.582 263.239 330.486 263.24 330.39V328.88H262.72V328.55H263.24V328.03L263.66 327.82V328.55H264.6L264.48 328.88Z" fill="#253273"/>
<path d="M222.75 343.81H219.04V334.36H222.32C222.679 334.324 223.042 334.361 223.387 334.469C223.731 334.578 224.05 334.754 224.325 334.988C224.599 335.223 224.824 335.51 224.984 335.834C225.145 336.157 225.239 336.509 225.26 336.87C225.265 337.177 225.191 337.481 225.046 337.752C224.901 338.024 224.689 338.253 224.43 338.42C224.936 338.598 225.374 338.929 225.685 339.365C225.996 339.802 226.166 340.324 226.17 340.86C226.19 342.7 224.65 343.81 222.75 343.81ZM221.95 336.06H221.23V338.01H221.95C222.096 338.043 222.249 338.043 222.395 338.01C222.541 337.976 222.678 337.91 222.796 337.816C222.913 337.723 223.008 337.604 223.073 337.469C223.138 337.333 223.172 337.185 223.172 337.035C223.172 336.885 223.138 336.736 223.073 336.601C223.008 336.466 222.913 336.347 222.796 336.253C222.678 336.159 222.541 336.093 222.395 336.06C222.249 336.026 222.096 336.026 221.95 336.06V336.06ZM222.34 339.66H221.25V342.18H222.36C223.1 342.18 223.85 341.8 223.85 340.95C223.846 340.764 223.803 340.582 223.724 340.414C223.645 340.246 223.531 340.096 223.391 339.975C223.251 339.853 223.086 339.762 222.909 339.708C222.731 339.654 222.544 339.637 222.36 339.66H222.34Z" fill="#253273"/>
<path d="M231.83 344.02C229.44 344.02 227.5 342.7 227.5 340.42V334.36H229.93V340.26C229.979 340.738 230.203 341.181 230.56 341.503C230.916 341.825 231.38 342.003 231.86 342.003C232.34 342.003 232.804 341.825 233.16 341.503C233.517 341.181 233.741 340.738 233.79 340.26V334.36H236.18V340.42C236.18 342.68 234.23 344.02 231.83 344.02Z" fill="#253273"/>
<path d="M241.15 343.81H237.75V334.36H241.13C244 334.36 246.5 336.14 246.5 339.09C246.5 342.04 244.04 343.81 241.15 343.81ZM240.91 336.24H240.13V341.94H240.91C242.64 341.94 244.07 341 244.07 339.1C244.07 337.2 242.65 336.24 240.91 336.24Z" fill="#253273"/>
<path d="M251.19 343.81H247.82V334.36H251.19C254.06 334.36 256.56 336.14 256.56 339.09C256.56 342.04 254.08 343.81 251.19 343.81ZM250.96 336.24H250.17V341.94H250.96C252.68 341.94 254.11 341 254.11 339.1C254.11 337.2 252.75 336.24 250.96 336.24Z" fill="#253273"/>
<path d="M262.24 339.59V343.81H259.88V339.63L256.13 334.36H258.75L260.4 336.63C260.661 336.996 260.902 337.376 261.12 337.77V337.77C261.345 337.376 261.592 336.995 261.86 336.63L263.51 334.36H265.94L262.24 339.59Z" fill="#253273"/>
<path d="M274.15 278.59H272.97C271.424 278.59 270.17 279.843 270.17 281.39V286.04C270.17 287.586 271.424 288.84 272.97 288.84H274.15C275.696 288.84 276.95 287.586 276.95 286.04V281.39C276.95 279.843 275.696 278.59 274.15 278.59Z" fill="#AADBEC"/>
<path d="M244.37 346.62L174.32 352.82L147.5 260.78L217.54 254.58L244.37 346.62Z" fill="#1B2568"/>
<path d="M231.18 312.06L226.55 316.81L218.51 316.63L217.07 305.82L222.06 304.15L228.99 306.63L231.18 312.06Z" fill="#D3002A"/>
<path d="M213.515 305.912C214.691 305.87 215.621 305.195 215.592 304.406C215.564 303.617 214.587 303.011 213.412 303.054C212.236 303.096 211.306 303.771 211.335 304.56C211.363 305.349 212.34 305.955 213.515 305.912Z" fill="#AADBEC"/>
<path d="M212.117 312.018C213.292 311.976 214.222 311.302 214.194 310.512C214.165 309.723 213.189 309.118 212.013 309.16C210.838 309.203 209.908 309.877 209.936 310.666C209.965 311.456 210.941 312.061 212.117 312.018Z" fill="#AADBEC"/>
<path d="M212.875 317.942C214.037 317.754 214.876 316.97 214.75 316.19C214.624 315.41 213.58 314.931 212.419 315.118C211.258 315.306 210.419 316.09 210.545 316.87C210.671 317.649 211.714 318.129 212.875 317.942Z" fill="#AADBEC"/>
<path d="M270.17 281.78C270.17 281.78 239.59 306.63 228.99 306.63L231.18 312.05C231.18 312.05 244.33 310.95 271.53 288.14C271.53 288.14 270.25 287.76 270.17 285.64C270.09 283.52 270.17 281.78 270.17 281.78Z" fill="#253273"/>
<path d="M207.46 201.52C206.862 199.807 205.75 198.321 204.275 197.265C202.8 196.209 201.034 195.634 199.22 195.62H199.16C197.466 195.642 195.815 196.154 194.406 197.095C192.997 198.035 191.89 199.364 191.22 200.92L189.22 200.04C190.065 198.103 191.45 196.451 193.209 195.281C194.968 194.11 197.027 193.471 199.14 193.44H199.22C201.482 193.457 203.683 194.171 205.524 195.484C207.366 196.798 208.757 198.647 209.51 200.78L207.46 201.52Z" fill="#C1EDFD"/>
<path d="M257.5 204.81C256.902 203.097 255.79 201.611 254.315 200.555C252.84 199.499 251.074 198.924 249.26 198.91H249.2C247.506 198.933 245.856 199.446 244.447 200.387C243.038 201.327 241.931 202.655 241.26 204.21L239.26 203.33C240.105 201.393 241.49 199.741 243.249 198.571C245.008 197.4 247.067 196.761 249.18 196.73H249.25C251.512 196.747 253.713 197.461 255.555 198.774C257.396 200.088 258.788 201.937 259.54 204.07L257.5 204.81Z" fill="#C1EDFD"/>
<path d="M127.59 141.36C127.17 141.36 126.74 141.36 126.32 141.36C121.2 141.04 117.04 138.84 114.6 135.16C112.16 131.48 111.77 126.79 113.48 121.95C115.389 116.936 118.86 112.669 123.38 109.78C127.459 107.015 132.253 105.494 137.18 105.4C137.61 105.4 138.04 105.4 138.46 105.4C143.58 105.71 147.74 107.92 150.17 111.6C152.6 115.28 153 119.97 151.29 124.81C149.386 129.827 145.914 134.095 141.39 136.98C137.313 139.741 132.523 141.263 127.6 141.36H127.59ZM137.18 107.36C132.643 107.456 128.231 108.866 124.48 111.42C120.321 114.069 117.124 117.985 115.36 122.59C113.87 126.82 114.19 130.88 116.27 134.03C118.35 137.18 121.96 139.03 126.44 139.34C126.82 139.34 127.21 139.34 127.59 139.34C132.127 139.25 136.539 137.843 140.29 135.29C144.446 132.664 147.644 128.768 149.41 124.18C150.91 119.95 150.59 115.89 148.51 112.74C146.43 109.59 142.81 107.74 138.33 107.43C137.95 107.36 137.56 107.35 137.18 107.35V107.36Z" fill="#4638C7"/>
<path d="M149.65 111.95C147.32 108.43 143.34 106.33 138.42 106.02C133.207 105.909 128.084 107.391 123.735 110.268C119.386 113.144 116.018 117.279 114.08 122.12C112.43 126.76 112.8 131.26 115.08 134.77C117.36 138.28 121.39 140.39 126.31 140.69C126.72 140.69 127.13 140.69 127.55 140.69C132.354 140.6 137.028 139.113 141 136.41C145.437 133.626 148.857 129.484 150.75 124.6C152.35 119.95 151.97 115.46 149.65 111.95ZM140.65 135.84C136.47 138.709 131.476 140.154 126.41 139.96C121.73 139.67 117.95 137.68 115.75 134.36C113.55 131.04 113.22 126.79 114.75 122.36C116.556 117.622 119.842 113.592 124.12 110.87C127.959 108.254 132.475 106.809 137.12 106.71C137.52 106.71 137.92 106.71 138.31 106.71C142.99 107 146.78 108.99 148.97 112.3C151.16 115.61 151.51 119.88 149.97 124.3C148.189 129.054 144.915 133.103 140.64 135.84H140.65Z" fill="white"/>
<path d="M128.12 137.97C124.874 138.086 121.7 136.996 119.21 134.91C118.584 134.35 118.03 133.715 117.56 133.02C116.758 131.778 116.214 130.387 115.961 128.93C115.709 127.473 115.752 125.98 116.09 124.54C117.03 119.96 120.37 115.42 125.03 112.38C128.482 110.088 132.517 108.828 136.66 108.75C139.903 108.632 143.075 109.723 145.56 111.81C146.191 112.365 146.745 113 147.21 113.7C148.018 114.94 148.565 116.331 148.817 117.789C149.07 119.246 149.023 120.741 148.68 122.18C147.75 126.76 144.41 131.3 139.74 134.33C136.295 136.63 132.262 137.894 128.12 137.97V137.97ZM136.66 110.74C132.902 110.819 129.245 111.971 126.12 114.06C121.89 116.8 118.88 120.87 118.05 124.94C117.76 126.125 117.715 127.357 117.916 128.56C118.117 129.763 118.561 130.913 119.22 131.94C119.594 132.497 120.037 133.005 120.54 133.45C122.659 135.211 125.357 136.123 128.11 136.01C131.871 135.931 135.531 134.779 138.66 132.69C142.88 129.94 145.9 125.87 146.73 121.81C147.02 120.625 147.065 119.393 146.864 118.19C146.663 116.986 146.219 115.836 145.56 114.81C145.183 114.255 144.74 113.748 144.24 113.3C142.117 111.537 139.416 110.625 136.66 110.74V110.74Z" fill="#4638C7"/>
<path d="M145.15 112.28C140.55 108.18 132.23 108.45 125.37 112.91C120.85 115.85 117.61 120.25 116.71 124.67C116.386 126.027 116.34 127.435 116.576 128.81C116.811 130.185 117.323 131.498 118.08 132.67C118.52 133.323 119.041 133.918 119.63 134.44V134.44C122.008 136.415 125.03 137.448 128.12 137.34C132.14 137.267 136.056 136.042 139.4 133.81C143.93 130.86 147.17 126.47 148.07 122.05C148.393 120.692 148.437 119.283 148.2 117.908C147.963 116.533 147.449 115.221 146.69 114.05C146.257 113.395 145.739 112.8 145.15 112.28V112.28ZM147.34 121.9C146.48 126.13 143.34 130.35 139 133.19C132.41 137.47 124.48 137.77 120.12 133.89C119.579 133.409 119.102 132.862 118.7 132.26C117.996 131.168 117.52 129.945 117.302 128.665C117.084 127.384 117.127 126.073 117.43 124.81C118.29 120.59 121.43 116.37 125.78 113.53C132.36 109.25 140.3 108.95 144.66 112.83C145.201 113.31 145.678 113.858 146.08 114.46C146.783 115.55 147.257 116.772 147.473 118.051C147.69 119.329 147.645 120.639 147.34 121.9V121.9Z" fill="white"/>
<path d="M128.57 134.9C126.166 134.987 123.815 134.182 121.97 132.64C121.481 132.204 121.05 131.707 120.69 131.16C117.63 126.48 120.38 119.16 126.82 114.87C129.585 112.958 132.849 111.898 136.21 111.82C138.614 111.73 140.966 112.535 142.81 114.08C143.301 114.511 143.729 115.009 144.08 115.56C147.15 120.24 144.4 127.56 137.96 131.85C135.19 133.752 131.929 134.811 128.57 134.9ZM136.21 113.81C133.244 113.888 130.365 114.834 127.93 116.53C122.39 120.23 119.93 126.3 122.36 130.07C122.62 130.47 122.933 130.833 123.29 131.15C124.771 132.363 126.647 132.99 128.56 132.91C131.53 132.824 134.41 131.875 136.85 130.18C142.38 126.48 144.85 120.41 142.42 116.64C142.153 116.242 141.837 115.879 141.48 115.56C139.999 114.346 138.122 113.723 136.21 113.81V113.81Z" fill="#4638C7"/>
<path d="M142.39 114.55C138.92 111.46 132.52 111.82 127.17 115.39C121.01 119.5 118.34 126.39 121.22 130.82C121.546 131.319 121.936 131.773 122.38 132.17C124.117 133.603 126.319 134.35 128.57 134.27C131.791 134.178 134.916 133.157 137.57 131.33C143.72 127.21 146.39 120.33 143.52 115.9C143.203 115.403 142.823 114.949 142.39 114.55ZM137.2 130.71C132.12 134.1 126.1 134.48 122.88 131.62C122.495 131.262 122.159 130.855 121.88 130.41C119.22 126.41 121.8 119.89 127.62 116.01C130.161 114.249 133.16 113.266 136.25 113.18C138.318 113.097 140.345 113.781 141.94 115.1C142.327 115.456 142.664 115.863 142.94 116.31C145.59 120.36 143.02 126.82 137.2 130.71Z" fill="white"/>
<path d="M130.81 129.94H130.35C129.486 129.942 128.635 129.73 127.873 129.322C127.112 128.913 126.464 128.322 125.988 127.601C125.512 126.88 125.222 126.051 125.146 125.191C125.069 124.33 125.208 123.464 125.55 122.67C126.222 120.886 127.453 119.367 129.06 118.34C130.508 117.358 132.211 116.819 133.96 116.79H134.42C135.279 116.82 136.118 117.052 136.871 117.468C137.623 117.883 138.267 118.47 138.75 119.18C140.58 121.95 139.2 126.11 135.68 128.44C134.233 129.395 132.543 129.915 130.81 129.94V129.94ZM133.96 118.77C132.602 118.799 131.281 119.223 130.16 119.99C128.913 120.779 127.955 121.951 127.43 123.33C127.194 123.828 127.09 124.379 127.127 124.929C127.165 125.479 127.342 126.011 127.643 126.473C127.943 126.935 128.357 127.312 128.845 127.569C129.333 127.826 129.879 127.954 130.43 127.94H130.76C132.117 127.906 133.436 127.482 134.56 126.72C137.18 124.99 138.3 122.07 137.07 120.22C136.748 119.772 136.325 119.407 135.835 119.155C135.345 118.903 134.801 118.771 134.25 118.77H133.96Z" fill="#4638C7"/>
<path d="M134.38 117.42C132.614 117.378 130.878 117.879 129.405 118.853C127.932 119.827 126.793 121.229 126.14 122.87C125.833 123.572 125.706 124.34 125.772 125.103C125.837 125.867 126.093 126.602 126.516 127.241C126.938 127.88 127.514 128.404 128.191 128.763C128.868 129.123 129.624 129.307 130.39 129.3H130.81C132.438 129.274 134.022 128.773 135.37 127.86C138.61 125.71 139.91 121.95 138.26 119.46C137.821 118.837 137.24 118.327 136.566 117.972C135.891 117.617 135.142 117.428 134.38 117.42ZM134.96 127.25C133.633 128.16 132.048 128.619 130.44 128.56C129.787 128.579 129.14 128.43 128.561 128.13C127.981 127.829 127.488 127.385 127.128 126.841C126.767 126.296 126.552 125.669 126.501 125.018C126.451 124.366 126.568 123.713 126.84 123.12C127.417 121.61 128.47 120.328 129.84 119.47C131.065 118.634 132.507 118.172 133.99 118.14H134.37C135.018 118.15 135.655 118.312 136.23 118.613C136.805 118.913 137.301 119.343 137.68 119.87C139.07 122.03 137.86 125.33 134.96 127.25V127.25Z" fill="white"/>
<path d="M132.39 125.46C132.114 125.46 131.841 125.405 131.586 125.3C131.332 125.194 131.1 125.04 130.905 124.845C130.71 124.65 130.555 124.418 130.45 124.163C130.344 123.909 130.29 123.636 130.29 123.36C130.29 123.084 130.344 122.811 130.45 122.556C130.555 122.301 130.71 122.07 130.905 121.875C131.1 121.68 131.332 121.525 131.586 121.42C131.841 121.314 132.114 121.26 132.39 121.26C132.903 121.26 133.397 121.449 133.78 121.79C133.988 121.972 134.157 122.195 134.277 122.444C134.397 122.693 134.466 122.964 134.48 123.24C134.5 123.514 134.464 123.79 134.373 124.05C134.281 124.31 134.138 124.548 133.95 124.75C133.756 124.973 133.516 125.151 133.247 125.274C132.978 125.396 132.686 125.46 132.39 125.46ZM132.39 123.26C132.377 123.254 132.364 123.251 132.35 123.251C132.336 123.251 132.323 123.254 132.31 123.26C132.291 123.28 132.281 123.307 132.281 123.335C132.281 123.363 132.291 123.389 132.31 123.41H132.38C132.391 123.415 132.403 123.418 132.415 123.418C132.427 123.418 132.439 123.415 132.45 123.41C132.46 123.384 132.46 123.355 132.45 123.33C132.455 123.319 132.457 123.307 132.457 123.295C132.457 123.283 132.455 123.271 132.45 123.26H132.39Z" fill="#4638C7"/>
<path d="M133.36 122.26C133.069 122.003 132.688 121.871 132.3 121.893C131.912 121.916 131.549 122.091 131.29 122.38C131.032 122.673 130.899 123.055 130.922 123.445C130.944 123.834 131.12 124.199 131.41 124.46C131.685 124.705 132.042 124.837 132.41 124.83C132.617 124.829 132.822 124.785 133.011 124.7C133.201 124.616 133.37 124.493 133.51 124.34C133.639 124.195 133.737 124.026 133.799 123.842C133.861 123.658 133.885 123.464 133.87 123.27C133.859 123.076 133.808 122.886 133.72 122.712C133.632 122.538 133.51 122.385 133.36 122.26V122.26ZM132.93 123.84C132.804 123.978 132.629 124.061 132.442 124.073C132.255 124.084 132.072 124.022 131.93 123.9C131.794 123.773 131.712 123.598 131.701 123.412C131.69 123.226 131.75 123.043 131.87 122.9C131.999 122.767 132.173 122.686 132.358 122.675C132.543 122.664 132.726 122.723 132.87 122.84C133.01 122.965 133.095 123.14 133.106 123.328C133.118 123.515 133.054 123.699 132.93 123.84V123.84Z" fill="white"/>
<path d="M148.68 146C148.215 146 147.759 145.872 147.362 145.63C146.965 145.388 146.643 145.042 146.43 144.628C146.217 144.215 146.122 143.751 146.156 143.288C146.189 142.824 146.35 142.378 146.62 142C147.017 141.467 147.605 141.109 148.26 141C148.4 140.99 148.54 140.99 148.68 141H148.75L148.05 136.81L147.68 134.6L156.81 129.81L158.6 140.5H158.52C158.468 141.054 158.233 141.576 157.853 141.983C157.474 142.39 156.969 142.66 156.42 142.75C156.28 142.765 156.14 142.765 156 142.75C155.403 142.751 154.826 142.538 154.371 142.152C153.917 141.765 153.615 141.229 153.52 140.64C153.464 140.314 153.474 139.979 153.548 139.656C153.622 139.334 153.759 139.029 153.951 138.759C154.144 138.489 154.388 138.261 154.669 138.086C154.95 137.911 155.263 137.793 155.59 137.74C155.727 137.73 155.864 137.73 156 137.74H156.12L155.75 135.54L150.33 138.37L151.22 143.71H151.14C151.085 144.264 150.85 144.786 150.471 145.194C150.091 145.602 149.589 145.874 149.04 145.97L148.68 146ZM148.68 143H148.59C148.462 143.025 148.347 143.097 148.269 143.201C148.19 143.305 148.153 143.435 148.164 143.565C148.175 143.696 148.234 143.817 148.329 143.907C148.424 143.996 148.549 144.047 148.68 144.05H148.75C148.852 144.006 148.937 143.932 148.994 143.837C149.051 143.742 149.077 143.632 149.068 143.521C149.059 143.411 149.016 143.306 148.945 143.222C148.873 143.137 148.777 143.077 148.67 143.05L148.68 143ZM156.05 139.77H155.97C155.901 139.78 155.834 139.803 155.774 139.839C155.713 139.875 155.661 139.923 155.62 139.98C155.541 140.094 155.509 140.233 155.53 140.37C155.551 140.493 155.615 140.604 155.71 140.685C155.805 140.765 155.925 140.81 156.05 140.81H156.14C156.278 140.785 156.4 140.706 156.48 140.59C156.524 140.536 156.555 140.473 156.571 140.406C156.586 140.338 156.586 140.268 156.57 140.2C156.558 140.07 156.498 139.949 156.402 139.861C156.306 139.772 156.181 139.722 156.05 139.72V139.77ZM150.05 136.34L155.46 133.5L155.36 132.87L149.94 135.7L150.05 136.34Z" fill="#4638C7"/>
<path d="M157.92 139.95L156.97 134.21V134.07V133.93L156.44 130.73L148.44 134.9L148.84 137.29L149.59 141.81C149.336 141.676 149.056 141.601 148.769 141.591C148.483 141.581 148.198 141.637 147.936 141.754C147.674 141.87 147.442 142.045 147.257 142.265C147.073 142.485 146.941 142.743 146.871 143.022C146.802 143.3 146.796 143.59 146.856 143.871C146.915 144.151 147.037 144.415 147.214 144.641C147.39 144.867 147.615 145.051 147.873 145.177C148.13 145.303 148.413 145.369 148.7 145.37C148.803 145.38 148.907 145.38 149.01 145.37C149.504 145.282 149.943 145.003 150.231 144.592C150.52 144.182 150.634 143.674 150.55 143.18V143.18L149.69 138.02L156.28 134.57L156.95 138.57C156.579 138.373 156.154 138.303 155.74 138.37C155.494 138.409 155.258 138.497 155.046 138.629C154.835 138.762 154.652 138.935 154.51 139.14C154.305 139.423 154.182 139.757 154.155 140.105C154.128 140.453 154.199 140.802 154.358 141.113C154.518 141.424 154.76 141.684 155.059 141.866C155.358 142.047 155.701 142.142 156.05 142.14C156.153 142.15 156.257 142.15 156.36 142.14C156.604 142.101 156.839 142.014 157.05 141.885C157.261 141.755 157.444 141.585 157.589 141.384C157.734 141.183 157.837 140.956 157.894 140.715C157.951 140.474 157.96 140.224 157.92 139.98V139.95ZM148.92 144.62C148.764 144.66 148.602 144.667 148.443 144.641C148.285 144.615 148.133 144.556 147.999 144.468C147.864 144.381 147.749 144.266 147.661 144.131C147.573 143.997 147.514 143.846 147.488 143.687C147.461 143.529 147.468 143.366 147.508 143.21C147.547 143.055 147.619 142.909 147.718 142.782C147.817 142.656 147.941 142.551 148.082 142.475C148.224 142.399 148.38 142.353 148.54 142.34H148.73C149.008 142.344 149.275 142.447 149.484 142.63C149.693 142.813 149.83 143.065 149.87 143.34C149.904 143.642 149.818 143.945 149.631 144.184C149.444 144.424 149.171 144.58 148.87 144.62H148.92ZM149.61 137.25L149.29 135.31L155.88 131.86L156.2 133.8L149.61 137.25ZM157.04 140.92C156.953 141.044 156.841 141.15 156.712 141.231C156.584 141.311 156.44 141.366 156.29 141.39C156.064 141.427 155.832 141.396 155.623 141.301C155.414 141.206 155.239 141.052 155.118 140.857C154.997 140.662 154.936 140.436 154.944 140.207C154.951 139.978 155.027 139.756 155.16 139.57C155.339 139.323 155.609 139.158 155.91 139.11H156.1C156.379 139.11 156.648 139.211 156.858 139.395C157.068 139.579 157.204 139.833 157.24 140.11V140.11C157.263 140.402 157.173 140.692 156.99 140.92H157.04Z" fill="white"/>
<path d="M113.37 113.29C113.159 113.284 112.95 113.247 112.75 113.18C112.269 113.02 111.861 112.694 111.598 112.261C111.335 111.828 111.234 111.316 111.313 110.816C111.393 110.315 111.647 109.859 112.031 109.528C112.415 109.198 112.903 109.014 113.41 109.01C113.634 109.008 113.857 109.041 114.07 109.11H114.21L115.15 106.21L115.75 104.37L121.86 106.06L119.97 109.8L116.41 108.8L115.41 111.8L115.2 112.42H115.11C114.908 112.691 114.649 112.913 114.35 113.07C114.046 113.222 113.71 113.298 113.37 113.29ZM113.37 111C113.34 110.999 113.311 111.009 113.287 111.027C113.264 111.045 113.247 111.071 113.24 111.1C113.232 111.118 113.228 111.137 113.229 111.156C113.229 111.175 113.234 111.194 113.242 111.211C113.251 111.229 113.263 111.244 113.278 111.256C113.294 111.268 113.311 111.276 113.33 111.28V111.28C113.341 111.285 113.353 111.288 113.365 111.288C113.377 111.288 113.389 111.285 113.4 111.28C113.418 111.274 113.433 111.263 113.445 111.249C113.458 111.235 113.466 111.218 113.47 111.2C113.477 111.183 113.481 111.164 113.481 111.145C113.481 111.126 113.477 111.108 113.47 111.09C113.451 111.059 113.423 111.035 113.39 111.02L113.37 111ZM118.9 107.47V107.38L116.98 106.85V106.92L118.9 107.47Z" fill="#4638C7"/>
<path d="M114.06 112.49C114.236 112.402 114.393 112.279 114.521 112.13C114.65 111.981 114.748 111.807 114.81 111.62V111.62L115.96 108.05L119.61 109.11L120.91 106.52L116.12 105.18L115.51 107.05L114.51 110.15C114.357 109.975 114.165 109.837 113.95 109.748C113.735 109.659 113.502 109.62 113.27 109.636C113.038 109.652 112.812 109.721 112.611 109.838C112.41 109.955 112.239 110.118 112.111 110.312C111.983 110.507 111.901 110.728 111.873 110.959C111.845 111.19 111.87 111.425 111.948 111.644C112.025 111.864 112.152 112.063 112.319 112.225C112.486 112.387 112.688 112.509 112.91 112.58C113.058 112.631 113.213 112.658 113.37 112.66C113.61 112.658 113.846 112.6 114.06 112.49V112.49ZM119.85 106.98L119.22 108.22L116.22 107.34L116.62 106.08L119.85 106.98ZM112.64 110.91C112.689 110.754 112.786 110.618 112.917 110.521C113.048 110.424 113.207 110.371 113.37 110.37C113.45 110.361 113.53 110.361 113.61 110.37C113.707 110.402 113.797 110.452 113.875 110.519C113.952 110.586 114.015 110.668 114.06 110.76C114.134 110.946 114.134 111.154 114.06 111.34V111.34C114.029 111.438 113.978 111.528 113.911 111.605C113.844 111.682 113.762 111.745 113.67 111.79C113.578 111.83 113.48 111.85 113.38 111.85C113.28 111.85 113.181 111.83 113.09 111.79C112.924 111.72 112.787 111.593 112.705 111.432C112.623 111.271 112.6 111.086 112.64 110.91V110.91Z" fill="white"/>
<path d="M104.45 337C104.023 336.866 103.667 336.57 103.457 336.175C103.247 335.78 103.202 335.318 103.33 334.89L103.87 333.16C103.266 332.836 102.779 332.331 102.476 331.716C102.173 331.101 102.069 330.407 102.18 329.73L102.41 328.3C101.816 328.098 101.32 327.681 101.02 327.13C100.654 326.434 100.514 325.64 100.62 324.86L102.46 306.37C102.501 305.943 102.627 305.528 102.828 305.15C103.03 304.771 103.305 304.436 103.637 304.164C103.968 303.892 104.351 303.688 104.761 303.563C105.172 303.439 105.603 303.397 106.03 303.44L137.75 306.59C137.97 306.613 138.188 306.657 138.4 306.72C139.119 306.944 139.739 307.41 140.155 308.039C140.57 308.668 140.756 309.42 140.68 310.17L140.31 313.95H140.45C140.595 313.974 140.739 314.007 140.88 314.05C141.565 314.26 142.16 314.693 142.57 315.28C142.822 315.629 143.002 316.024 143.1 316.443C143.198 316.862 143.211 317.296 143.14 317.72L142.44 322.41L145.35 323.31C145.562 323.375 145.759 323.481 145.929 323.623C146.1 323.764 146.241 323.938 146.344 324.134C146.447 324.33 146.511 324.545 146.531 324.765C146.55 324.986 146.527 325.209 146.46 325.42L140.04 346.21C139.906 346.634 139.611 346.988 139.218 347.196C138.825 347.404 138.366 347.449 137.94 347.32L104.45 337ZM138.32 345.54L144.65 325.04L111.47 314.79L105.13 335.29L138.32 345.54ZM140.32 315.83H140.13L108.75 310.52C108.374 310.46 107.99 310.55 107.68 310.77C107.526 310.878 107.395 311.016 107.295 311.176C107.196 311.336 107.129 311.514 107.1 311.7L104.03 330.03C103.996 330.215 104 330.406 104.041 330.59C104.082 330.773 104.16 330.947 104.27 331.1C104.332 331.184 104.402 331.261 104.48 331.33L109.75 314.1C109.884 313.676 110.179 313.322 110.572 313.114C110.965 312.906 111.424 312.862 111.85 312.99L140.64 321.88L141.3 317.45C141.335 317.262 141.331 317.068 141.29 316.881C141.249 316.694 141.171 316.517 141.06 316.36C140.882 316.108 140.625 315.921 140.33 315.83H140.32ZM137.83 308.48C137.739 308.45 137.645 308.429 137.55 308.42L105.84 305.27C105.48 305.243 105.122 305.354 104.84 305.58C104.691 305.703 104.567 305.855 104.478 306.027C104.389 306.199 104.335 306.387 104.32 306.58L102.48 325.08C102.426 325.483 102.488 325.892 102.66 326.26C102.691 326.317 102.728 326.371 102.77 326.42L105.28 311.42C105.35 310.996 105.504 310.589 105.731 310.224C105.959 309.859 106.257 309.543 106.607 309.293C106.957 309.043 107.353 308.864 107.772 308.768C108.192 308.671 108.626 308.658 109.05 308.73L138.52 313.66L138.89 310.01C138.923 309.672 138.836 309.333 138.644 309.053C138.452 308.773 138.167 308.57 137.84 308.48H137.83Z" fill="#FF76EC"/>
<path d="M145.17 323.88L111.69 313.54C111.41 313.455 111.108 313.485 110.85 313.621C110.592 313.758 110.398 313.991 110.31 314.27L104.75 332.18C104.29 332.033 103.898 331.723 103.648 331.31C103.398 330.896 103.307 330.406 103.39 329.93L106.45 311.6C106.492 311.339 106.586 311.088 106.726 310.863C106.866 310.638 107.049 310.444 107.265 310.29C107.481 310.137 107.725 310.027 107.983 309.969C108.242 309.911 108.509 309.904 108.77 309.95L140.23 315.18C140.491 315.222 140.742 315.316 140.967 315.456C141.192 315.596 141.386 315.779 141.54 315.995C141.694 316.211 141.803 316.455 141.861 316.713C141.919 316.972 141.926 317.239 141.88 317.5L141.14 322.5L141.81 322.6L142.56 317.6C142.676 316.895 142.507 316.172 142.091 315.591C141.675 315.01 141.045 314.618 140.34 314.5L139.67 314.39L140.1 310.07C140.17 309.361 139.955 308.653 139.503 308.101C139.051 307.55 138.399 307.201 137.69 307.13L105.98 303.97C105.623 303.927 105.262 303.956 104.916 304.055C104.571 304.154 104.249 304.321 103.969 304.547C103.69 304.773 103.458 305.052 103.288 305.368C103.118 305.685 103.014 306.032 102.98 306.39L101.14 324.88C101.052 325.542 101.167 326.215 101.47 326.81C101.591 327.033 101.755 327.23 101.952 327.39C102.15 327.549 102.377 327.668 102.62 327.74C102.75 327.782 102.884 327.809 103.02 327.82L102.7 329.82C102.595 330.456 102.722 331.109 103.057 331.66C103.393 332.211 103.916 332.622 104.53 332.82L103.84 335.05C103.797 335.189 103.781 335.336 103.794 335.481C103.808 335.626 103.849 335.767 103.917 335.896C103.985 336.025 104.077 336.14 104.189 336.233C104.302 336.326 104.431 336.397 104.57 336.44L138.05 346.78C138.33 346.865 138.632 346.835 138.89 346.699C139.148 346.562 139.342 346.329 139.43 346.05L145.85 325.26C145.934 324.987 145.911 324.691 145.784 324.435C145.658 324.178 145.438 323.98 145.17 323.88V323.88ZM102.11 326.51C101.882 326.038 101.799 325.509 101.87 324.99L103.71 306.49C103.762 305.962 104.021 305.477 104.43 305.14C104.635 304.97 104.871 304.843 105.125 304.766C105.379 304.689 105.646 304.663 105.91 304.69L137.62 307.84C137.884 307.865 138.141 307.942 138.375 308.067C138.609 308.192 138.815 308.362 138.983 308.568C139.15 308.774 139.275 309.011 139.35 309.265C139.425 309.52 139.449 309.786 139.42 310.05L139 314.31L108.91 309.31C108.206 309.194 107.485 309.362 106.904 309.776C106.323 310.19 105.93 310.817 105.81 311.52L103.19 327.18C102.968 327.167 102.753 327.099 102.565 326.982C102.376 326.865 102.22 326.703 102.11 326.51V326.51ZM138.83 345.86C138.796 345.966 138.721 346.055 138.622 346.108C138.523 346.16 138.407 346.171 138.3 346.14L104.82 335.8C104.766 335.783 104.716 335.755 104.673 335.719C104.63 335.683 104.594 335.638 104.568 335.588C104.542 335.538 104.526 335.483 104.521 335.427C104.517 335.37 104.523 335.314 104.54 335.26L110.96 314.47C110.995 314.364 111.069 314.275 111.168 314.222C111.267 314.17 111.383 314.159 111.49 314.19L144.97 324.53C145.024 324.547 145.074 324.575 145.117 324.611C145.16 324.647 145.196 324.692 145.222 324.742C145.248 324.792 145.264 324.847 145.269 324.903C145.273 324.959 145.267 325.016 145.25 325.07L138.83 345.86Z" fill="white"/>
<path d="M109.599 329.95L109.056 331.708L122.432 335.84L122.975 334.082L109.599 329.95Z" fill="#FF76EC"/>
<path d="M109.982 330.675L109.781 331.325L122.059 335.118L122.26 334.468L109.982 330.675Z" fill="white"/>
<path d="M111.041 333.753L110.489 335.519L118.668 338.075L119.22 336.309L111.041 333.753Z" fill="#FF76EC"/>
<path d="M109.187 333.299L108.986 333.948L116.018 336.121L116.219 335.471L109.187 333.299Z" fill="white"/>
<path d="M109.75 328.27L111.7 321.96L119.7 324.41L117.7 330.72L109.75 328.27ZM116.49 328.42L117.35 325.62L112.91 324.25L112.05 327.05L116.49 328.42Z" fill="#FF76EC"/>
<path d="M118.94 324.79L112.09 322.68L110.49 327.88L117.33 330L118.94 324.79ZM116.88 329.18L111.34 327.46L112.54 323.56L118.09 325.27L116.88 329.18Z" fill="white"/>
<path d="M132.39 342.51C131.52 342.24 130.75 341.717 130.178 341.008C129.605 340.3 129.256 339.437 129.174 338.53C129.093 337.622 129.282 336.711 129.719 335.912C130.156 335.112 130.82 334.461 131.628 334.039C132.436 333.618 133.35 333.446 134.256 333.545C135.161 333.644 136.017 334.01 136.715 334.596C137.412 335.182 137.92 335.961 138.174 336.836C138.427 337.711 138.416 338.642 138.14 339.51C137.77 340.667 136.958 341.631 135.882 342.192C134.805 342.754 133.55 342.868 132.39 342.51ZM134.56 335.51C134.038 335.351 133.481 335.35 132.959 335.507C132.437 335.664 131.973 335.972 131.626 336.393C131.279 336.813 131.064 337.327 131.009 337.869C130.953 338.412 131.06 338.958 131.315 339.44C131.57 339.922 131.962 340.318 132.441 340.577C132.921 340.837 133.466 340.949 134.009 340.898C134.552 340.848 135.068 340.638 135.492 340.295C135.915 339.952 136.228 339.491 136.39 338.97C136.504 338.62 136.547 338.251 136.517 337.884C136.486 337.518 136.383 337.161 136.212 336.835C136.042 336.509 135.808 336.22 135.524 335.986C135.24 335.751 134.912 335.576 134.56 335.47V335.51Z" fill="#FF76EC"/>
<path d="M134.93 334.27C134.173 334.04 133.366 334.039 132.609 334.268C131.852 334.496 131.18 334.944 130.677 335.555C130.175 336.165 129.865 336.911 129.786 337.698C129.707 338.485 129.863 339.277 130.235 339.975C130.606 340.673 131.176 341.246 131.872 341.62C132.569 341.994 133.361 342.154 134.148 342.078C134.935 342.003 135.682 341.696 136.295 341.196C136.907 340.696 137.358 340.026 137.59 339.27C137.744 338.767 137.798 338.238 137.748 337.715C137.697 337.191 137.544 336.682 137.297 336.218C137.05 335.754 136.714 335.342 136.308 335.008C135.901 334.674 135.433 334.423 134.93 334.27V334.27ZM132.76 341.27C132.129 341.074 131.57 340.696 131.155 340.182C130.739 339.669 130.485 339.044 130.424 338.386C130.364 337.728 130.499 337.067 130.815 336.487C131.13 335.906 131.61 335.432 132.194 335.124C132.779 334.817 133.442 334.689 134.099 334.758C134.756 334.827 135.377 335.089 135.885 335.512C136.393 335.934 136.765 336.497 136.952 337.131C137.14 337.764 137.136 338.439 136.94 339.07C136.813 339.493 136.604 339.886 136.324 340.227C136.044 340.569 135.7 340.851 135.31 341.059C134.92 341.266 134.494 341.394 134.054 341.435C133.615 341.477 133.171 341.431 132.75 341.3L132.76 341.27Z" fill="white"/>
<path d="M349.05 277.95C348.508 277.953 347.972 277.837 347.48 277.61L326.68 268.05C326.429 267.939 326.204 267.778 326.019 267.577C325.833 267.376 325.69 267.139 325.6 266.88C325.505 266.626 325.462 266.355 325.472 266.084C325.483 265.813 325.546 265.546 325.66 265.3L331.2 253.3L331.42 252.82L324.98 238.82L328.19 237.35L333.39 248.68L340.24 233.63C340.354 233.382 340.516 233.158 340.717 232.973C340.918 232.788 341.153 232.644 341.41 232.55C341.636 232.463 341.877 232.419 342.12 232.42C342.421 232.417 342.718 232.482 342.99 232.61L363.79 242.17C364.765 242.659 365.506 243.515 365.851 244.55C366.196 245.584 366.116 246.714 365.63 247.69L352.87 275.46C352.542 276.204 352.008 276.838 351.331 277.288C350.654 277.738 349.863 277.985 349.05 278V277.95ZM349.37 276.15C349.781 276.078 350.168 275.905 350.496 275.646C350.824 275.388 351.083 275.053 351.25 274.67L364.02 246.9C364.199 246.523 364.283 246.108 364.264 245.691C364.245 245.274 364.123 244.869 363.91 244.51L362.41 247.78C362.401 247.94 362.36 248.096 362.29 248.24L352.53 269.47C352.465 269.619 352.373 269.754 352.26 269.87L349.37 276.15ZM327.28 266.04C327.249 266.111 327.246 266.19 327.272 266.263C327.298 266.336 327.351 266.396 327.42 266.43L347.35 275.59H347.47H347.57C347.641 275.563 347.698 275.509 347.73 275.44L350.27 269.91L329.82 260.51L327.28 266.04ZM351.02 268.3L360.42 247.85L340.02 238.48L334.38 250.8L336.48 255.37L336.35 259.46L333.27 256.83L332.4 254.94L330.61 258.94L351.02 268.3ZM361.16 246.23L362.31 243.72C362.328 243.686 362.337 243.648 362.337 243.61C362.337 243.572 362.328 243.534 362.31 243.5C362.283 243.429 362.229 243.372 362.16 243.34L342.25 234.18C342.207 234.17 342.163 234.17 342.12 234.18H342.02C341.949 234.207 341.892 234.261 341.86 234.33L340.75 236.84L361.16 246.23Z" fill="#00DAEB"/>
<path d="M363.56 242.63L362.68 242.23L342.75 233.07C342.386 232.909 341.973 232.896 341.6 233.034C341.226 233.172 340.921 233.451 340.75 233.81L333.39 249.97L327.91 238.04L325.73 239.04L332.04 252.8L331.97 252.94L331.71 253.51L326.17 265.51C326.091 265.693 326.05 265.89 326.05 266.09C326.05 266.289 326.091 266.487 326.17 266.67C326.236 266.857 326.34 267.028 326.474 267.174C326.608 267.32 326.77 267.438 326.95 267.52L345.75 276.18L347.75 277.1C348.167 277.293 348.621 277.392 349.08 277.39C349.785 277.374 350.47 277.158 351.056 276.766C351.643 276.375 352.105 275.825 352.39 275.18L365.15 247.41C365.571 246.565 365.64 245.587 365.342 244.692C365.044 243.796 364.403 243.054 363.56 242.63V242.63ZM341.35 234.09C341.396 233.988 341.463 233.896 341.545 233.821C341.628 233.745 341.724 233.687 341.83 233.65C342.038 233.565 342.272 233.565 342.48 233.65L360.85 242.1L362.41 242.81C362.613 242.907 362.771 243.079 362.85 243.29C362.894 243.392 362.917 243.503 362.917 243.615C362.917 243.727 362.894 243.837 362.85 243.94L361.46 246.94L340.14 237.18L339.96 237.12L341.35 234.09ZM351.25 269.03L329.99 259.26C329.959 259.243 329.936 259.215 329.925 259.182C329.914 259.148 329.916 259.112 329.93 259.08L332.31 253.77L332.4 253.59L333.7 256.42V256.48L335.79 258.28L335.89 255.49L333.75 250.8L339.67 237.85C339.685 237.82 339.711 237.797 339.743 237.786C339.775 237.774 339.809 237.776 339.84 237.79L361.1 247.56L351.23 269.01L351.25 269.03ZM327.59 238.92L335.25 255.62V256.88L334.31 256.08L326.64 239.37L327.59 238.92ZM326.75 265.81L329.54 259.76C329.59 259.796 329.643 259.826 329.7 259.85L350.96 269.63L348.18 275.63C348.135 275.733 348.069 275.825 347.987 275.901C347.904 275.977 347.806 276.034 347.7 276.07C347.492 276.155 347.258 276.155 347.05 276.07L327.13 266.91C326.939 266.809 326.793 266.639 326.722 266.435C326.652 266.231 326.662 266.007 326.75 265.81ZM364.53 247.18L351.75 274.9C351.476 275.563 350.968 276.103 350.324 276.418C349.679 276.733 348.942 276.801 348.25 276.61C348.503 276.454 348.704 276.228 348.83 275.96L351.83 269.53C351.925 269.451 352 269.352 352.05 269.24L361.75 248.01C361.807 247.899 361.831 247.774 361.82 247.65L363.39 244.23C363.519 243.963 363.561 243.662 363.51 243.37C364.122 243.766 364.565 244.374 364.754 245.078C364.942 245.782 364.862 246.531 364.53 247.18V247.18Z" fill="white"/>
<path d="M338.07 270.69C337.652 270.691 337.238 270.599 336.86 270.42C336.514 270.264 336.204 270.04 335.946 269.762C335.688 269.483 335.489 269.156 335.36 268.8C335.197 268.363 335.142 267.892 335.2 267.429C335.259 266.966 335.428 266.524 335.694 266.141C335.961 265.757 336.316 265.444 336.73 265.228C337.143 265.012 337.603 264.9 338.07 264.9C338.487 264.902 338.899 264.99 339.28 265.16C339.878 265.438 340.363 265.911 340.656 266.502C340.949 267.093 341.032 267.766 340.891 268.41C340.75 269.054 340.394 269.631 339.881 270.045C339.368 270.46 338.729 270.687 338.07 270.69V270.69ZM338.07 266.69C337.792 266.716 337.535 266.845 337.347 267.051C337.16 267.257 337.056 267.526 337.056 267.805C337.056 268.084 337.16 268.352 337.347 268.559C337.535 268.765 337.792 268.894 338.07 268.92C338.203 268.916 338.334 268.892 338.46 268.85C338.597 268.799 338.722 268.722 338.828 268.622C338.935 268.523 339.02 268.403 339.08 268.27C339.142 268.137 339.175 267.992 339.175 267.845C339.175 267.698 339.142 267.553 339.08 267.42C339.031 267.281 338.954 267.154 338.854 267.046C338.755 266.937 338.634 266.85 338.5 266.79C338.367 266.721 338.22 266.684 338.07 266.68V266.69Z" fill="#00DAEB"/>
<path d="M339.04 265.67C338.478 265.413 337.836 265.389 337.257 265.605C336.677 265.821 336.207 266.258 335.95 266.82C335.693 267.382 335.67 268.024 335.885 268.603C336.101 269.183 336.538 269.653 337.1 269.91C337.412 270.06 337.754 270.135 338.1 270.13C338.377 270.129 338.651 270.079 338.91 269.98C339.344 269.821 339.722 269.536 339.993 269.162C340.265 268.787 340.42 268.341 340.437 267.879C340.454 267.416 340.333 266.959 340.09 266.566C339.846 266.173 339.491 265.861 339.07 265.67H339.04ZM339.59 268.49C339.499 268.69 339.368 268.87 339.207 269.019C339.046 269.169 338.857 269.285 338.65 269.361C338.444 269.437 338.225 269.472 338.005 269.463C337.785 269.454 337.57 269.402 337.37 269.31C337.022 269.152 336.739 268.879 336.568 268.537C336.397 268.195 336.349 267.805 336.431 267.432C336.513 267.059 336.72 266.725 337.018 266.486C337.317 266.247 337.688 266.118 338.07 266.12C338.311 266.121 338.55 266.172 338.77 266.27C338.97 266.362 339.15 266.492 339.299 266.653C339.448 266.814 339.564 267.004 339.64 267.21C339.719 267.416 339.755 267.635 339.746 267.855C339.738 268.075 339.684 268.291 339.59 268.49V268.49Z" fill="white"/>
<path d="M345.44 262.4C345.184 262.401 344.931 262.342 344.7 262.23C344.381 262.055 344.105 261.812 343.891 261.518C343.677 261.224 343.529 260.887 343.46 260.53L343.37 260.19C343.32 260.01 343.28 259.83 343.23 259.68C342.939 259.78 342.655 259.901 342.38 260.04C341.66 260.436 340.86 260.665 340.04 260.71H339.91C339.114 260.672 338.361 260.337 337.8 259.77C337.166 260.032 336.486 260.162 335.8 260.15C335.219 260.145 334.642 260.068 334.08 259.92L333.53 259.79L333.97 258.06L334.51 258.19C334.935 258.3 335.371 258.357 335.81 258.36C336.18 258.367 336.548 258.313 336.9 258.2C336.766 257.558 336.846 256.889 337.127 256.297C337.409 255.705 337.877 255.221 338.46 254.92L339.24 254.5L339.67 255.27C339.96 255.814 340.075 256.434 340 257.046C339.925 257.658 339.663 258.232 339.25 258.69C339.456 258.834 339.699 258.917 339.95 258.93H340.02C340.569 258.873 341.1 258.702 341.58 258.43C342.029 258.204 342.497 258.02 342.98 257.88C343.133 257.837 343.291 257.813 343.45 257.81C343.603 257.811 343.756 257.838 343.9 257.89C344.178 258.004 344.413 258.204 344.57 258.46C344.811 258.861 344.981 259.301 345.07 259.76C345.07 259.86 345.07 259.95 345.14 260.05C345.176 260.174 345.223 260.294 345.28 260.41V260.33L347.06 260.4V260.96C347.051 261.206 346.979 261.445 346.851 261.655C346.723 261.865 346.544 262.039 346.33 262.16C346.06 262.318 345.753 262.4 345.44 262.4Z" fill="#00DAEB"/>
<path d="M345.75 261.11C345.675 261.146 345.593 261.165 345.51 261.165C345.427 261.165 345.345 261.146 345.27 261.11C345.109 261.004 344.972 260.865 344.867 260.704C344.762 260.542 344.691 260.36 344.66 260.17C344.66 260.07 344.61 259.97 344.58 259.86C344.508 259.465 344.365 259.085 344.16 258.74C344.069 258.582 343.929 258.459 343.76 258.39C343.576 258.325 343.375 258.325 343.19 258.39C342.746 258.523 342.315 258.693 341.9 258.9C341.317 259.236 340.662 259.428 339.99 259.46C339.701 259.443 339.419 259.364 339.163 259.228C338.908 259.091 338.685 258.901 338.51 258.67C338.984 258.313 339.317 257.801 339.451 257.223C339.584 256.645 339.51 256.038 339.24 255.51L339.08 255.23L338.79 255.39C338.306 255.635 337.918 256.035 337.688 256.526C337.458 257.017 337.399 257.571 337.52 258.1C337.549 258.23 337.59 258.357 337.64 258.48C336.633 258.942 335.493 259.024 334.43 258.71L334.27 259.35C335.497 259.72 336.819 259.613 337.97 259.05C338.205 259.364 338.506 259.622 338.851 259.807C339.197 259.992 339.579 260.099 339.97 260.12C340.746 260.094 341.504 259.882 342.18 259.5C342.561 259.306 342.96 259.149 343.37 259.03C343.423 259.018 343.477 259.018 343.53 259.03C343.53 259.03 343.53 259.03 343.62 259.13C343.782 259.416 343.893 259.727 343.95 260.05L344.04 260.38C344.093 260.66 344.205 260.925 344.369 261.158C344.533 261.39 344.745 261.586 344.99 261.73C345.143 261.802 345.311 261.839 345.48 261.84C345.696 261.844 345.908 261.785 346.09 261.67C346.223 261.598 346.335 261.493 346.416 261.365C346.496 261.237 346.542 261.091 346.55 260.94H345.89C345.882 260.977 345.865 261.012 345.841 261.042C345.816 261.072 345.785 261.095 345.75 261.11V261.11ZM338.16 257.98C338.077 257.655 338.088 257.313 338.192 256.994C338.297 256.675 338.49 256.393 338.75 256.18C338.832 256.522 338.819 256.88 338.711 257.215C338.604 257.551 338.406 257.85 338.14 258.08L338.16 257.98Z" fill="white"/>
<defs>
<radialGradient id="paint0_radial_363_2891" cx="0" cy="0" r="1" gradientUnits="userSpaceOnUse" gradientTransform="translate(236.836 232.684) scale(236.585 232.786)">
<stop stop-color="#61EFF5"/>
<stop offset="0.03" stop-color="#5BE7F6" stop-opacity="0.93"/>
<stop offset="0.14" stop-color="#46CBF8" stop-opacity="0.72"/>
<stop offset="0.25" stop-color="#33B3FA" stop-opacity="0.53"/>
<stop offset="0.36" stop-color="#239FFB" stop-opacity="0.36"/>
<stop offset="0.48" stop-color="#178EFD" stop-opacity="0.23"/>
<stop offset="0.59" stop-color="#0D81FE" stop-opacity="0.13"/>
<stop offset="0.72" stop-color="#0678FE" stop-opacity="0.06"/>
<stop offset="0.85" stop-color="#0173FF" stop-opacity="0.01"/>
<stop offset="1" stop-color="#0071FF" stop-opacity="0"/>
</radialGradient>
</defs>
</svg>
