<svg width="562" height="648" viewBox="0 0 562 648" fill="none" xmlns="http://www.w3.org/2000/svg">
<g clip-path="url(#clip0_341_6245)">
<path d="M74.3129 262.114C75.8454 260.242 74.94 256.967 72.2906 254.797C69.6412 252.628 66.2511 252.387 64.7187 254.259C63.1862 256.13 64.0916 259.406 66.741 261.575C69.3904 263.745 72.7804 263.986 74.3129 262.114Z" fill="#AADBEC"/>
<path d="M59.9139 280.713C61.4464 278.841 60.541 275.565 57.8916 273.396C55.2422 271.227 51.8522 270.985 50.3197 272.857C48.7872 274.729 49.6926 278.005 52.342 280.174C54.9914 282.343 58.3815 282.584 59.9139 280.713Z" fill="#AADBEC"/>
<path d="M55.446 305.912C58.9584 305.879 61.7877 303.94 61.7655 301.582C61.7433 299.224 58.8779 297.339 55.3656 297.372C51.8532 297.405 49.0239 299.344 49.0461 301.702C49.0683 304.06 51.9337 305.945 55.446 305.912Z" fill="#AADBEC"/>
<path d="M113.86 309.96C113.86 309.96 129.32 355.7 177.69 368.82C177.69 368.82 175.27 373.91 176.24 383.63C176.24 383.63 129.06 377.36 97 318.14L113.86 309.96Z" fill="#253273"/>
<path d="M93.815 253.952C96.3167 253.918 98.3081 251.205 98.263 247.891C98.2179 244.578 96.1533 241.919 93.6517 241.953C91.1501 241.988 89.1586 244.701 89.2037 248.015C89.2489 251.328 91.3134 253.986 93.815 253.952Z" fill="#AADBEC"/>
<path d="M113.86 309.96L113.62 290.08L100.36 274.81L69.9702 297.48L80.9902 314.12L96.9902 318.14L113.86 309.96Z" fill="#D3002A"/>
<path d="M182.27 387H182.38C184.07 387.027 185.701 386.383 186.918 385.21C188.134 384.037 188.836 382.43 188.87 380.74L188.78 373.11C188.705 371.419 187.965 369.827 186.721 368.679C185.478 367.531 183.831 366.92 182.14 366.98H182.04C180.348 366.953 178.714 367.598 177.495 368.773C176.277 369.948 175.574 371.558 175.54 373.25L175.63 380.88C175.705 382.57 176.446 384.161 177.689 385.308C178.933 386.454 180.58 387.062 182.27 387Z" fill="#AADBEC"/>
<path d="M168.44 145.26L208.05 127.05C219.43 121.4 224.35 119.05 232.77 119.81L446.1 130.81C462.94 132.26 475.46 146.44 473.92 162.32L467.85 308.77C467.85 308.77 472.92 337.25 444.45 341.86L402.18 350.1" fill="#AADBEC"/>
<path d="M167.72 346.13L389.96 355.53C406.58 356.24 420.79 343.98 421.54 328.3L428.44 184.23C429.18 168.55 416.19 155.15 399.57 154.45L177.33 145.04C160.71 144.34 146.5 156.59 145.75 172.27L138.9 316.35C138.1 332.02 151.09 345.43 167.72 346.13Z" fill="#B7EEFF"/>
<path d="M356.23 369.49H284.83C279.501 369.49 275.18 373.811 275.18 379.14C275.18 384.47 279.501 388.79 284.83 388.79H356.23C361.56 388.79 365.88 384.47 365.88 379.14C365.88 373.811 361.56 369.49 356.23 369.49Z" fill="#AADBEC"/>
<path d="M367.05 577.85H269.71C249.54 577.85 233.03 562.29 233.03 543.27L253.73 412.27C253.73 399.4 271.79 388.88 285.43 388.88H357.27C370.91 388.88 388.97 399.4 388.97 412.27L402.77 544.2C402.77 562.65 386.69 577.85 367.05 577.85Z" fill="#AADBEC"/>
<path d="M132.44 274.51L141.01 274.87L144.67 197.97L136.1 197.61C134.83 197.524 133.578 197.942 132.614 198.773C131.65 199.604 131.052 200.782 130.95 202.05L127.73 269.65C127.72 270.279 127.833 270.903 128.064 271.488C128.295 272.072 128.639 272.606 129.077 273.057C129.514 273.509 130.037 273.869 130.614 274.119C131.191 274.368 131.812 274.501 132.44 274.51Z" fill="#D3002A"/>
<path d="M447.13 287.92L438.56 287.56L442.22 210.65L450.79 211.02C451.418 211.029 452.038 211.162 452.614 211.41C453.19 211.659 453.712 212.019 454.15 212.469C454.587 212.92 454.931 213.452 455.163 214.035C455.395 214.619 455.509 215.242 455.5 215.87L452.28 283.48C452.178 284.748 451.58 285.926 450.616 286.757C449.652 287.588 448.4 288.006 447.13 287.92Z" fill="#D3002A"/>
<path d="M258.74 420.03C258.74 415.882 255.378 412.52 251.23 412.52C247.083 412.52 243.72 415.882 243.72 420.03V427.73C243.72 431.878 247.083 435.24 251.23 435.24C255.378 435.24 258.74 431.878 258.74 427.73V420.03Z" fill="#AADBEC"/>
<path d="M307.27 106.92L318.73 138.34L292.88 137.25L307.27 106.92Z" fill="#253273"/>
<path d="M290.44 577.85V618.85C290.44 621.61 285.13 623.85 282.8 623.85C280.8 623.85 275.16 621.59 275.16 618.85V577.85H290.44Z" fill="#253273"/>
<path d="M197.71 323.25L358.71 330.07C371.38 330.6 382.11 321.35 382.71 309.4L387.71 203.4C388.28 191.4 378.47 181.33 365.8 180.79L204.8 173.98C192.13 173.45 181.4 182.7 180.8 194.64L175.8 300.64C175.23 312.6 185.04 322.72 197.71 323.25Z" fill="#253273"/>
<path d="M257.28 274.72C256.98 280.88 264.15 286.19 273.28 286.58C282.41 286.97 290.05 282.28 290.35 276.12C290.65 269.96 283.27 268.95 274.13 268.57C264.99 268.19 257.57 268.56 257.28 274.72Z" fill="#B7EEFF"/>
<path d="M307.83 111.7C317.539 111.7 325.41 104.277 325.41 95.12C325.41 85.9632 317.539 78.54 307.83 78.54C298.121 78.54 290.25 85.9632 290.25 95.12C290.25 104.277 298.121 111.7 307.83 111.7Z" fill="#D3002A"/>
<path d="M301.44 351.79C299.24 354.92 298.72 356.13 298.72 360.26C298.743 363.482 299.568 366.647 301.12 369.47H339.95C341.502 366.647 342.327 363.482 342.35 360.26C342.444 357.954 342.104 355.651 341.35 353.47L301.44 351.79Z" fill="#AADBEC"/>
<path d="M394.27 462.85C382.93 455.47 379.04 448.29 357.81 449.59C326.22 451.53 313.05 474.81 287.09 473.03C275.65 472.24 267.64 469.72 248.66 444.25L242.75 481.45L233.03 543.18C233.03 562.18 249.54 577.76 269.71 577.76H367.05C386.69 577.76 402.77 562.61 402.77 544.08L394.27 462.85Z" fill="#B7EEFF"/>
<g opacity="0.4">
<path d="M395.32 473.55C388.543 477.383 381.165 480.037 373.5 481.4C334.97 487.97 311.58 456.57 266.33 459.49C259.321 459.955 252.383 461.182 245.64 463.15L232.98 543.32C232.98 562.32 249.48 577.9 269.65 577.9H366.99C386.64 577.9 402.71 562.74 402.71 544.22L395.32 473.55Z" fill="white"/>
</g>
<path d="M291.09 636.73C283.96 643.47 258.19 647.46 251.09 640.73C250.253 639.957 249.653 638.961 249.36 637.86C247.36 630.4 259.04 618.26 265.29 612.37C268.804 609.111 273.418 607.301 278.21 607.301C283.002 607.301 287.617 609.111 291.13 612.37C292.819 613.918 294.168 615.801 295.091 617.899C296.014 619.996 296.49 622.263 296.49 624.555C296.49 626.846 296.014 629.113 295.091 631.211C294.168 633.308 292.819 635.191 291.13 636.74L291.09 636.73Z" fill="#AADBEC"/>
<path d="M282.44 624.12C276.93 624.12 272.44 620.66 272.44 616.42C272.44 612.18 276.92 608.72 282.44 608.72C287.96 608.72 292.44 612.17 292.44 616.42C292.44 620.67 287.92 624.12 282.44 624.12ZM282.44 609.31C277.28 609.31 273.08 612.5 273.08 616.42C273.08 620.34 277.28 623.53 282.44 623.53C287.6 623.53 291.8 620.34 291.8 616.42C291.8 612.5 287.57 609.31 282.44 609.31Z" fill="white"/>
<path d="M282.44 621.33C278.94 621.33 276.1 619.13 276.1 616.42C276.1 613.71 278.94 611.51 282.44 611.51C285.94 611.51 288.78 613.71 288.78 616.42C288.78 619.13 285.9 621.33 282.44 621.33ZM282.44 612.1C279.29 612.1 276.72 614.04 276.72 616.42C276.72 618.8 279.29 620.74 282.44 620.74C285.59 620.74 288.15 618.8 288.15 616.42C288.15 614.04 285.56 612.1 282.44 612.1Z" fill="#D00029"/>
<path d="M291.29 635.85C284.1 642.61 258.17 646.61 250.98 639.85C250.135 639.073 249.532 638.07 249.24 636.96C249.186 636.763 249.143 636.562 249.11 636.36L249.21 641.1C249.502 642.204 250.106 643.201 250.95 643.97C258.1 650.7 283.95 646.72 291.08 639.97C292.755 638.424 294.096 636.551 295.018 634.466C295.94 632.382 296.424 630.13 296.44 627.85V625.85C295.44 629.53 294.26 633.09 291.29 635.85Z" fill="#253273"/>
<path d="M348.19 577.85V618.85C348.19 621.61 353.5 623.85 355.83 623.85C357.83 623.85 363.47 621.59 363.47 618.85V577.85H348.19Z" fill="#253273"/>
<path d="M347.56 636.73C354.7 643.47 380.47 647.46 387.61 640.73C388.448 639.957 389.048 638.961 389.34 637.86C391.34 630.4 379.66 618.26 373.41 612.37C369.891 609.12 365.276 607.314 360.485 607.314C355.694 607.314 351.079 609.12 347.56 612.37C345.873 613.92 344.527 615.803 343.606 617.901C342.685 619.998 342.209 622.264 342.209 624.555C342.209 626.846 342.685 629.111 343.606 631.209C344.527 633.306 345.873 635.19 347.56 636.74V636.73Z" fill="#AADBEC"/>
<path d="M356.25 624.12C350.74 624.12 346.25 620.66 346.25 616.42C346.25 612.18 350.73 608.72 356.25 608.72C361.77 608.72 366.25 612.17 366.25 616.42C366.25 620.67 361.76 624.12 356.25 624.12ZM356.25 609.31C351.09 609.31 346.89 612.5 346.89 616.42C346.89 620.34 351.09 623.53 356.25 623.53C361.41 623.53 365.61 620.34 365.61 616.42C365.61 612.5 361.44 609.31 356.25 609.31Z" fill="white"/>
<path d="M356.25 621.33C352.75 621.33 349.91 619.13 349.91 616.42C349.91 613.71 352.75 611.51 356.25 611.51C359.75 611.51 362.59 613.71 362.59 616.42C362.59 619.13 359.74 621.33 356.25 621.33ZM356.25 612.1C353.1 612.1 350.54 614.04 350.54 616.42C350.54 618.8 353.1 620.74 356.25 620.74C359.4 620.74 361.96 618.8 361.96 616.42C361.96 614.04 359.44 612.1 356.25 612.1Z" fill="#D00029"/>
<path d="M347.37 635.85C354.55 642.61 380.49 646.61 387.68 639.85C388.524 639.073 389.128 638.07 389.42 636.96C389.474 636.769 389.517 636.576 389.55 636.38L389.45 641.1C389.158 642.204 388.554 643.201 387.71 643.97C380.56 650.7 354.71 646.72 347.58 639.97C345.894 638.417 344.547 636.533 343.623 634.435C342.699 632.338 342.218 630.072 342.21 627.78L342.27 625.87C343.32 631.99 344.44 633.09 347.37 635.85Z" fill="#253273"/>
<path d="M271.62 525.12V528.65H270.62V525.12L267.53 521H268.67L270.36 523.24C270.61 523.59 270.92 524.01 271.17 524.37C271.41 524.01 271.72 523.57 271.97 523.24L273.66 521H274.74L271.62 525.12Z" fill="#253273"/>
<path d="M277.32 528.78C276.763 528.751 276.227 528.559 275.779 528.228C275.33 527.897 274.988 527.442 274.796 526.918C274.603 526.395 274.568 525.827 274.695 525.284C274.822 524.741 275.106 524.248 275.511 523.864C275.916 523.481 276.424 523.225 276.973 523.128C277.522 523.03 278.088 523.096 278.599 523.317C279.111 523.538 279.547 523.905 279.853 524.371C280.159 524.837 280.321 525.383 280.32 525.94C280.316 526.326 280.235 526.707 280.081 527.06C279.927 527.413 279.703 527.732 279.423 527.997C279.143 528.262 278.813 528.468 278.451 528.603C278.09 528.737 277.705 528.798 277.32 528.78ZM277.32 523.93C276.79 523.93 276.281 524.141 275.906 524.516C275.531 524.891 275.32 525.4 275.32 525.93C275.32 526.461 275.531 526.969 275.906 527.344C276.281 527.719 276.79 527.93 277.32 527.93C277.851 527.93 278.359 527.719 278.734 527.344C279.109 526.969 279.32 526.461 279.32 525.93C279.32 525.4 279.109 524.891 278.734 524.516C278.359 524.141 277.851 523.93 277.32 523.93Z" fill="#253273"/>
<path d="M285.58 528.65V527.9C285.399 528.211 285.129 528.461 284.804 528.617C284.48 528.774 284.116 528.831 283.76 528.78C283.485 528.809 283.208 528.781 282.944 528.697C282.681 528.613 282.438 528.476 282.23 528.294C282.022 528.112 281.855 527.888 281.738 527.638C281.621 527.388 281.557 527.116 281.55 526.84V523.22H282.55V526.75C282.55 527.42 283.01 527.98 284 527.98C284.99 527.98 285.52 527.42 285.52 526.75V523.22H286.52V528.65H285.58Z" fill="#253273"/>
<path d="M290.94 524.14C290.8 524.127 290.66 524.127 290.52 524.14C290.287 524.127 290.054 524.166 289.838 524.254C289.621 524.343 289.427 524.478 289.27 524.65C289.112 524.822 288.994 525.027 288.925 525.25C288.856 525.473 288.837 525.709 288.87 525.94V528.7H287.93V523.27H288.87V524.46C288.963 524.081 289.186 523.748 289.501 523.517C289.815 523.287 290.201 523.174 290.59 523.2C290.779 523.197 290.967 523.22 291.15 523.27L290.94 524.14Z" fill="#253273"/>
<path d="M298.38 528.78C296.5 528.78 295.14 527.78 295.14 525.98V520.98H296.14V525.85C296.127 526.132 296.177 526.414 296.285 526.676C296.393 526.937 296.558 527.172 296.766 527.363C296.975 527.554 297.224 527.696 297.494 527.78C297.764 527.864 298.05 527.888 298.33 527.85C298.61 527.879 298.892 527.849 299.16 527.762C299.427 527.675 299.673 527.532 299.882 527.344C300.091 527.155 300.257 526.924 300.37 526.667C300.484 526.409 300.541 526.131 300.54 525.85V520.97H301.54V525.97C301.61 527.74 300.27 528.78 298.38 528.78Z" fill="#253273"/>
<path d="M307.26 528.78C306.482 528.727 305.737 528.449 305.116 527.979C304.495 527.508 304.024 526.867 303.763 526.133C303.501 525.399 303.459 524.604 303.643 523.847C303.826 523.09 304.227 522.403 304.795 521.87C305.364 521.337 306.076 520.982 306.844 520.848C307.611 520.715 308.401 520.808 309.117 521.117C309.832 521.426 310.441 521.938 310.87 522.588C311.299 523.239 311.528 524.001 311.53 524.78C311.521 525.326 311.403 525.864 311.182 526.363C310.961 526.862 310.641 527.312 310.243 527.685C309.845 528.058 309.375 528.348 308.863 528.536C308.35 528.724 307.805 528.807 307.26 528.78ZM307.26 521.78C306.435 521.78 305.644 522.108 305.061 522.691C304.478 523.274 304.15 524.065 304.15 524.89C304.15 525.715 304.478 526.506 305.061 527.089C305.644 527.672 306.435 528 307.26 528C308.085 528 308.876 527.672 309.459 527.089C310.042 526.506 310.37 525.715 310.37 524.89C310.37 524.065 310.042 523.274 309.459 522.691C308.876 522.108 308.085 521.78 307.26 521.78Z" fill="#253273"/>
<path d="M315.44 528.65H312.9V521H315.03C315.309 520.978 315.59 521.013 315.855 521.103C316.12 521.193 316.365 521.336 316.573 521.523C316.781 521.71 316.95 521.937 317.068 522.191C317.186 522.445 317.251 522.72 317.26 523C317.27 523.284 317.199 523.566 317.053 523.811C316.908 524.055 316.695 524.253 316.44 524.38C316.889 524.493 317.29 524.749 317.58 525.11C317.871 525.471 318.036 525.917 318.05 526.38C318.034 526.702 317.953 527.018 317.811 527.309C317.67 527.599 317.472 527.858 317.228 528.07C316.984 528.282 316.7 528.443 316.393 528.542C316.086 528.642 315.762 528.679 315.44 528.65ZM314.88 521.82H313.88V524.07H314.88C315.59 524.07 316.21 523.71 316.21 522.96C316.21 522.21 315.62 521.85 314.89 521.85L314.88 521.82ZM315.21 524.82H313.9V527.82H315.24C315.456 527.848 315.675 527.831 315.884 527.769C316.092 527.708 316.286 527.604 316.453 527.464C316.619 527.324 316.754 527.151 316.85 526.955C316.946 526.76 317.001 526.547 317.01 526.33C317.02 525.38 316.17 524.85 315.22 524.85L315.21 524.82Z" fill="#253273"/>
<path d="M324.89 528.65L323.99 526.59H320.7L319.8 528.65H318.8L322.19 520.89H322.57L325.96 528.65H324.89ZM322.74 523.65C322.62 523.35 322.47 522.95 322.36 522.59C322.25 522.95 322.08 523.35 321.96 523.65L321.07 525.76H323.65L322.74 523.65Z" fill="#253273"/>
<path d="M334.98 528.65L334.65 524.95C334.65 524.37 334.55 523.67 334.52 523.08C334.25 523.66 333.85 524.43 333.52 524.99L331.52 528.7H331.12L329.12 524.99C328.83 524.44 328.48 523.71 328.19 523.1C328.19 523.72 328.11 524.43 328.06 524.95L327.73 528.65H326.8L327.47 521H328.14L330.32 525.11C330.66 525.74 331.08 526.52 331.32 527.17C331.6 526.52 331.99 525.77 332.32 525.1L334.49 521H335.16L335.84 528.65H334.98Z" fill="#253273"/>
<path d="M340.56 528.65V521H341.56V528.65H340.56Z" fill="#253273"/>
<path d="M347.26 528.65V525.11C347.26 524.45 346.79 523.89 345.81 523.89C344.83 523.89 344.29 524.45 344.29 525.11V528.65H343.29V523.22H344.19V523.97C344.41 523.48 344.97 523.09 346.01 523.09C346.285 523.061 346.563 523.089 346.826 523.173C347.089 523.257 347.332 523.394 347.54 523.576C347.748 523.758 347.915 523.982 348.032 524.232C348.149 524.482 348.213 524.754 348.22 525.03V528.65H347.26Z" fill="#253273"/>
<path d="M352.08 528.76H351.68L349.26 523.22H350.26L351.44 525.85C351.61 526.23 351.78 526.72 351.94 527.17C352.1 526.72 352.29 526.24 352.45 525.85L353.59 523.21H354.5L352.08 528.76Z" fill="#253273"/>
<path d="M360.28 525.57L359.75 526.08H356C356.018 526.352 356.089 526.617 356.21 526.861C356.331 527.105 356.499 527.322 356.705 527.501C356.91 527.679 357.149 527.815 357.407 527.901C357.666 527.987 357.939 528.02 358.21 528C358.8 528.014 359.381 527.854 359.88 527.54L359.77 528.41C359.255 528.675 358.679 528.803 358.1 528.78C357.711 528.802 357.322 528.744 356.955 528.612C356.589 528.48 356.252 528.275 355.967 528.01C355.681 527.745 355.452 527.425 355.293 527.069C355.133 526.714 355.047 526.33 355.04 525.94C355.033 525.568 355.101 525.199 355.239 524.853C355.376 524.508 355.582 524.193 355.842 523.928C356.103 523.662 356.414 523.452 356.757 523.308C357.1 523.164 357.468 523.09 357.84 523.09C358.142 523.058 358.447 523.088 358.737 523.177C359.027 523.265 359.296 523.412 359.529 523.607C359.761 523.802 359.952 524.041 360.089 524.312C360.227 524.582 360.309 524.877 360.33 525.18C360.326 525.311 360.309 525.442 360.28 525.57ZM357.9 523.86C357.469 523.868 357.054 524.022 356.722 524.296C356.39 524.57 356.16 524.949 356.07 525.37H359.35C359.36 525.314 359.36 525.256 359.35 525.2C359.344 525.016 359.301 524.835 359.225 524.668C359.148 524.5 359.04 524.35 358.905 524.224C358.77 524.099 358.612 524.001 358.44 523.937C358.267 523.873 358.084 523.843 357.9 523.85V523.86Z" fill="#253273"/>
<path d="M363.01 528.73C362.451 528.747 361.898 528.601 361.42 528.31L361.3 527.31C361.792 527.703 362.4 527.921 363.03 527.93C363.63 527.93 364.03 527.63 364.03 527.17C364.03 526.71 363.68 526.46 363.03 526.26C361.94 525.9 361.33 525.44 361.33 524.58C361.33 523.72 362.1 523.11 363.15 523.11C363.649 523.118 364.14 523.234 364.59 523.45L364.38 524.21C364.015 523.963 363.581 523.837 363.14 523.85C362.61 523.85 362.25 524.14 362.25 524.55C362.25 524.96 362.56 525.17 363.16 525.37C364.27 525.75 364.91 526.24 364.91 527.14C364.91 528.04 364.28 528.73 363.01 528.73Z" fill="#253273"/>
<path d="M369.64 523.94H367.73V527.12C367.73 527.75 368.09 527.98 368.65 527.98C368.844 527.982 369.038 527.948 369.22 527.88L369.13 528.6C368.929 528.676 368.715 528.714 368.5 528.71C368.287 528.735 368.07 528.715 367.865 528.651C367.66 528.587 367.471 528.48 367.311 528.337C367.15 528.194 367.021 528.019 366.933 527.823C366.845 527.627 366.8 527.415 366.8 527.2V523.94H365.66V523.22H366.8V522.07L367.73 521.61V523.22H369.82L369.64 523.94Z" fill="#253273"/>
<path d="M277.23 557.03H269.02V536.1H276.29C279.74 536.1 282.8 538.23 282.8 541.64C282.808 542.323 282.643 542.998 282.322 543.601C282 544.203 281.532 544.716 280.96 545.09C282.08 545.488 283.051 546.22 283.742 547.187C284.432 548.155 284.809 549.311 284.82 550.5C284.82 554.56 281.44 557.03 277.23 557.03ZM275.44 539.85H273.84V544.15H275.44C276.72 544.15 277.91 543.53 277.91 542.02C277.91 540.51 276.74 539.85 275.44 539.85ZM276.3 547.85H273.84V553.33H276.3C277.94 553.33 279.61 552.51 279.61 550.6C279.61 548.69 277.99 547.85 276.32 547.85H276.3Z" fill="#253273"/>
<path d="M297.31 557.48C292.02 557.48 287.7 554.56 287.7 549.48V536.1H293.09V549.16C293.09 551.64 294.8 553.09 297.37 553.09C299.94 553.09 301.65 551.64 301.65 549.16V536.1H306.93V549.51C306.93 554.53 302.63 557.48 297.31 557.48Z" fill="#253273"/>
<path d="M317.95 557.03H310.44V536.1H317.92C324.28 536.1 329.82 540.03 329.82 546.56C329.82 553.09 324.35 557.03 317.95 557.03ZM317.43 540.26H315.69V552.85H317.44C321.26 552.85 324.44 550.75 324.44 546.55C324.44 542.35 321.28 540.26 317.44 540.26H317.43Z" fill="#253273"/>
<path d="M340.2 557.03H332.72V536.1H340.2C346.56 536.1 352.1 540.03 352.1 546.56C352.1 553.09 346.6 557.03 340.2 557.03ZM339.68 540.26H337.94V552.85H339.68C343.5 552.85 346.68 550.75 346.68 546.55C346.68 542.35 343.53 540.26 339.68 540.26Z" fill="#253273"/>
<path d="M364.68 547.67V557.03H359.44V547.78L351.13 536.1H356.9L360.55 541.1C361.132 541.91 361.669 542.752 362.16 543.62H362.23C362.72 542.749 363.261 541.908 363.85 541.1L367.51 536.1H372.9L364.68 547.67Z" fill="#253273"/>
<path d="M397.27 420.03C397.27 415.882 393.908 412.52 389.76 412.52C385.612 412.52 382.25 415.882 382.25 420.03V427.73C382.25 431.878 385.612 435.24 389.76 435.24C393.908 435.24 397.27 431.878 397.27 427.73V420.03Z" fill="#AADBEC"/>
<path d="M325.09 563.24L169.9 576.97L110.47 373.07L265.66 359.33L325.09 563.24Z" fill="#1B2568"/>
<path d="M295.87 486.67L285.61 497.2L267.79 496.8L264.61 472.87L275.66 469.17L291.01 474.65L295.87 486.67Z" fill="#D3002A"/>
<path d="M256.73 472.97C259.335 472.875 261.395 471.381 261.332 469.631C261.269 467.882 259.106 466.54 256.501 466.634C253.895 466.728 251.835 468.223 251.898 469.972C251.961 471.722 254.125 473.064 256.73 472.97Z" fill="#AADBEC"/>
<path d="M253.641 486.522C256.246 486.428 258.306 484.933 258.243 483.184C258.18 481.434 256.017 480.092 253.412 480.186C250.807 480.281 248.746 481.775 248.809 483.525C248.873 485.274 251.036 486.616 253.641 486.522Z" fill="#AADBEC"/>
<path d="M255.316 499.662C257.89 499.246 259.749 497.504 259.469 495.77C259.188 494.036 256.875 492.968 254.302 493.384C251.728 493.8 249.869 495.542 250.149 497.276C250.43 499.01 252.743 500.078 255.316 499.662Z" fill="#AADBEC"/>
<path d="M382.25 419.6C382.25 419.6 314.5 474.6 291.01 474.6L295.87 486.6C295.87 486.6 324.99 484.17 385.27 433.6C385.27 433.6 382.42 432.75 382.27 428.06C382.12 423.37 382.25 419.6 382.25 419.6Z" fill="#253273"/>
<path d="M243.31 241.77C241.981 237.979 239.513 234.69 236.245 232.352C232.977 230.015 229.068 228.743 225.05 228.71H224.92C221.168 228.765 217.511 229.902 214.389 231.984C211.266 234.067 208.812 237.006 207.32 240.45L202.91 238.45C204.778 234.152 207.848 230.485 211.751 227.891C215.654 225.298 220.224 223.887 224.91 223.83H225.08C230.094 223.864 234.974 225.445 239.055 228.357C243.136 231.269 246.218 235.37 247.88 240.1L243.31 241.77Z" fill="#C1EDFD"/>
<path d="M354.18 249.06C352.852 245.269 350.387 241.981 347.121 239.643C343.854 237.306 339.946 236.034 335.93 236H335.79C332.039 236.054 328.383 237.191 325.262 239.274C322.142 241.356 319.689 244.296 318.2 247.74L313.78 245.79C315.651 241.494 318.722 237.829 322.624 235.236C326.527 232.643 331.095 231.231 335.78 231.17H335.95C340.963 231.204 345.844 232.785 349.925 235.697C354.006 238.609 357.088 242.71 358.75 247.44L354.18 249.06Z" fill="#C1EDFD"/>
<path d="M37.2002 182.57C36.2002 182.57 35.2702 182.57 34.3102 182.48C22.6702 181.76 13.2101 176.75 7.67014 168.37C2.13014 159.99 1.23022 149.37 5.12022 138.37C8.93022 127.61 16.9301 117.78 27.6401 110.7C37.3601 104.27 48.5001 100.7 59.0101 100.7C60.0101 100.7 61.0101 100.7 61.9201 100.79C73.5601 101.51 83.0202 106.52 88.5602 114.89C94.1002 123.26 95.0002 133.94 91.1102 144.89C87.3002 155.66 79.3002 165.49 68.5902 172.57C58.8702 179 47.7302 182.57 37.2202 182.57H37.2002ZM59.0101 105.22C49.3801 105.22 39.1301 108.5 30.1401 114.44C20.2501 120.98 12.8801 130 9.40012 139.85C5.99012 149.47 6.72012 158.71 11.4001 165.85C16.0801 172.99 24.4001 177.3 34.5401 177.93C35.4001 177.93 36.2801 178.01 37.1601 178.01C46.7901 178.01 57.0501 174.74 66.0401 168.79C75.9301 162.25 83.3001 153.23 86.7801 143.39C90.1901 133.77 89.4602 124.53 84.7202 117.39C79.9802 110.25 71.7702 105.94 61.5902 105.31C60.7702 105.25 59.8901 105.22 59.0101 105.22Z" fill="#4638C7"/>
<path d="M87.3699 115.67C82.0799 107.67 73.0098 102.9 61.8298 102.2C50.6498 101.5 38.8298 104.94 28.4198 111.85C18.0098 118.76 10.1798 128.33 6.41979 138.85C2.65979 149.37 3.52981 159.63 8.80981 167.62C14.0898 175.61 23.1598 180.4 34.3498 181.09C35.2765 181.15 36.2165 181.18 37.1698 181.18C47.4298 181.18 58.1699 177.77 67.7499 171.45C78.1999 164.54 85.9999 154.96 89.7499 144.45C93.4999 133.94 92.6499 123.66 87.3699 115.67ZM66.8798 170C56.7298 176.71 45.2299 180 34.4999 179.38C23.7699 178.76 15.2498 174.2 10.2598 166.66C5.26976 159.12 4.4898 149.42 8.0498 139.37C11.6098 129.32 19.1998 119.96 29.3498 113.25C38.6498 107.1 49.0698 103.8 59.0098 103.8C59.9198 103.8 60.8299 103.8 61.7299 103.88C72.3699 104.54 80.9798 109.06 85.9698 116.6C90.9598 124.14 91.7398 133.83 88.1798 143.88C84.6198 153.93 77.0198 163.3 66.8798 170Z" fill="white"/>
<path d="M38.44 174.85C30.3 174.85 23.3 172.44 18.19 167.85C16.7625 166.579 15.4993 165.134 14.43 163.55C10.78 158.12 9.63006 151.45 11.0901 144.26C13.2201 133.85 20.82 123.52 31.42 116.62C39.2651 111.392 48.4442 108.522 57.8701 108.35C66.0101 108.35 73.0101 110.75 78.1201 115.35C79.5467 116.616 80.8068 118.057 81.8701 119.64C85.5301 125.08 86.6801 131.75 85.2201 138.93C83.0901 149.34 75.49 159.68 64.88 166.58C57.037 171.805 47.8622 174.674 38.44 174.85ZM57.88 112.91C49.323 113.083 40.9946 115.703 33.88 120.46C24.27 126.71 17.41 135.96 15.52 145.21C14.3 151.21 15.22 156.66 18.18 161.06C19.0319 162.328 20.0398 163.484 21.18 164.5C25.46 168.31 31.41 170.33 38.4 170.33C46.9576 170.152 55.2855 167.529 62.4 162.77C72.01 156.52 78.87 147.27 80.76 138.02C81.98 132.02 81.0601 126.58 78.1001 122.17C77.2507 120.903 76.2425 119.751 75.1001 118.74C70.7801 114.93 64.8301 112.92 57.8401 112.92L57.88 112.91Z" fill="#4638C7"/>
<path d="M77.1299 116.42C66.6699 107.11 47.7599 107.72 32.1299 117.86C21.8399 124.56 14.47 134.55 12.42 144.6C11.04 151.4 12.12 157.69 15.55 162.8C16.5495 164.277 17.7323 165.621 19.07 166.8C24.02 171.21 30.87 173.4 38.37 173.4C47.5151 173.24 56.4228 170.463 64.04 165.4C74.33 158.71 81.7001 148.71 83.7501 138.67C85.1301 131.87 84.05 125.57 80.62 120.46C79.6296 118.973 78.457 117.616 77.1299 116.42ZM82.1299 138.32C80.1299 147.93 73.0699 157.53 63.1299 163.98C48.1299 173.72 30.13 174.39 20.2 165.58C18.966 164.484 17.8741 163.238 16.95 161.87C13.78 157.14 12.78 151.28 14.08 144.93C16.08 135.32 23.14 125.73 33.08 119.27C48.08 109.53 66.0799 108.86 76.0099 117.68C77.2459 118.771 78.3351 120.019 79.2501 121.39C82.4401 126.12 83.4399 131.97 82.1299 138.32Z" fill="white"/>
<path d="M39.4399 167.85C33.4399 167.85 28.1999 166.08 24.4399 162.72C23.3296 161.733 22.3545 160.603 21.5398 159.36C14.5398 148.72 20.8299 132.1 35.4799 122.36C41.7717 118.017 49.1964 115.608 56.8399 115.43C62.8899 115.43 68.0799 117.21 71.8399 120.56C72.9475 121.55 73.9222 122.68 74.7399 123.92C81.7399 134.57 75.4499 151.19 60.7999 160.98C54.4995 165.299 47.0765 167.686 39.4399 167.85ZM56.8299 119.9C50.082 120.081 43.5339 122.229 37.9899 126.08C25.3999 134.49 19.7199 148.31 25.3299 156.88C25.9225 157.789 26.6357 158.613 27.4499 159.33C30.3899 161.95 34.5399 163.33 39.4499 163.33C46.1986 163.145 52.7465 160.994 58.2898 157.14C70.8798 148.73 76.5599 134.92 70.9499 126.35C70.3565 125.439 69.6434 124.612 68.8299 123.89C65.8599 121.29 61.7099 119.91 56.8099 119.91L56.8299 119.9Z" fill="#4638C7"/>
<path d="M70.8698 121.59C62.9798 114.59 48.4198 115.37 36.2498 123.51C22.2498 132.86 16.1698 148.6 22.7098 158.59C23.4545 159.728 24.3455 160.764 25.3598 161.67C28.9498 164.86 33.9198 166.44 39.4198 166.44C46.7775 166.255 53.922 163.93 59.9798 159.75C73.9798 150.39 80.0597 134.66 73.5197 124.67C72.7773 123.53 71.8862 122.494 70.8698 121.59ZM59.0498 158.35C47.4998 166.07 33.7998 166.93 26.4798 160.41C25.5723 159.605 24.7753 158.684 24.1098 157.67C18.1098 148.45 23.9398 133.75 37.1798 124.9C42.9603 120.898 49.7817 118.667 56.8098 118.48C61.8898 118.48 66.4598 119.92 69.7498 122.85C70.6589 123.65 71.4531 124.572 72.1098 125.59C78.1498 134.85 72.2898 149.51 59.0498 158.35Z" fill="white"/>
<path d="M44.53 156.6C44.18 156.6 43.83 156.6 43.53 156.6C41.5643 156.607 39.6276 156.125 37.8945 155.198C36.1614 154.27 34.6864 152.926 33.6022 151.286C32.518 149.646 31.8587 147.763 31.6837 145.805C31.5088 143.847 31.8238 141.876 32.6001 140.07C34.1345 136.007 36.9405 132.549 40.6001 130.21C43.8919 127.985 47.7579 126.763 51.7301 126.69C52.0901 126.69 52.4401 126.69 52.7901 126.69C54.7468 126.729 56.6667 127.23 58.3926 128.153C60.1185 129.076 61.6014 130.394 62.7201 132C66.8901 138.31 63.7201 147.76 55.7201 153.07C52.4132 155.311 48.5241 156.538 44.53 156.6ZM51.6901 131.19C48.6021 131.263 45.6013 132.229 43.0501 133.97C40.2192 135.766 38.0392 138.423 36.8301 141.55C36.2887 142.693 36.0514 143.956 36.1413 145.218C36.2311 146.48 36.6449 147.697 37.3428 148.751C38.0406 149.806 38.999 150.663 40.1249 151.239C41.2508 151.815 42.5063 152.091 43.77 152.04H44.53C47.6197 151.967 50.6228 151.005 53.1801 149.27C59.1201 145.34 61.68 138.71 58.88 134.49C58.1423 133.477 57.177 132.652 56.0619 132.08C54.9468 131.509 53.7131 131.207 52.4601 131.2C52.2101 131.2 51.9501 131.19 51.6901 131.19Z" fill="#4638C7"/>
<path d="M52.6498 128.12C48.6347 128.03 44.6879 129.169 41.3372 131.383C37.9865 133.597 35.3917 136.781 33.8998 140.51C33.1998 142.107 32.9112 143.855 33.0601 145.592C33.2091 147.33 33.7909 149.003 34.7525 150.457C35.7141 151.912 37.0249 153.103 38.5651 153.921C40.1054 154.739 41.826 155.158 43.5699 155.14H44.5699C48.2699 155.076 51.8706 153.932 54.9299 151.85C62.2999 146.98 65.2598 138.41 61.5198 132.76C60.5138 131.34 59.1852 130.179 57.6433 129.373C56.1013 128.566 54.39 128.137 52.6498 128.12ZM53.9699 150.48C50.9507 152.558 47.3429 153.61 43.6799 153.48C42.1944 153.52 40.7233 153.181 39.4052 152.495C38.0871 151.809 36.9654 150.798 36.1459 149.558C35.3265 148.319 34.8363 146.891 34.7215 145.409C34.6067 143.928 34.8712 142.441 35.4899 141.09C36.7952 137.67 39.1694 134.763 42.2598 132.8C45.0443 130.904 48.3216 129.861 51.6899 129.8C51.9799 129.8 52.2699 129.8 52.5499 129.8C54.0257 129.817 55.4768 130.181 56.7852 130.864C58.0936 131.547 59.2225 132.529 60.0799 133.73C63.2999 138.6 60.5599 146.12 53.9699 150.48Z" fill="white"/>
<path d="M48.11 146.4C47.0187 146.399 45.9608 146.023 45.1128 145.336C44.2649 144.649 43.6782 143.692 43.4506 142.625C43.223 141.557 43.3682 140.444 43.8622 139.471C44.3562 138.498 45.1689 137.723 46.1648 137.277C47.1607 136.831 48.2796 136.739 49.3347 137.018C50.3899 137.297 51.3174 137.929 51.9627 138.81C52.6079 139.69 52.9318 140.765 52.8804 141.855C52.829 142.945 52.4052 143.984 51.68 144.8C51.2298 145.301 50.6795 145.703 50.0646 145.978C49.4497 146.254 48.7839 146.398 48.11 146.4ZM48.11 141.4C48.0432 141.399 47.9787 141.424 47.93 141.47C47.8899 141.515 47.8678 141.574 47.8678 141.635C47.8678 141.696 47.8899 141.754 47.93 141.8C47.9494 141.82 47.9729 141.835 47.9987 141.846C48.0245 141.856 48.0522 141.861 48.08 141.86C48.1139 141.86 48.1475 141.853 48.1785 141.839C48.2095 141.825 48.2373 141.805 48.2599 141.78C48.3004 141.733 48.3218 141.672 48.32 141.61C48.3123 141.549 48.2841 141.493 48.24 141.45C48.2047 141.424 48.1635 141.406 48.12 141.4H48.11Z" fill="#4638C7"/>
<path d="M50.3401 139.13C49.6763 138.543 48.8069 138.242 47.9222 138.295C47.0376 138.347 46.2098 138.748 45.6201 139.41C45.1822 139.904 44.9005 140.517 44.8108 141.171C44.721 141.825 44.8272 142.491 45.1158 143.085C45.4045 143.679 45.8627 144.174 46.4326 144.508C47.0025 144.841 47.6584 144.998 48.3175 144.959C48.9766 144.92 49.6094 144.686 50.1359 144.288C50.6623 143.889 51.0588 143.344 51.2753 142.72C51.4917 142.096 51.5184 141.422 51.3519 140.783C51.1855 140.144 50.8334 139.569 50.3401 139.13ZM49.3401 142.73C49.1224 142.976 48.8366 143.152 48.5189 143.235C48.2012 143.319 47.8659 143.306 47.5553 143.199C47.2447 143.092 46.9729 142.895 46.7743 142.634C46.5757 142.372 46.4592 142.057 46.4396 141.729C46.4199 141.401 46.4981 141.075 46.6641 140.791C46.83 140.508 47.0765 140.28 47.3721 140.136C47.6676 139.993 47.999 139.941 48.3245 139.986C48.6499 140.031 48.9546 140.171 49.2001 140.39C49.3636 140.533 49.4966 140.708 49.5911 140.904C49.6856 141.1 49.7396 141.313 49.7501 141.53C49.7842 141.966 49.644 142.397 49.3601 142.73H49.3401Z" fill="white"/>
<path d="M85.1602 193.13C83.7221 193.126 82.3377 192.583 81.2811 191.607C80.2245 190.632 79.5727 189.295 79.4545 187.862C79.3363 186.428 79.7604 185.003 80.643 183.868C81.5255 182.732 82.8021 181.969 84.2202 181.73C84.5309 181.678 84.8452 181.651 85.1602 181.65H85.4202L83.8302 172.11L82.9903 167.11L103.77 156.23L107.83 180.55H107.64C107.528 181.813 106.998 183.003 106.134 183.932C105.271 184.861 104.122 185.476 102.87 185.68C102.54 185.734 102.205 185.761 101.87 185.76C100.432 185.756 99.0477 185.213 97.9911 184.237C96.9345 183.262 96.2826 181.925 96.1644 180.492C96.0463 179.058 96.4704 177.633 97.3529 176.498C98.2355 175.362 99.5121 174.599 100.93 174.36C101.241 174.312 101.556 174.289 101.87 174.29H102.14L101.3 169.29L88.9802 175.74L90.9802 187.87H90.7902C90.6695 189.13 90.1369 190.316 89.2747 191.243C88.4124 192.171 87.2686 192.788 86.0202 193C85.737 193.064 85.4496 193.108 85.1602 193.13ZM85.1602 186.19C85.0938 186.181 85.0266 186.181 84.9602 186.19C84.8031 186.213 84.6521 186.267 84.5163 186.35C84.3804 186.432 84.2624 186.541 84.1692 186.669C84.076 186.798 84.0095 186.944 83.9736 187.098C83.9377 187.253 83.9332 187.413 83.9602 187.57C84.0074 187.849 84.1516 188.102 84.3676 188.285C84.5835 188.468 84.8571 188.569 85.1402 188.57H85.3402C85.6331 188.516 85.8955 188.355 86.0763 188.118C86.2571 187.882 86.3434 187.586 86.3185 187.289C86.2936 186.993 86.1591 186.716 85.9413 186.512C85.7235 186.309 85.438 186.194 85.1402 186.19H85.1602ZM101.94 178.85H101.74C101.584 178.874 101.434 178.93 101.299 179.014C101.165 179.098 101.05 179.209 100.96 179.34C100.867 179.467 100.801 179.611 100.765 179.764C100.729 179.917 100.724 180.075 100.75 180.23C100.798 180.511 100.943 180.766 101.161 180.949C101.379 181.132 101.655 181.232 101.94 181.23H102.14C102.294 181.203 102.442 181.146 102.574 181.062C102.706 180.978 102.82 180.868 102.91 180.74C103.003 180.613 103.07 180.469 103.106 180.316C103.142 180.163 103.147 180.005 103.12 179.85C103.069 179.573 102.924 179.321 102.709 179.139C102.494 178.957 102.222 178.855 101.94 178.85ZM88.2601 171.06L100.58 164.61L100.33 163.15L88.0202 169.61L88.2601 171.06Z" fill="#4638C7"/>
<path d="M106.19 179.36L104.01 166.3V165.98V165.67L102.79 158.39L84.5801 167.85L85.4901 173.27L87.2101 183.56C86.3727 183.108 85.4081 182.95 84.4701 183.11C83.6333 183.257 82.8585 183.647 82.2429 184.233C81.6274 184.818 81.1986 185.572 81.0104 186.401C80.8222 187.229 80.883 188.095 81.1852 188.889C81.4874 189.683 82.0175 190.37 82.7089 190.863C83.4003 191.357 84.222 191.635 85.0711 191.663C85.9201 191.691 86.7586 191.468 87.481 191.021C88.2034 190.574 88.7776 189.923 89.1315 189.151C89.4854 188.379 89.6033 187.519 89.4701 186.68L87.4701 174.94L102.47 167.09L103.99 176.21C103.152 175.761 102.189 175.599 101.25 175.75C100.186 175.93 99.2274 176.502 98.5646 177.354C97.9019 178.206 97.583 179.276 97.6709 180.351C97.7589 181.427 98.2473 182.431 99.0397 183.164C99.8321 183.897 100.871 184.306 101.95 184.31C102.188 184.31 102.426 184.29 102.66 184.25C103.782 184.066 104.785 183.445 105.451 182.523C106.116 181.601 106.389 180.453 106.21 179.33L106.19 179.36ZM85.5901 189.98C85.2406 190.06 84.8786 190.067 84.5263 190.001C84.1739 189.935 83.8387 189.798 83.5412 189.599C83.2437 189.399 82.9902 189.14 82.7962 188.839C82.6022 188.538 82.4718 188.2 82.4131 187.846C82.3544 187.493 82.3685 187.131 82.4547 186.783C82.5409 186.435 82.6974 186.108 82.9143 185.823C83.1313 185.538 83.4043 185.3 83.7166 185.124C84.0288 184.948 84.3737 184.838 84.7301 184.8C84.8731 184.785 85.0171 184.785 85.1601 184.8C85.8157 184.807 86.4452 185.058 86.9252 185.504C87.4052 185.951 87.7012 186.561 87.755 187.214C87.8089 187.867 87.6167 188.517 87.2162 189.037C86.8157 189.556 86.2358 189.906 85.5901 190.02V189.98ZM87.1801 173.22L86.4401 168.85L101.44 161L102.17 165.42L87.1801 173.22ZM104.07 181.56C103.871 181.842 103.619 182.082 103.327 182.265C103.035 182.449 102.71 182.573 102.37 182.63C102.029 182.687 101.681 182.677 101.344 182.599C101.007 182.521 100.689 182.378 100.408 182.178C100.126 181.977 99.8873 181.723 99.7041 181.43C99.5209 181.137 99.3972 180.811 99.3401 180.47C99.283 180.129 99.2935 179.781 99.3711 179.444C99.4488 179.107 99.5919 178.789 99.7925 178.508C99.9931 178.226 100.247 177.987 100.54 177.804C100.833 177.621 101.159 177.497 101.5 177.44C101.647 177.43 101.794 177.43 101.94 177.44C102.561 177.441 103.161 177.661 103.635 178.062C104.109 178.463 104.426 179.018 104.53 179.63C104.635 180.309 104.47 181.002 104.07 181.56Z" fill="white"/>
<path d="M4.87016 118.72C4.36059 118.72 3.85425 118.639 3.37016 118.48C2.26375 118.127 1.32021 117.389 0.710613 116.401C0.101017 115.412 -0.134399 114.238 0.0469164 113.091C0.228232 111.944 0.814386 110.9 1.69914 110.148C2.58389 109.395 3.70881 108.985 4.87016 108.99C5.37883 108.991 5.88443 109.069 6.37016 109.22C6.47016 109.22 6.57009 109.29 6.67009 109.34L8.8101 102.74L10.1601 98.54L24.0601 102.39L19.7801 110.91L11.6901 108.56L9.49015 115.35L9.02006 116.77L8.8101 116.69C8.36095 117.322 7.76344 117.833 7.07011 118.18C6.38942 118.53 5.63574 118.715 4.87016 118.72ZM4.87016 113.53C4.80211 113.53 4.73571 113.552 4.68022 113.591C4.62472 113.63 4.58278 113.686 4.5601 113.75C4.54616 113.791 4.54054 113.834 4.54362 113.877C4.5467 113.92 4.55844 113.961 4.57804 114C4.59765 114.038 4.62475 114.072 4.65776 114.099C4.69076 114.127 4.72891 114.148 4.77006 114.16C4.80273 114.169 4.83749 114.169 4.87016 114.16C4.91923 114.174 4.97099 114.174 5.02006 114.16C5.05839 114.141 5.09238 114.114 5.11991 114.082C5.14745 114.049 5.16797 114.011 5.1801 113.97C5.19745 113.931 5.20646 113.888 5.20646 113.845C5.20646 113.802 5.19745 113.759 5.1801 113.72C5.14002 113.644 5.07191 113.587 4.99015 113.56L4.87016 113.53ZM17.4301 105.53L17.5401 105.32L13.1501 104.11V104.27L17.4301 105.53Z" fill="#4638C7"/>
<path d="M6.4401 116.91C6.84186 116.706 7.19904 116.424 7.49088 116.081C7.78272 115.737 8.00336 115.339 8.14005 114.91L10.76 106.79L19.0501 109.21L22.0501 103.31L11.1501 100.31L9.78007 104.56L7.49015 111.63C7.08783 111.165 6.56551 110.819 5.98014 110.63C5.12397 110.388 4.20727 110.487 3.42264 110.907C2.63802 111.326 2.04648 112.033 1.77213 112.88C1.49778 113.726 1.56201 114.646 1.95133 115.446C2.34065 116.246 3.02484 116.864 3.86014 117.17C4.20165 117.285 4.55978 117.342 4.92008 117.34C5.45336 117.317 5.97393 117.17 6.4401 116.91ZM19.6001 104.38L18.1801 107.21L11.3001 105.21L12.2301 102.35L19.6001 104.38ZM3.21012 113.31C3.32582 112.958 3.54945 112.652 3.84928 112.435C4.14911 112.218 4.50978 112.1 4.88004 112.1C5.0632 112.097 5.24565 112.124 5.42008 112.18C5.85405 112.329 6.21286 112.641 6.42008 113.05C6.52638 113.255 6.59089 113.479 6.60978 113.709C6.62866 113.939 6.60153 114.171 6.53007 114.39C6.37694 114.821 6.06608 115.179 5.66007 115.39C5.35019 115.547 5.00089 115.609 4.65604 115.567C4.31119 115.526 3.98628 115.384 3.7222 115.158C3.45813 114.932 3.26659 114.634 3.17191 114.3C3.07723 113.965 3.0836 113.611 3.1901 113.28L3.21012 113.31Z" fill="white"/>
<path d="M433.02 63.5599C432.617 63.4378 432.243 63.2372 431.919 62.9695C431.594 62.7018 431.326 62.3724 431.13 62.0004C430.934 61.6283 430.813 61.2211 430.775 60.8021C430.738 60.3832 430.783 59.961 430.91 59.5599L431.91 56.2699C431.055 55.8261 430.32 55.1808 429.77 54.3899C429.296 53.7305 428.957 52.9834 428.773 52.1921C428.589 51.4008 428.565 50.5809 428.7 49.7799L429.15 47.0899C428.028 46.6984 427.088 45.9084 426.51 44.8699C425.819 43.5493 425.554 42.0473 425.75 40.5699L429.23 5.56988C429.31 4.76093 429.549 3.97568 429.932 3.25897C430.316 2.54225 430.837 1.90809 431.466 1.39272C432.094 0.877356 432.818 0.490857 433.596 0.255303C434.374 0.0197493 435.191 -0.0602333 436 0.0198904L496 6.01989C496.81 6.09742 497.597 6.33437 498.315 6.71713C499.033 7.09988 499.668 7.62088 500.184 8.25012C500.7 8.87935 501.086 9.60439 501.32 10.3835C501.555 11.1626 501.633 11.9805 501.55 12.7899L500.84 19.9399L501.1 19.9899C501.375 20.0319 501.645 20.0954 501.91 20.1799C503.209 20.5739 504.338 21.3905 505.12 22.4999C505.595 23.1611 505.934 23.9098 506.117 24.7028C506.301 25.4958 506.326 26.3173 506.19 27.1199L504.87 36.0099L510.38 37.7099C511.19 37.961 511.867 38.5233 512.263 39.2733C512.658 40.0233 512.74 40.8996 512.49 41.7099L500.44 81.0399C500.316 81.4408 500.114 81.8131 499.845 82.1358C499.577 82.4584 499.247 82.7249 498.876 82.92C498.504 83.1151 498.098 83.2349 497.68 83.2726C497.262 83.3104 496.841 83.2653 496.44 83.1399L433.02 63.5599ZM497.15 79.7399L509.15 40.9299L446.32 21.5199L434.32 60.3299L497.15 79.7399ZM500.95 23.4799C500.832 23.4437 500.712 23.417 500.59 23.3999L441.08 13.3999C440.379 13.2829 439.66 13.4483 439.08 13.8599C438.789 14.0681 438.543 14.3316 438.354 14.6353C438.165 14.9391 438.038 15.277 437.98 15.6299L432.17 50.3299C432.058 51.0324 432.227 51.7507 432.64 52.3299C432.753 52.4847 432.88 52.6287 433.02 52.7599L443.09 20.1499C443.341 19.34 443.903 18.6629 444.653 18.2672C445.403 17.8716 446.28 17.7899 447.09 18.0399L501.6 34.8799L502.84 26.4799C502.956 25.8296 502.831 25.1594 502.488 24.5945C502.146 24.0296 501.61 23.6085 500.98 23.4099L500.95 23.4799ZM496.25 9.56988C496.075 9.51318 495.894 9.47627 495.71 9.45986L435.71 3.45986C435.353 3.41972 434.992 3.45098 434.647 3.55178C434.302 3.65259 433.981 3.82093 433.702 4.04705C433.422 4.27317 433.191 4.55256 433.021 4.86892C432.851 5.18528 432.745 5.53233 432.71 5.88989L429.23 40.8899C429.119 41.6518 429.23 42.4296 429.55 43.1299C429.613 43.2398 429.69 43.3407 429.78 43.4299L434.53 15.0399C434.663 14.2376 434.954 13.4694 435.384 12.7795C435.815 12.0897 436.378 11.4916 437.04 11.0197C437.703 10.5477 438.452 10.2112 439.245 10.0293C440.037 9.84746 440.858 9.82384 441.66 9.95986L497.46 19.2999L498.15 12.3799C498.198 11.7655 498.037 11.1529 497.692 10.6424C497.347 10.1319 496.838 9.75375 496.25 9.56988Z" fill="#FF76EC"/>
<path d="M510.12 38.74L446.74 19.16C446.21 18.9973 445.636 19.051 445.145 19.3096C444.654 19.5682 444.286 20.0105 444.12 20.54L433.65 54.44C432.783 54.1561 432.047 53.5716 431.574 52.7922C431.101 52.0127 430.922 51.0897 431.07 50.19L436.88 15.49C436.96 14.9959 437.137 14.5226 437.401 14.0973C437.665 13.672 438.01 13.3032 438.418 13.0122C438.825 12.7212 439.286 12.5137 439.774 12.4018C440.261 12.2899 440.767 12.2757 441.26 12.36L500.77 22.36C501.264 22.4386 501.737 22.6153 502.161 22.8799C502.585 23.1444 502.952 23.4912 503.24 23.9C503.828 24.7292 504.065 25.757 503.9 26.76L502.49 36.24L503.76 36.43L505.17 26.96C505.282 26.2993 505.262 25.6231 505.111 24.9701C504.961 24.3172 504.683 23.7003 504.294 23.1549C503.905 22.6095 503.412 22.1464 502.843 21.792C502.274 21.4377 501.641 21.1991 500.98 21.09L499.7 20.87L500.52 12.7C500.648 11.3562 500.24 10.0162 499.384 8.97257C498.527 7.92895 497.293 7.26654 495.95 7.13001L435.95 1.13001C435.284 1.06373 434.612 1.12942 433.971 1.3233C433.331 1.51719 432.735 1.83548 432.217 2.25995C431.7 2.68442 431.271 3.20674 430.956 3.79703C430.641 4.38731 430.445 5.03398 430.38 5.70001L426.9 40.7C426.723 41.9515 426.939 43.2272 427.52 44.35C427.986 45.197 428.765 45.8285 429.69 46.11C429.941 46.1892 430.199 46.2428 430.46 46.27L429.84 49.98C429.64 51.187 429.88 52.4257 430.517 53.4702C431.154 54.5148 432.145 55.2955 433.31 55.67L432 59.9C431.837 60.4304 431.891 61.0037 432.15 61.4946C432.408 61.9855 432.85 62.3542 433.38 62.52L496.76 82.1C497.023 82.1818 497.3 82.2106 497.575 82.1849C497.849 82.1592 498.116 82.0795 498.359 81.9503C498.603 81.8211 498.818 81.645 498.994 81.4321C499.169 81.2193 499.3 80.9738 499.38 80.71L511.54 41.36C511.62 41.0948 511.646 40.8163 511.618 40.5408C511.59 40.2652 511.507 39.998 511.375 39.7545C511.243 39.511 511.064 39.2959 510.849 39.1218C510.633 38.9477 510.386 38.818 510.12 38.74ZM428.6 43.74C428.158 42.849 427.997 41.8445 428.14 40.86L431.62 5.86002C431.721 4.85495 432.217 3.93114 432.999 3.29169C433.781 2.65224 434.785 2.3495 435.79 2.45001L495.79 8.45001C496.795 8.55366 497.718 9.05 498.358 9.831C498.999 10.612 499.305 11.6144 499.21 12.62L498.4 20.7L441.4 11.17C440.068 10.9499 438.703 11.2659 437.603 12.0491C436.503 12.8324 435.758 14.0191 435.53 15.35L430.53 45.08C430.12 45.028 429.73 44.8758 429.393 44.6368C429.057 44.3978 428.784 44.0795 428.6 43.71V43.74ZM498.11 80.36C498.048 80.5633 497.908 80.7338 497.721 80.8348C497.534 80.9358 497.314 80.9592 497.11 80.9L433.73 61.32C433.529 61.2555 433.36 61.1148 433.261 60.9279C433.162 60.7411 433.14 60.5229 433.2 60.32L445.36 20.96C445.425 20.7586 445.565 20.5904 445.752 20.4914C445.939 20.3924 446.157 20.3703 446.36 20.43L509.74 40.01C509.941 40.0745 510.11 40.2152 510.209 40.4021C510.308 40.589 510.33 40.8071 510.27 41.01L498.11 80.36Z" fill="white"/>
<path d="M442.89 50.2278L441.863 53.5527L467.191 61.3787L468.219 58.0538L442.89 50.2278Z" fill="#FF76EC"/>
<path d="M443.619 51.5941L443.238 52.8267L466.474 60.0061L466.855 58.7736L443.619 51.5941Z" fill="white"/>
<path d="M441.37 55.1863L440.342 58.5112L455.753 63.2729L456.781 59.948L441.37 55.1863Z" fill="#FF76EC"/>
<path d="M442.086 56.559L441.705 57.7915L455.024 61.9067L455.405 60.6742L442.086 56.559Z" fill="white"/>
<path d="M443.08 47.0298L446.77 35.0898L461.82 39.7399L458.13 51.6798L443.08 47.0298ZM455.84 47.3299L457.47 42.0298L449.07 39.4298L447.43 44.7399L455.84 47.3299Z" fill="#FF76EC"/>
<path d="M460.44 40.46L447.44 36.46L444.44 46.31L457.44 50.31L460.44 40.46ZM456.55 48.7L446.05 45.46L448.34 38.07L458.83 41.31L456.55 48.7Z" fill="white"/>
<path d="M485.92 73.9902C484.274 73.4821 482.815 72.4972 481.729 71.1601C480.642 69.823 479.977 68.1937 479.816 66.4783C479.656 64.763 480.008 63.0385 480.828 61.5232C481.647 60.0079 482.898 58.7697 484.422 57.9652C485.945 57.1608 487.673 56.8263 489.387 57.004C491.1 57.1816 492.723 57.8635 494.049 58.9634C495.375 60.0632 496.345 61.5317 496.837 63.183C497.328 64.8342 497.319 66.5942 496.81 68.2402C496.128 70.4464 494.598 72.2915 492.555 73.3698C490.513 74.448 488.127 74.6712 485.92 73.9902ZM490.03 60.6801C489.041 60.376 487.985 60.3719 486.994 60.6681C486.003 60.9644 485.122 61.5478 484.463 62.3446C483.804 63.1414 483.395 64.1158 483.29 65.1447C483.184 66.1735 483.386 67.2105 483.869 68.1247C484.353 69.0389 485.097 69.7892 486.007 70.2807C486.917 70.7722 487.952 70.9828 488.982 70.886C490.012 70.7892 490.989 70.3893 491.792 69.7368C492.594 69.0842 493.185 68.2085 493.49 67.2202C493.694 66.5636 493.766 65.8732 493.702 65.1887C493.639 64.5042 493.44 63.8389 493.119 63.2313C492.797 62.6236 492.359 62.0854 491.829 61.6476C491.299 61.2098 490.687 60.881 490.03 60.6801Z" fill="#FF76EC"/>
<path d="M490.74 58.4C489.303 57.9513 487.765 57.939 486.321 58.3647C484.876 58.7904 483.591 59.6349 482.627 60.7914C481.663 61.9479 481.063 63.3645 480.905 64.8617C480.746 66.359 481.035 67.8697 481.735 69.2027C482.435 70.5357 483.515 71.6311 484.837 72.3502C486.16 73.0693 487.667 73.3798 489.166 73.2425C490.665 73.1051 492.091 72.5261 493.261 71.5787C494.431 70.6313 495.294 69.358 495.74 67.92C496.332 65.9945 496.139 63.913 495.202 62.1295C494.265 60.3461 492.661 59.0054 490.74 58.4ZM486.62 71.72C485.423 71.3516 484.363 70.6364 483.572 69.665C482.782 68.6935 482.297 67.5095 482.18 66.2628C482.063 65.016 482.318 63.7624 482.914 62.6607C483.509 61.559 484.418 60.6587 485.525 60.0736C486.632 59.4885 487.888 59.245 489.134 59.3738C490.379 59.5026 491.559 59.998 492.523 60.7973C493.487 61.5966 494.192 62.6639 494.549 63.8641C494.907 65.0644 494.9 66.3436 494.53 67.54C494.032 69.1411 492.92 70.4798 491.438 71.2632C489.956 72.0466 488.223 72.2108 486.62 71.72Z" fill="white"/>
<path d="M73.0898 535.34C71.9751 535.344 70.8729 535.105 69.8599 534.64L26.9999 514.94C26.4901 514.705 26.0315 514.372 25.6505 513.96C25.2695 513.548 24.9734 513.065 24.7793 512.538C24.5852 512.012 24.4969 511.452 24.5193 510.891C24.5417 510.33 24.6743 509.78 24.9098 509.27L36.3198 484.49L36.7698 483.49L23.5098 454.6L30.1099 451.6L40.8198 474.94L54.9398 443.94C55.4142 442.911 56.2776 442.111 57.3406 441.718C58.4036 441.324 59.5793 441.368 60.6099 441.84L103.46 461.54C105.467 462.549 106.994 464.311 107.706 466.441C108.418 468.572 108.257 470.897 107.26 472.91L80.9598 530.12C80.2832 531.652 79.1828 532.957 77.7885 533.884C76.3941 534.811 74.7638 535.319 73.0898 535.35V535.34ZM73.7499 531.62C74.592 531.477 75.3858 531.129 76.0609 530.605C76.736 530.082 77.2715 529.4 77.6199 528.62L103.92 471.41C104.297 470.636 104.475 469.779 104.438 468.919C104.402 468.058 104.151 467.22 103.71 466.48L100.62 473.22C100.598 473.566 100.514 473.905 100.37 474.22L80.2698 517.85C80.1314 518.156 79.9383 518.434 79.6998 518.67L73.7499 531.62ZM28.2399 510.85C28.1756 510.995 28.171 511.159 28.2272 511.307C28.2834 511.455 28.3957 511.575 28.5398 511.64L69.5398 530.51C69.6175 530.549 69.703 530.569 69.7898 530.57C69.8595 530.58 69.9302 530.58 69.9999 530.57C70.0726 530.543 70.139 530.501 70.1957 530.448C70.2523 530.395 70.298 530.331 70.3298 530.26L75.5698 518.87L33.4398 499.43L28.2399 510.85ZM77.1398 515.5L96.5098 473.37L54.5098 454.06L42.8998 479.45L47.2198 488.86L46.9398 497.29L40.5999 491.87L38.8198 487.98L35.1298 496.18L77.1398 515.5ZM98.0398 470.04L100.44 464.85C100.472 464.778 100.488 464.699 100.488 464.62C100.488 464.541 100.472 464.463 100.44 464.39C100.416 464.316 100.375 464.247 100.322 464.19C100.268 464.133 100.203 464.089 100.13 464.06L59.1298 445.19C59.0556 445.152 58.9734 445.131 58.8898 445.13C58.8202 445.12 58.7494 445.12 58.6798 445.13C58.605 445.156 58.5363 445.197 58.4778 445.25C58.4193 445.303 58.3724 445.368 58.3398 445.44L55.9799 450.62L98.0398 470.04Z" fill="#00DAEB"/>
<path d="M102.98 462.58L101.17 461.75L60.1698 442.88C59.419 442.537 58.5629 442.505 57.7888 442.792C57.0147 443.079 56.3858 443.661 56.0398 444.41L40.8798 477.7L29.5999 453.12L25.0898 455.19L38.0898 483.52L37.9598 483.8L37.4298 484.97L26.0198 509.76C25.6813 510.493 25.6401 511.329 25.9049 512.092C26.1697 512.854 26.7199 513.485 27.4398 513.85L66.1798 531.65L70.2998 533.55C71.1636 533.943 72.101 534.147 73.0498 534.15C74.5026 534.117 75.9158 533.671 77.1238 532.863C78.3318 532.055 79.2844 530.92 79.8699 529.59L106.17 472.38C107.03 470.655 107.177 468.66 106.58 466.827C105.983 464.994 104.691 463.469 102.98 462.58ZM57.2299 444.98C57.3274 444.769 57.4661 444.58 57.6378 444.424C57.8096 444.268 58.0109 444.147 58.2299 444.07C58.4414 443.979 58.6693 443.932 58.8998 443.932C59.1302 443.932 59.3583 443.979 59.5698 444.07L97.4398 461.51L100.64 462.99C100.85 463.084 101.04 463.219 101.198 463.387C101.355 463.555 101.478 463.753 101.558 463.969C101.638 464.185 101.674 464.415 101.664 464.646C101.654 464.876 101.598 465.102 101.5 465.31L98.6398 471.54L98.5598 471.49L54.7698 451.36C54.6544 451.31 54.5336 451.273 54.4098 451.25L57.2299 444.98ZM77.6199 516.98L33.8298 496.85C33.7665 496.818 33.7179 496.763 33.6937 496.696C33.6696 496.629 33.6718 496.555 33.6998 496.49L38.6099 485.56L38.7898 485.18L41.4698 491.01L41.5298 491.14L45.8499 494.84L46.0398 489.09L41.6099 479.44L53.7998 452.76C53.8137 452.727 53.8344 452.697 53.8605 452.672C53.8865 452.647 53.9175 452.628 53.9513 452.616C53.9851 452.604 54.0211 452.599 54.057 452.601C54.0929 452.604 54.1279 452.614 54.1598 452.63L97.9598 472.76C97.9598 472.76 97.9598 472.76 98.0298 472.82L77.7098 517.01L77.6199 516.98ZM28.8798 454.98L44.6698 489.39L44.5798 492L42.6398 490.34L26.8398 455.85L28.8798 454.98ZM27.1898 510.39L32.9398 497.85C33.0386 497.931 33.1458 498.002 33.2598 498.06L77.0598 518.19H77.1398L71.4398 530.66C71.24 531.084 70.8804 531.411 70.4398 531.57C70.2244 531.651 69.9949 531.689 69.7648 531.68C69.5347 531.672 69.3086 531.617 69.0999 531.52L28.0498 512.65C27.6282 512.456 27.3008 512.103 27.1395 511.668C26.9783 511.233 26.9963 510.752 27.1898 510.33V510.39ZM104.97 471.85L78.6698 529.06C78.1039 530.422 77.0598 531.531 75.7339 532.177C74.408 532.824 72.8916 532.963 71.4698 532.57C71.9902 532.251 72.4042 531.785 72.6598 531.23L78.7499 517.98C78.9508 517.823 79.1118 517.621 79.2198 517.39L99.3198 473.65C99.4254 473.422 99.4735 473.171 99.4598 472.92L102.7 465.92C102.956 465.364 103.043 464.745 102.95 464.14C104.162 464.964 105.034 466.199 105.406 467.616C105.777 469.034 105.622 470.538 104.97 471.85Z" fill="white"/>
<path d="M50.4401 520.38C49.6025 520.471 48.7551 520.384 47.9531 520.126C47.1512 519.868 46.4127 519.443 45.7856 518.881C45.1586 518.318 44.6571 517.629 44.3137 516.86C43.9704 516.091 43.793 515.258 43.793 514.415C43.793 513.573 43.9704 512.739 44.3137 511.97C44.6571 511.201 45.1586 510.512 45.7856 509.949C46.4127 509.387 47.1512 508.962 47.9531 508.704C48.7551 508.446 49.6025 508.359 50.4401 508.45C51.2962 508.448 52.1424 508.632 52.92 508.99C54.3581 509.653 55.476 510.857 56.03 512.34C56.3484 513.241 56.4473 514.204 56.3184 515.15C56.1894 516.097 55.8364 516.999 55.2887 517.781C54.741 518.564 54.0144 519.204 53.1693 519.649C52.3242 520.094 51.3851 520.331 50.4301 520.34L50.4401 520.38ZM50.4401 512.12C49.9142 512.11 49.401 512.282 48.9867 512.606C48.5724 512.929 48.2822 513.386 48.1649 513.899C48.0476 514.412 48.1103 514.949 48.3425 515.421C48.5748 515.893 48.9623 516.27 49.4401 516.49C49.7529 516.637 50.0945 516.712 50.4401 516.71C50.7137 516.71 50.985 516.659 51.2401 516.56C51.8093 516.348 52.2724 515.92 52.53 515.37C52.6557 515.095 52.7257 514.798 52.736 514.496C52.7463 514.194 52.6967 513.893 52.5901 513.61C52.4273 513.174 52.1352 512.797 51.7528 512.531C51.3704 512.264 50.916 512.121 50.4501 512.12H50.4401Z" fill="#00DAEB"/>
<path d="M52.4398 510.04C51.8618 509.746 51.2305 509.572 50.5837 509.528C49.9368 509.485 49.2878 509.572 48.6756 509.786C48.0634 509.999 47.5008 510.335 47.0214 510.771C46.542 511.207 46.1559 511.736 45.8861 512.326C45.6162 512.915 45.4684 513.553 45.4514 514.201C45.4344 514.85 45.5486 515.494 45.7872 516.097C46.0257 516.7 46.3836 517.249 46.8394 517.71C47.2953 518.171 47.8396 518.535 48.4398 518.78C49.0679 519.066 49.7495 519.216 50.4398 519.22C51.0098 519.219 51.5752 519.118 52.1098 518.92C53.0016 518.59 53.7754 518.002 54.3336 517.232C54.8917 516.462 55.209 515.544 55.2454 514.594C55.2818 513.643 55.0356 512.703 54.538 511.893C54.0404 511.082 53.3137 510.438 52.4498 510.04H52.4398ZM53.5698 515.85C53.3112 516.413 52.9059 516.896 52.3963 517.248C51.8868 517.6 51.2918 517.809 50.6739 517.852C50.056 517.895 49.4378 517.77 48.8845 517.492C48.3311 517.214 47.8628 516.792 47.5289 516.27C47.1949 515.748 47.0077 515.146 46.9866 514.527C46.9656 513.908 47.1116 513.295 47.4094 512.752C47.7071 512.208 48.1457 511.755 48.6789 511.44C49.2121 511.125 49.8203 510.959 50.4398 510.96C50.9344 510.958 51.423 511.068 51.8698 511.28C52.283 511.466 52.655 511.732 52.9641 512.064C53.2731 512.395 53.513 512.785 53.6697 513.21C53.8336 513.632 53.9126 514.083 53.9023 514.536C53.892 514.989 53.7927 515.435 53.6098 515.85H53.5698Z" fill="white"/>
<path d="M65.6499 503.31C65.1229 503.313 64.6025 503.193 64.1299 502.96C63.4736 502.596 62.9047 502.094 62.4625 501.488C62.0204 500.881 61.7158 500.186 61.5699 499.45L61.3899 498.75C61.3131 498.391 61.2129 498.036 61.09 497.69C60.53 497.89 59.95 498.16 59.35 498.44C57.8663 499.255 56.2198 499.73 54.5299 499.83H54.2699C52.629 499.747 51.0779 499.056 49.9199 497.89C48.6308 498.425 47.2457 498.691 45.85 498.67C44.6557 498.66 43.467 498.506 42.3099 498.21L41.1899 497.92L42.08 494.37L43.2 494.65C44.0758 494.875 44.9757 494.992 45.8799 495C46.6441 495.009 47.4044 494.89 48.1299 494.65C47.8465 493.33 48.0077 491.953 48.5883 490.734C49.1689 489.515 50.1363 488.522 51.34 487.91L52.9399 487.04L53.83 488.62C54.4121 489.737 54.6415 491.004 54.4879 492.254C54.3344 493.504 53.8051 494.677 52.97 495.62C53.3947 495.916 53.893 496.089 54.4099 496.12H54.5499C55.6805 496.011 56.7766 495.671 57.7699 495.12C58.6992 494.659 59.666 494.277 60.6599 493.98C60.9845 493.884 61.3215 493.837 61.6599 493.84C61.977 493.837 62.2921 493.891 62.59 494C63.163 494.233 63.6465 494.643 63.97 495.17C64.4577 495.998 64.7962 496.905 64.97 497.85C64.97 498.05 65.0699 498.25 65.1299 498.45C65.1942 498.71 65.2882 498.962 65.4099 499.2V499.04L69.08 499.18V500.33C69.0554 500.834 68.9042 501.324 68.6403 501.754C68.3763 502.184 68.0082 502.54 67.5699 502.79C66.9902 503.137 66.3256 503.317 65.6499 503.31Z" fill="#00DAEB"/>
<path d="M66.2201 500.64C66.0701 500.729 65.9011 500.78 65.7273 500.791C65.5534 500.801 65.3796 500.77 65.2201 500.7C64.8904 500.481 64.6091 500.197 64.394 499.865C64.179 499.533 64.0347 499.16 63.9701 498.77C63.9701 498.56 63.8601 498.35 63.8101 498.14C63.6603 497.317 63.3621 496.527 62.9301 495.81C62.741 495.488 62.4536 495.236 62.1101 495.09C61.7303 494.964 61.3199 494.964 60.9401 495.09C60.0215 495.367 59.1283 495.721 58.27 496.15C57.0736 496.84 55.7297 497.234 54.3501 497.3C53.764 497.257 53.1936 497.091 52.6765 496.812C52.1594 496.532 51.7074 496.147 51.3501 495.68C52.3233 494.943 53.0066 493.887 53.2808 492.697C53.5549 491.507 53.4025 490.259 52.8501 489.17L52.52 488.58L51.9301 488.9C50.9287 489.405 50.1259 490.231 49.6508 491.247C49.1756 492.262 49.0556 493.408 49.3101 494.5C49.3724 494.763 49.456 495.021 49.5601 495.27C47.2701 496.55 44.4601 496.13 42.9501 495.75L42.6201 497.07C45.147 497.835 47.8701 497.614 50.2401 496.45C50.7221 497.094 51.3385 497.625 52.0465 498.007C52.7545 498.389 53.5372 498.611 54.3401 498.66C55.9372 498.603 57.4974 498.164 58.89 497.38C59.6785 496.982 60.4979 496.647 61.3401 496.38C61.4528 496.363 61.5674 496.363 61.6801 496.38C61.7508 496.433 61.8089 496.502 61.8501 496.58C62.1838 497.171 62.4169 497.813 62.54 498.48C62.6 498.71 62.6501 498.93 62.7201 499.16C62.8269 499.743 63.0616 500.294 63.4075 500.775C63.7533 501.256 64.2017 501.654 64.7201 501.94C65.0322 502.09 65.3738 502.169 65.7201 502.17C66.1656 502.167 66.6029 502.05 66.9901 501.83C67.2604 501.677 67.488 501.459 67.6522 501.195C67.8164 500.931 67.912 500.63 67.9301 500.32L66.5701 500.27C66.5535 500.359 66.5117 500.441 66.4496 500.507C66.3875 500.572 66.3078 500.619 66.2201 500.64ZM50.6001 494.2C50.4448 493.525 50.4866 492.819 50.7206 492.167C50.9546 491.514 51.3708 490.943 51.92 490.52C52.0863 491.225 52.0579 491.963 51.8378 492.653C51.6176 493.344 51.2139 493.961 50.67 494.44C50.6421 494.362 50.6188 494.281 50.6001 494.2Z" fill="white"/>
<path d="M540.44 439.44L541.79 439.03C548.57 436.97 554.27 430.26 556.32 421.94C557.781 416.418 557.33 410.563 555.04 405.33C552.85 400.62 549.23 397.42 544.85 396.33C543.783 396.071 542.688 395.94 541.59 395.94C533.23 395.94 525.32 403.4 522.79 413.67C520.67 422.3 522.04 429.41 526.79 434.23L527.79 435.23L524.6 438.35L523.6 437.35C517.82 431.45 516 422.67 518.48 412.61C521.48 400.36 531.23 391.48 541.63 391.48C543.079 391.477 544.523 391.652 545.93 392C551.66 393.41 556.34 397.48 559.11 403.45C561.82 409.604 562.374 416.493 560.68 423C558.26 432.81 551.36 440.78 543.11 443.29L541.76 443.7L540.44 439.44Z" fill="#F30028"/>
<path d="M557.8 404.05C555.22 398.47 550.87 394.68 545.57 393.37C534.69 390.69 523.13 399.48 519.81 412.95C517.46 422.52 519.15 430.84 524.57 436.38L525.75 435.22C520.67 430.03 519.17 422.47 521.42 413.35C524.52 400.76 535.18 392.51 545.17 394.98C549.98 396.16 553.93 399.63 556.3 404.74C558.729 410.263 559.215 416.446 557.68 422.28C555.51 431.07 549.43 438.17 542.19 440.38L542.67 441.96C550.46 439.58 556.98 432.02 559.28 422.67C560.908 416.475 560.386 409.911 557.8 404.05Z" fill="white"/>
<path d="M536.98 438.23C536.073 438.231 535.17 438.12 534.29 437.9C531.886 437.296 529.736 435.945 528.15 434.04C524.22 429.48 522.91 422.04 524.74 414.64C525.848 409.771 528.407 405.353 532.08 401.97C534.578 399.604 537.86 398.24 541.3 398.14C542.21 398.14 543.117 398.25 544 398.47C547.93 399.47 551.08 402.47 552.86 406.97C554.597 411.703 554.838 416.856 553.55 421.73C551.69 429.27 546.99 435.29 541.28 437.42C539.907 437.948 538.451 438.222 536.98 438.23ZM541.31 402.6C538.952 402.71 536.715 403.678 535.02 405.32C532.037 408.106 529.963 411.727 529.07 415.71C527.61 421.64 528.57 427.71 531.53 431.13C532.514 432.326 533.851 433.18 535.35 433.57C535.883 433.702 536.431 433.769 536.98 433.77C537.917 433.759 538.844 433.583 539.72 433.25C544 431.64 547.72 426.7 549.22 420.67C551.31 412.18 548.49 404.17 542.93 402.8C542.4 402.668 541.856 402.601 541.31 402.6Z" fill="#F30028"/>
<path d="M534.62 436.54C535.392 436.731 536.185 436.828 536.98 436.83C538.283 436.822 539.574 436.578 540.79 436.11C546.07 434.11 550.44 428.49 552.18 421.4C554.68 411.28 550.86 401.6 543.66 399.83C540.13 398.96 536.34 400.09 533 403.02C529.542 406.232 527.137 410.416 526.1 415.02C524.38 422.02 525.58 428.95 529.22 433.17C530.619 434.835 532.509 436.015 534.62 436.54ZM527.71 415.37C528.667 411.108 530.891 407.235 534.09 404.26C536.045 402.397 538.612 401.309 541.31 401.2C541.984 401.196 542.656 401.277 543.31 401.44C549.62 402.99 552.9 411.77 550.62 421C549.03 427.48 544.96 432.8 540.25 434.56C538.572 435.244 536.719 435.369 534.965 434.917C533.21 434.465 531.648 433.459 530.51 432.05C527.22 428.28 526.14 421.74 527.71 415.37Z" fill="white"/>
<path d="M511.75 471.72C511 471.72 510.26 471.72 509.55 471.63C503.95 471.18 500.09 468.96 498.68 465.39L496.05 458.39H496.14C495.26 455.08 496.55 451.25 499.86 447.51C503.17 443.77 508.44 440.27 514.51 437.88C519.195 435.955 524.196 434.917 529.26 434.82C530.01 434.82 530.75 434.82 531.45 434.91C537.03 435.36 540.88 437.56 542.31 441.11H542.36L544.61 447.43C545.99 450.94 544.68 455.19 540.9 459.34C536.855 463.503 531.937 466.717 526.5 468.75C521.808 470.638 516.807 471.645 511.75 471.72ZM503.48 464.79C504.63 466.08 506.89 466.94 509.91 467.18C510.51 467.18 511.13 467.26 511.76 467.26C516.259 467.162 520.701 466.229 524.86 464.51C529.667 462.741 534.019 459.922 537.6 456.26C539.49 454.19 540.54 452.19 540.6 450.52C540.002 451.425 539.334 452.281 538.6 453.08C534.557 457.243 529.638 460.454 524.2 462.48C519.512 464.385 514.51 465.402 509.45 465.48C508.71 465.48 507.97 465.48 507.26 465.4C505.97 465.318 504.691 465.114 503.44 464.79H503.48ZM529.25 439.22C524.751 439.316 520.308 440.248 516.15 441.97C511.461 443.727 507.194 446.453 503.63 449.97C500.93 452.85 499.82 455.6 500.63 457.52C501.44 459.44 503.95 460.65 507.71 460.96C508.3 461.01 508.92 461.03 509.56 461.03C514.055 460.93 518.493 460.002 522.65 458.29C527.454 456.515 531.805 453.698 535.39 450.04C537.93 447.25 538.96 444.57 538.22 442.69C537.48 440.81 534.9 439.56 531.14 439.26C530.5 439.25 529.88 439.22 529.25 439.22Z" fill="#F30028"/>
<path d="M541.51 442.85H541.37C541.296 442.415 541.175 441.989 541.01 441.58C539.81 438.58 536.38 436.58 531.34 436.22C525.755 435.959 520.181 436.939 515.02 439.09C502.89 443.88 495.29 452.47 497.73 458.65C497.8 458.82 497.87 458.97 497.95 459.13H497.86L499.99 464.81C501.19 467.86 504.63 469.81 509.67 470.17C510.34 470.23 511.04 470.25 511.75 470.25C516.638 470.134 521.462 469.117 525.98 467.25C531.214 465.311 535.955 462.238 539.86 458.25C543.27 454.51 544.48 450.77 543.28 447.75L541.51 442.85ZM515.63 440.68C519.957 438.903 524.574 437.94 529.25 437.84C529.92 437.84 530.57 437.84 531.25 437.92C535.63 438.27 538.57 439.81 539.53 442.24C540.53 444.67 539.39 447.79 536.43 451.04C532.632 454.774 528.121 457.706 523.167 459.661C518.212 461.616 512.915 462.554 507.59 462.42C503.22 462.06 500.28 460.53 499.32 458.1C497.24 452.94 504.73 444.96 515.63 440.66V440.68ZM538.63 457.23C534.83 460.96 530.318 463.889 525.364 465.842C520.41 467.795 515.114 468.733 509.79 468.6C505.42 468.25 502.48 466.72 501.52 464.3L500.71 462.13C502.758 463.29 505.049 463.954 507.4 464.07C508.08 464.07 508.77 464.15 509.48 464.15C514.368 464.034 519.192 463.017 523.71 461.15C528.95 459.216 533.694 456.142 537.6 452.15C539.143 450.552 540.321 448.638 541.05 446.54L541.73 448.42C542.7 450.85 541.6 453.96 538.64 457.21L538.63 457.23Z" fill="white"/>
<path d="M464.66 401.07L467.11 400.61L465.85 393.92L467.41 393.62L465.89 385.62L472.72 379.06C473.404 378.408 474.315 378.049 475.26 378.06C475.637 378.056 476.012 378.113 476.37 378.23C477.004 378.421 477.574 378.783 478.018 379.274C478.462 379.766 478.764 380.369 478.89 381.02L480.89 391.02L482.48 390.72L483.75 397.4L486.2 396.94L494.66 441.5L473.08 445.59L464.66 401.07ZM476.66 440.42L489.47 437.99L482.68 402.19L469.87 404.63L476.66 440.42ZM471.49 399.78L479.4 398.28L478.97 396.04L471.06 397.54L471.49 399.78ZM471.78 392.78L476.54 391.88L474.79 383.27L470.72 387.18L471.78 392.78Z" fill="#F30028"/>
<path d="M482.67 399.09L481.4 392.4L479.83 392.7L477.52 381.3C477.439 380.898 477.251 380.525 476.977 380.221C476.703 379.916 476.351 379.69 475.96 379.568C475.569 379.445 475.151 379.43 474.752 379.523C474.353 379.617 473.986 379.816 473.69 380.1L467.41 386.1L469.05 394.7L467.49 395L468.76 401.69L466.3 402.15L474.24 443.95L493.06 440.38L485.12 398.58L482.67 399.09ZM469.2 386.71L474.83 381.29C474.914 381.214 475.017 381.161 475.128 381.137C475.239 381.113 475.354 381.119 475.463 381.153C475.571 381.187 475.668 381.25 475.745 381.333C475.822 381.417 475.875 381.519 475.9 381.63L478.21 393.01L470.67 394.44L469.2 386.71ZM469.43 396.42L480.1 394.42L481.05 399.42L470.38 401.42L469.43 396.42ZM475.55 442.06L468.24 403.51L483.81 400.51L491.12 439.07L475.55 442.06Z" fill="white"/>
<path d="M478.44 478.5V477.1C478.44 472.91 474.01 468.47 469.82 468.47H468.44V464.01H469.85C474.04 464.01 478.47 459.58 478.47 455.39V453.99H482.93V455.39C482.93 459.58 487.36 464.01 491.55 464.01H492.96V468.47H491.55C487.36 468.47 482.93 472.91 482.93 477.1V478.5H478.44ZM476.67 466.24C478.246 467.306 479.604 468.664 480.67 470.24C481.736 468.664 483.094 467.306 484.67 466.24C483.093 465.175 481.735 463.817 480.67 462.24C479.616 463.813 478.272 465.171 476.71 466.24H476.67Z" fill="#F30028"/>
<path d="M481.54 455.39H479.88C479.88 460.39 474.82 465.39 469.88 465.39V467.04C474.88 467.04 479.88 472.1 479.88 477.04H481.54C481.54 472.04 486.6 467.04 491.54 467.04V465.39C486.6 465.42 481.54 460.36 481.54 455.39ZM480.71 473.17C479.364 470.064 476.886 467.586 473.78 466.24C476.887 464.901 479.366 462.425 480.71 459.32C482.054 462.425 484.533 464.901 487.64 466.24C484.534 467.586 482.056 470.064 480.71 473.17Z" fill="white"/>
<path d="M507.01 401.29V399.85C507.01 397.16 503.94 394.09 501.25 394.09H499.85V389.63H501.25C503.94 389.63 507.01 386.57 507.01 383.88V382.47H511.44V383.88C511.44 386.57 514.51 389.63 517.2 389.63H518.6V394.09H517.2C514.51 394.09 511.44 397.16 511.44 399.85V401.26L507.01 401.29ZM507.29 391.89C508.035 392.473 508.707 393.145 509.29 393.89C509.871 393.143 510.543 392.471 511.29 391.89C510.548 391.323 509.876 390.668 509.29 389.94C508.699 390.652 508.028 391.293 507.29 391.85V391.89Z" fill="#F30028"/>
<path d="M508.44 399.85H510.09C510.09 396.37 513.77 392.69 517.25 392.69V391.04C513.77 391.04 510.09 387.36 510.09 383.88H508.44C508.44 387.36 504.75 391.04 501.27 391.04V392.69C504.73 392.72 508.44 396.4 508.44 399.85ZM509.26 387.29C510.246 389.273 511.855 390.878 513.84 391.86C511.854 392.845 510.246 394.454 509.26 396.44C508.274 394.454 506.666 392.845 504.68 391.86C506.653 390.882 508.254 389.289 509.24 387.32L509.26 387.29Z" fill="white"/>
</g>
<defs>
<clipPath id="clip0_341_6245">
<rect width="561.59" height="647.49" fill="white"/>
</clipPath>
</defs>
</svg>
